{"glyphs":{"0":{"ha":833,"x_min":68,"x_max":743,"o":"m 218 999 q 319 1080 263 1050 q 436 1110 376 1110 q 619 1031 536 1110 q 743 718 743 911 q 719 547 743 633 q 653 383 694 460 q 610 311 640 357 l 636 269 q 640 250 640 261 q 619 186 640 224 q 569 120 597 149 q 522 92 542 92 q 507 101 513 92 q 496 120 503 110 q 481 144 489 131 q 242 4 347 4 q 176 19 206 4 q 72 285 72 72 q 79 415 72 325 q 128 754 93 610 l 113 783 l 71 869 q 68 886 68 875 q 90 951 68 913 q 141 1017 113 989 q 188 1046 169 1046 q 200 1038 196 1046 q 209 1018 204 1028 q 218 999 214 1008 m 296 210 q 397 279 346 228 q 254 522 325 394 q 249 465 251 486 q 246 379 246 410 q 257 264 246 314 q 266 232 261 243 q 282 208 271 221 q 286 209 282 210 q 296 210 290 208 m 306 828 q 522 456 406 644 q 574 646 574 556 q 556 750 574 700 q 481 860 535 810 q 376 910 426 910 q 321 885 346 910 l 315 860 q 315 858 315 858 q 314 857 314 857 l 314 858 q 313 855 314 858 q 310 844 313 851 l 306 828 z "},"1":{"ha":833,"x_min":29,"x_max":774,"o":"m 725 239 q 742 242 736 242 q 766 231 758 242 q 774 203 774 221 q 758 138 774 175 q 719 74 743 101 q 672 40 696 46 q 307 3 522 3 q 208 4 265 3 q 121 7 151 6 q 64 10 82 10 q 29 50 29 11 q 49 119 29 79 q 97 185 68 158 q 153 213 126 213 q 351 206 278 207 q 371 768 365 581 q 278 661 325 707 q 232 632 247 632 q 219 651 219 632 q 240 727 219 679 q 281 794 260 775 q 346 885 328 839 q 378 1013 364 931 q 406 1082 383 1044 q 454 1142 428 1119 q 497 1163 482 1163 q 513 1139 513 1163 q 483 221 508 832 l 482 207 q 725 239 626 214 z "},"2":{"ha":833,"x_min":22,"x_max":831,"o":"m 813 196 q 831 163 831 190 q 813 104 831 138 q 771 47 796 71 q 721 22 746 22 q 706 25 717 22 q 408 74 582 74 q 65 39 271 74 q 53 38 61 38 q 22 69 22 38 q 36 125 22 93 q 63 175 50 157 l 582 883 q 503 896 542 896 q 343 857 428 896 q 224 788 279 829 q 156 699 168 747 q 121 631 147 667 q 67 590 94 594 q 34 598 44 586 q 24 631 24 610 q 28 658 24 644 q 140 856 54 758 q 342 1015 226 953 q 571 1076 458 1076 q 742 1029 667 1076 q 756 1013 751 1021 q 760 994 760 1004 q 757 975 760 989 q 737 924 751 950 q 703 878 722 897 q 229 232 386 447 q 482 253 368 253 q 813 196 671 253 z "},"3":{"ha":833,"x_min":-56,"x_max":835,"o":"m 467 754 q 648 674 564 726 q 783 547 732 621 q 835 388 835 472 q 800 250 835 321 q 646 76 742 133 q 438 18 550 18 q 246 58 342 18 q 72 170 150 97 q -51 338 -7 243 q -56 360 -56 349 q -37 422 -56 388 q 8 481 -18 457 q 54 506 33 506 q 76 490 69 506 q 203 317 124 390 q 383 213 282 244 q 515 194 443 194 q 632 214 582 194 q 697 278 682 233 q 701 306 701 290 q 637 423 701 364 q 504 519 572 482 q 373 577 442 556 q 238 599 304 599 q 151 588 196 599 q 136 585 146 585 q 114 599 121 585 q 107 632 107 613 q 110 656 107 642 q 135 710 117 685 q 178 753 153 736 q 200 765 186 760 q 400 865 276 794 q 128 822 253 857 q 113 819 117 819 q 88 851 88 819 q 117 940 88 889 q 176 1000 146 990 q 565 1050 353 1050 q 688 1046 628 1050 q 718 1013 718 1044 q 696 942 718 983 q 657 888 674 900 q 467 754 550 808 z "},"4":{"ha":736,"x_min":72,"x_max":644,"o":"m 643 1025 q 644 879 644 976 q 642 618 644 790 q 638 356 638 488 q 642 146 638 250 q 625 90 643 119 q 579 41 607 61 q 529 21 551 21 q 490 74 492 21 q 486 269 486 172 l 488 383 l 97 383 q 72 408 72 383 q 96 478 72 435 q 133 535 119 521 l 492 924 l 492 951 q 510 1008 492 978 q 556 1058 528 1038 q 606 1078 583 1078 q 643 1025 642 1078 m 490 560 q 493 786 493 713 l 283 560 l 490 560 z "},"5":{"ha":833,"x_min":69,"x_max":728,"o":"m 574 683 q 689 562 650 633 q 728 407 728 490 q 688 233 728 321 q 556 61 640 129 q 369 -7 471 -7 q 283 6 326 -7 q 147 93 203 29 q 74 240 92 157 q 88 299 69 263 q 136 365 107 336 q 186 393 165 393 q 210 367 204 393 q 242 297 215 339 q 297 231 268 254 q 374 188 328 206 q 464 171 419 171 q 569 214 532 171 q 597 294 597 247 q 569 396 597 344 q 504 478 542 447 q 335 554 411 554 q 214 483 263 554 q 135 415 167 415 q 119 419 125 415 q 106 451 106 429 q 111 483 106 468 q 119 514 111 497 q 151 624 142 564 q 167 761 161 683 l 169 794 q 176 890 176 868 q 164 971 176 942 l 151 988 q 143 1014 143 999 q 169 1076 143 1043 q 221 1108 196 1108 q 243 1099 233 1108 q 260 1083 253 1097 l 264 1075 q 375 951 326 994 q 483 907 424 907 q 586 946 531 907 q 621 961 606 961 q 640 951 633 961 q 646 924 646 940 q 635 878 646 901 q 608 843 625 856 q 429 771 511 771 q 347 790 386 771 q 282 833 314 806 l 281 814 q 268 681 276 744 q 418 735 340 735 q 574 683 494 735 z "},"6":{"ha":764,"x_min":35,"x_max":711,"o":"m 539 661 q 669 606 628 654 q 711 482 711 557 q 655 282 711 389 q 511 102 599 175 q 335 29 424 29 q 251 49 290 29 q 157 138 196 76 q 101 271 118 199 q 53 238 69 235 q 35 263 35 242 q 53 321 35 281 q 89 390 67 356 q 156 667 89 517 q 261 855 196 758 q 413 1017 326 951 q 592 1075 500 1083 q 607 1053 607 1074 q 590 991 607 1029 q 548 926 572 953 q 504 900 524 899 q 359 849 424 907 q 256 704 294 792 q 213 539 218 617 q 353 630 278 597 q 510 663 429 663 q 539 661 529 663 m 504 231 q 567 291 543 253 q 590 368 590 329 q 569 431 590 403 q 507 475 549 460 q 421 489 467 489 q 317 472 369 489 q 224 426 265 456 q 299 271 247 336 q 421 206 351 206 q 504 231 461 206 z "},"7":{"ha":792,"x_min":8,"x_max":768,"o":"m 707 1108 q 742 1118 726 1118 q 768 1082 768 1118 q 755 1022 768 1056 q 728 971 742 988 q 499 618 590 804 q 658 669 585 633 q 690 679 678 679 q 718 642 718 679 q 694 558 718 606 q 642 497 669 511 q 419 426 543 449 q 360 117 368 269 q 333 40 357 81 q 278 -14 308 0 q 247 -22 261 -22 q 221 -10 231 -22 q 213 26 211 3 q 290 413 222 214 q 224 411 268 411 q 79 418 160 411 q 49 457 49 419 q 67 523 49 485 q 114 588 86 561 q 167 611 142 614 q 322 603 269 603 l 367 604 q 522 879 432 740 q 236 849 394 849 q 40 858 151 849 q 8 899 8 863 q 27 965 8 928 q 74 1028 46 1003 q 126 1053 101 1054 q 344 1040 249 1040 q 707 1108 569 1040 z "},"8":{"ha":736,"x_min":88,"x_max":738,"o":"m 721 1140 q 738 1106 738 1129 q 707 1019 738 1076 q 535 706 628 879 q 638 610 604 668 q 671 482 671 551 q 608 275 671 382 q 398 59 529 142 q 117 -29 267 -24 q 89 1 92 -29 q 88 13 88 6 q 93 46 88 24 q 158 212 119 132 q 265 419 197 292 q 318 518 310 503 l 340 561 q 199 674 253 608 q 146 818 146 739 q 179 942 146 881 q 277 1051 217 1011 q 404 1092 338 1092 q 550 1035 483 1092 q 565 996 565 1021 q 564 978 565 985 l 618 1075 q 657 1121 632 1097 q 704 1144 682 1144 q 721 1140 713 1144 m 326 839 q 440 751 367 789 q 506 872 485 832 q 453 843 476 843 q 435 850 442 843 q 308 903 368 906 l 292 899 q 326 839 300 868 m 508 314 q 529 379 529 347 q 503 452 529 418 q 433 513 476 486 q 331 319 386 426 q 258 169 276 213 q 404 217 336 181 q 508 314 472 254 z "},"9":{"ha":607,"x_min":85,"x_max":538,"o":"m 471 1076 q 520 776 503 914 q 538 506 538 638 q 533 382 538 443 q 426 65 518 178 q 314 10 379 10 q 213 38 265 10 q 100 111 161 65 q 85 147 85 122 q 102 208 85 174 q 144 265 119 242 q 189 289 168 289 q 207 283 200 289 q 307 215 272 235 q 386 192 342 194 q 400 307 396 226 q 403 385 403 360 q 394 547 403 439 q 385 643 389 611 q 210 532 281 532 q 153 554 179 532 q 106 635 119 585 q 90 749 93 686 q 126 879 92 814 q 215 986 161 944 q 311 1022 261 1022 q 351 1014 333 1022 q 398 1076 369 1049 q 447 1103 426 1103 q 471 1076 465 1103 m 217 892 q 217 887 217 890 q 215 881 217 883 q 217 892 219 886 m 253 735 q 297 710 272 710 q 371 750 328 710 q 344 906 364 807 q 342 900 344 903 q 308 856 331 881 q 268 831 286 831 q 257 833 260 831 q 217 846 239 846 q 253 735 225 769 z "},"\u0000":{"ha":0,"x_min":0,"x_max":0,"o":""},"\r":{"ha":440,"x_min":0,"x_max":0,"o":""}," ":{"ha":440,"x_min":0,"x_max":0,"o":""},"A":{"ha":943,"x_min":38,"x_max":938,"o":"m 526 517 q 576 493 549 508 q 513 749 535 643 q 369 485 458 640 q 346 442 363 469 q 472 528 401 528 q 526 517 500 528 m 749 714 q 883 354 806 521 l 899 324 q 928 267 918 290 q 938 221 938 244 q 907 147 938 185 q 840 90 876 108 q 793 78 818 78 q 710 103 751 78 q 613 178 669 129 q 551 225 572 211 q 493 256 538 235 q 373 325 415 294 q 331 397 331 356 q 340 431 331 408 q 267 286 314 383 q 200 154 208 168 q 146 87 183 124 q 76 50 108 50 q 47 63 60 50 q 38 93 38 72 q 126 300 38 151 q 144 332 132 311 l 175 390 q 313 658 269 568 q 385 817 338 711 l 435 929 q 496 1038 465 994 q 572 1106 526 1082 q 617 1118 596 1118 q 657 1092 644 1118 q 679 1017 669 1067 q 749 714 704 874 z "},"Á":{"ha":944,"x_min":38,"x_max":938,"o":"m 526 517 q 576 493 549 508 q 513 749 535 643 q 369 485 458 640 q 346 442 363 469 q 472 528 401 528 q 526 517 500 528 m 749 714 q 883 354 806 521 l 899 324 q 928 267 918 290 q 938 221 938 244 q 907 147 938 185 q 840 90 876 108 q 793 78 818 78 q 710 103 751 78 q 613 178 669 129 q 551 225 572 211 q 493 256 538 235 q 373 325 415 294 q 331 397 331 356 q 340 431 331 408 q 267 286 314 383 q 200 154 208 168 q 146 87 183 124 q 76 50 108 50 q 47 63 60 50 q 38 93 38 72 q 126 300 38 151 q 144 332 132 311 l 175 390 q 313 658 269 568 q 385 817 338 711 l 435 929 q 496 1038 465 994 q 572 1106 526 1082 q 617 1118 596 1118 q 657 1092 644 1118 q 679 1017 669 1067 q 749 714 704 874 m 449 1122 q 429 1146 429 1128 q 444 1178 429 1163 q 473 1206 450 1183 q 513 1250 496 1229 q 540 1290 529 1271 q 589 1338 556 1321 q 661 1357 622 1354 q 703 1347 681 1360 q 725 1317 725 1335 q 719 1297 725 1307 q 561 1140 646 1183 q 478 1118 517 1118 q 449 1122 461 1118 z "},"Ă":{"ha":938,"x_min":38,"x_max":938,"o":"m 526 517 q 576 493 549 508 q 513 749 535 643 q 369 485 458 640 q 346 442 363 469 q 472 528 401 528 q 526 517 500 528 m 749 714 q 883 354 806 521 l 899 324 q 928 267 918 290 q 938 221 938 244 q 907 147 938 185 q 840 90 876 108 q 793 78 818 78 q 710 103 751 78 q 613 178 669 129 q 551 225 572 211 q 493 256 538 235 q 373 325 415 294 q 331 397 331 356 q 340 431 331 408 q 267 286 314 383 q 200 154 208 168 q 146 87 183 124 q 76 50 108 50 q 47 63 60 50 q 38 93 38 72 q 126 300 38 151 q 144 332 132 311 l 175 390 q 313 658 269 568 q 385 817 338 711 l 435 929 q 496 1038 465 994 q 572 1106 526 1082 q 617 1118 596 1118 q 657 1092 644 1118 q 679 1017 669 1067 q 749 714 704 874 m 639 1283 q 685 1343 640 1317 q 775 1369 729 1369 q 819 1358 803 1369 q 836 1324 836 1347 q 798 1226 836 1268 q 703 1162 760 1185 q 593 1135 646 1139 q 452 1169 511 1129 q 358 1286 393 1210 q 372 1327 350 1306 q 430 1363 393 1349 q 497 1378 467 1378 q 544 1356 535 1378 q 577 1299 560 1322 q 619 1261 594 1275 q 625 1260 621 1261 q 635 1257 629 1258 q 639 1283 640 1269 z "},"Â":{"ha":943,"x_min":38,"x_max":938,"o":"m 526 517 q 576 493 549 508 q 513 749 535 643 q 369 485 458 640 q 346 442 363 469 q 472 528 401 528 q 526 517 500 528 m 749 714 q 883 354 806 521 l 899 324 q 928 267 918 290 q 938 221 938 244 q 907 147 938 185 q 840 90 876 108 q 793 78 818 78 q 710 103 751 78 q 613 178 669 129 q 551 225 572 211 q 493 256 538 235 q 373 325 415 294 q 331 397 331 356 q 340 431 331 408 q 267 286 314 383 q 200 154 208 168 q 146 87 183 124 q 76 50 108 50 q 47 63 60 50 q 38 93 38 72 q 126 300 38 151 q 144 332 132 311 l 175 390 q 313 658 269 568 q 385 817 338 711 l 435 929 q 496 1038 465 994 q 572 1106 526 1082 q 617 1118 596 1118 q 657 1092 644 1118 q 679 1017 669 1067 q 749 714 704 874 m 688 1354 q 743 1297 711 1318 q 807 1259 775 1275 q 849 1239 839 1243 q 872 1207 872 1228 q 863 1180 872 1194 q 842 1156 854 1165 q 798 1131 824 1140 q 747 1122 772 1122 q 710 1128 725 1122 q 611 1174 656 1147 q 586 1196 604 1178 q 507 1135 546 1160 q 404 1099 450 1099 q 375 1104 386 1099 q 354 1131 354 1114 q 363 1154 354 1142 q 386 1175 372 1167 q 514 1304 476 1239 q 568 1351 528 1328 q 643 1375 608 1375 q 688 1354 674 1375 z "},"Ä":{"ha":943,"x_min":38,"x_max":938,"o":"m 526 517 q 576 493 549 508 q 513 749 535 643 q 369 485 458 640 q 346 442 363 469 q 472 528 401 528 q 526 517 500 528 m 749 714 q 883 354 806 521 l 899 324 q 928 267 918 290 q 938 221 938 244 q 907 147 938 185 q 840 90 876 108 q 793 78 818 78 q 710 103 751 78 q 613 178 669 129 q 551 225 572 211 q 493 256 538 235 q 373 325 415 294 q 331 397 331 356 q 340 431 331 408 q 267 286 314 383 q 200 154 208 168 q 146 87 183 124 q 76 50 108 50 q 47 63 60 50 q 38 93 38 72 q 126 300 38 151 q 144 332 132 311 l 175 390 q 313 658 269 568 q 385 817 338 711 l 435 929 q 496 1038 465 994 q 572 1106 526 1082 q 617 1118 596 1118 q 657 1092 644 1118 q 679 1017 669 1067 q 749 714 704 874 m 393 1217 q 392 1225 392 1219 q 410 1258 392 1236 q 474 1296 429 1279 q 546 1308 515 1313 q 586 1288 578 1306 l 607 1244 q 622 1267 611 1256 q 685 1304 640 1285 q 757 1317 721 1319 q 796 1296 793 1313 l 810 1247 l 811 1239 q 794 1203 811 1225 q 731 1164 774 1181 q 657 1153 692 1149 q 631 1160 644 1154 q 617 1176 618 1167 l 606 1221 q 599 1209 604 1215 q 592 1199 594 1203 q 529 1160 569 1175 q 467 1147 494 1147 q 414 1174 428 1147 l 393 1217 z "},"À":{"ha":833,"x_min":38,"x_max":938,"o":"m 526 517 q 576 493 549 508 q 513 749 535 643 q 369 485 458 640 q 346 442 363 469 q 472 528 401 528 q 526 517 500 528 m 749 714 q 883 354 806 521 l 899 324 q 928 267 918 290 q 938 221 938 244 q 907 147 938 185 q 840 90 876 108 q 793 78 818 78 q 710 103 751 78 q 613 178 669 129 q 551 225 572 211 q 493 256 538 235 q 373 325 415 294 q 331 397 331 356 q 340 431 331 408 q 267 286 314 383 q 200 154 208 168 q 146 87 183 124 q 76 50 108 50 q 47 63 60 50 q 38 93 38 72 q 126 300 38 151 q 144 332 132 311 l 175 390 q 313 658 269 568 q 385 817 338 711 l 435 929 q 496 1038 465 994 q 572 1106 526 1082 q 617 1118 596 1118 q 657 1092 644 1118 q 679 1017 669 1067 q 749 714 704 874 m 340 1308 q 332 1328 332 1317 q 383 1382 332 1356 q 479 1408 435 1408 q 515 1399 504 1408 l 518 1396 l 524 1390 l 585 1324 q 618 1292 593 1315 q 651 1249 643 1269 q 654 1235 654 1240 q 599 1169 654 1203 q 514 1147 561 1147 q 476 1153 492 1147 q 476 1154 476 1154 q 475 1154 475 1154 q 450 1182 454 1161 q 427 1212 444 1193 q 403 1239 410 1231 l 340 1308 z "},"Ā":{"ha":943,"x_min":38,"x_max":938,"o":"m 526 517 q 576 493 549 508 q 513 749 535 643 q 369 485 458 640 q 346 442 363 469 q 472 528 401 528 q 526 517 500 528 m 749 714 q 883 354 806 521 l 899 324 q 928 267 918 290 q 938 221 938 244 q 907 147 938 185 q 840 90 876 108 q 793 78 818 78 q 710 103 751 78 q 613 178 669 129 q 551 225 572 211 q 493 256 538 235 q 373 325 415 294 q 331 397 331 356 q 340 431 331 408 q 267 286 314 383 q 200 154 208 168 q 146 87 183 124 q 76 50 108 50 q 47 63 60 50 q 38 93 38 72 q 126 300 38 151 q 144 332 132 311 l 175 390 q 313 658 269 568 q 385 817 338 711 l 435 929 q 496 1038 465 994 q 572 1106 526 1082 q 617 1118 596 1118 q 657 1092 644 1118 q 679 1017 669 1067 q 749 714 704 874 m 347 1167 q 319 1176 329 1168 q 310 1196 310 1183 q 325 1228 310 1210 q 382 1265 346 1253 q 454 1276 418 1276 q 618 1274 560 1274 q 732 1278 676 1274 q 797 1293 767 1293 q 831 1285 817 1293 q 849 1264 844 1278 l 851 1253 q 853 1240 853 1249 q 832 1196 853 1217 q 782 1164 811 1175 q 731 1156 753 1153 q 486 1164 649 1161 q 347 1167 439 1164 z "},"Ą":{"ha":944,"x_min":38,"x_max":938,"o":"m 526 517 q 576 493 549 508 q 513 749 535 643 q 369 485 458 640 q 346 442 363 469 q 472 528 401 528 q 526 517 500 528 m 749 714 q 883 354 806 521 l 899 324 q 928 267 918 290 q 938 221 938 244 q 907 147 938 185 q 840 90 876 108 q 793 78 818 78 q 710 103 751 78 q 613 178 669 129 q 551 225 572 211 q 493 256 538 235 q 373 325 415 294 q 331 397 331 356 q 340 431 331 408 q 267 286 314 383 q 200 154 208 168 q 146 87 183 124 q 76 50 108 50 q 47 63 60 50 q 38 93 38 72 q 126 300 38 151 q 144 332 132 311 l 175 390 q 313 658 269 568 q 385 817 338 711 l 435 929 q 496 1038 465 994 q 572 1106 526 1082 q 617 1118 596 1118 q 657 1092 644 1118 q 679 1017 669 1067 q 749 714 704 874 m 819 81 q 794 51 803 65 q 788 19 785 38 q 810 -11 789 1 q 824 -12 819 -11 q 851 -23 838 -15 q 865 -42 864 -31 l 865 -43 q 867 -57 867 -49 q 848 -101 867 -83 q 796 -135 829 -118 q 749 -146 775 -146 q 672 -121 711 -146 q 629 -90 646 -106 q 606 -53 613 -74 q 601 -26 601 -39 q 669 90 601 31 q 730 127 694 114 q 799 139 765 140 q 825 129 815 138 q 835 110 835 121 q 819 81 835 96 z "},"Å":{"ha":943,"x_min":38,"x_max":938,"o":"m 526 517 q 576 493 549 508 q 513 749 535 643 q 369 485 458 640 q 346 442 363 469 q 472 528 401 528 q 526 517 500 528 m 749 714 q 883 354 806 521 l 899 324 q 928 267 918 290 q 938 221 938 244 q 907 147 938 185 q 840 90 876 108 q 793 78 818 78 q 710 103 751 78 q 613 178 669 129 q 551 225 572 211 q 493 256 538 235 q 373 325 415 294 q 331 397 331 356 q 340 431 331 408 q 267 286 314 383 q 200 154 208 168 q 146 87 183 124 q 76 50 108 50 q 47 63 60 50 q 38 93 38 72 q 126 300 38 151 q 144 332 132 311 l 175 390 q 313 658 269 568 q 385 817 338 711 l 435 929 q 496 1038 465 994 q 572 1106 526 1082 q 617 1118 596 1118 q 657 1092 644 1118 q 679 1017 669 1067 q 749 714 704 874 m 506 1488 q 633 1521 568 1521 q 771 1463 718 1521 q 810 1368 810 1418 q 770 1270 810 1317 q 672 1194 731 1224 q 585 1163 636 1176 q 489 1150 535 1150 q 343 1246 364 1150 q 339 1285 339 1267 q 387 1411 339 1356 q 506 1488 435 1467 m 568 1397 m 600 1268 q 619 1310 619 1279 q 611 1350 619 1328 q 585 1388 603 1372 l 572 1396 q 532 1372 553 1381 q 529 1342 529 1363 q 541 1285 529 1308 q 575 1261 553 1261 q 600 1268 590 1261 z "},"Ǻ":{"ha":951,"x_min":38,"x_max":938,"o":"m 526 517 q 576 493 549 508 q 513 749 535 643 q 369 485 458 640 q 346 442 363 469 q 472 528 401 528 q 526 517 500 528 m 749 714 q 883 354 806 521 l 899 324 q 928 267 918 290 q 938 221 938 244 q 907 147 938 185 q 840 90 876 108 q 793 78 818 78 q 710 103 751 78 q 613 178 669 129 q 551 225 572 211 q 493 256 538 235 q 373 325 415 294 q 331 397 331 356 q 340 431 331 408 q 267 286 314 383 q 200 154 208 168 q 146 87 183 124 q 76 50 108 50 q 47 63 60 50 q 38 93 38 72 q 126 300 38 151 q 144 332 132 311 l 175 390 q 313 658 269 568 q 385 817 338 711 l 435 929 q 496 1038 465 994 q 572 1106 526 1082 q 617 1118 596 1118 q 657 1092 644 1118 q 679 1017 669 1067 q 749 714 704 874 m 538 1497 q 665 1531 600 1531 q 803 1472 750 1531 q 842 1378 842 1428 q 802 1280 842 1326 q 704 1204 763 1233 q 617 1173 668 1186 q 521 1160 567 1160 q 375 1256 396 1160 q 371 1294 371 1276 q 419 1421 371 1365 q 538 1497 467 1476 m 600 1407 m 632 1278 q 651 1319 651 1289 q 643 1360 651 1338 q 617 1397 635 1382 l 604 1406 q 564 1382 585 1390 q 561 1351 561 1372 q 573 1294 561 1318 q 607 1271 585 1271 q 632 1278 622 1271 m 485 1544 q 465 1568 465 1550 q 481 1600 465 1585 q 509 1628 486 1606 q 549 1672 532 1651 q 576 1713 565 1693 q 625 1760 592 1743 q 697 1779 658 1776 q 739 1769 717 1782 q 761 1739 761 1757 q 756 1719 761 1729 q 597 1563 682 1606 q 514 1540 553 1540 q 485 1544 497 1540 z "},"Ã":{"ha":833,"x_min":38,"x_max":938,"o":"m 526 517 q 576 493 549 508 q 513 749 535 643 q 369 485 458 640 q 346 442 363 469 q 472 528 401 528 q 526 517 500 528 m 749 714 q 883 354 806 521 l 899 324 q 928 267 918 290 q 938 221 938 244 q 907 147 938 185 q 840 90 876 108 q 793 78 818 78 q 710 103 751 78 q 613 178 669 129 q 551 225 572 211 q 493 256 538 235 q 373 325 415 294 q 331 397 331 356 q 340 431 331 408 q 267 286 314 383 q 200 154 208 168 q 146 87 183 124 q 76 50 108 50 q 47 63 60 50 q 38 93 38 72 q 126 300 38 151 q 144 332 132 311 l 175 390 q 313 658 269 568 q 385 817 338 711 l 435 929 q 496 1038 465 994 q 572 1106 526 1082 q 617 1118 596 1118 q 657 1092 644 1118 q 679 1017 669 1067 q 749 714 704 874 m 715 1318 q 749 1375 717 1350 q 814 1400 782 1400 q 845 1389 833 1400 q 857 1354 857 1378 q 826 1257 858 1297 q 748 1196 794 1217 q 658 1175 701 1175 q 640 1176 646 1175 q 532 1207 599 1181 q 488 1222 497 1219 l 438 1235 l 432 1218 q 390 1168 426 1190 q 322 1146 354 1146 q 293 1174 288 1146 q 353 1308 308 1256 q 461 1365 397 1361 q 553 1343 479 1365 q 621 1325 567 1339 q 699 1311 675 1311 q 715 1318 715 1311 z "},"Æ":{"ha":1372,"x_min":0,"x_max":1372,"o":"m 1322 638 q 1372 611 1372 636 q 1342 563 1372 592 q 1274 513 1313 535 q 1213 492 1235 492 q 950 488 1082 488 l 863 488 q 864 386 864 454 q 863 282 864 317 q 1101 286 983 286 q 1274 283 1160 286 q 1310 272 1297 282 q 1322 244 1322 261 q 1310 213 1322 229 q 1245 161 1290 182 q 1161 140 1200 140 q 1011 139 1111 139 l 860 139 l 860 139 q 831 86 860 111 q 758 47 801 61 q 678 32 715 32 q 626 45 646 32 q 607 85 606 58 q 614 424 614 272 l 614 493 q 451 496 503 496 q 231 183 340 315 q 157 135 206 154 q 71 119 108 115 q 22 133 44 122 q 0 161 0 143 q 10 185 0 174 q 267 583 168 399 l 283 617 q 444 994 444 933 q 440 1007 444 1003 q 419 1049 419 1028 q 451 1105 419 1078 q 523 1149 482 1132 q 589 1164 564 1167 q 806 1156 678 1156 q 1214 1179 978 1156 q 1240 1181 1224 1181 q 1305 1164 1283 1181 q 1326 1122 1326 1147 q 1291 1051 1326 1086 q 1201 1004 1256 1015 q 842 967 1047 971 q 861 644 856 788 q 1322 638 1129 644 m 611 643 q 606 789 608 738 q 564 707 594 765 l 543 667 l 531 643 l 611 643 z "},"Ǽ":{"ha":1372,"x_min":0,"x_max":1372,"o":"m 1322 638 q 1372 611 1372 636 q 1342 563 1372 592 q 1274 513 1313 535 q 1213 492 1235 492 q 950 488 1082 488 l 863 488 q 864 386 864 454 q 863 282 864 317 q 1101 286 983 286 q 1274 283 1160 286 q 1310 272 1297 282 q 1322 244 1322 261 q 1310 213 1322 229 q 1245 161 1290 182 q 1161 140 1200 140 q 1011 139 1111 139 l 860 139 l 860 139 q 831 86 860 111 q 758 47 801 61 q 678 32 715 32 q 626 45 646 32 q 607 85 606 58 q 614 424 614 272 l 614 493 q 451 496 503 496 q 231 183 340 315 q 157 135 206 154 q 71 119 108 115 q 22 133 44 122 q 0 161 0 143 q 10 185 0 174 q 267 583 168 399 l 283 617 q 444 994 444 933 q 440 1007 444 1003 q 419 1049 419 1028 q 451 1105 419 1078 q 523 1149 482 1132 q 589 1164 564 1167 q 806 1156 678 1156 q 1214 1179 978 1156 q 1240 1181 1224 1181 q 1305 1164 1283 1181 q 1326 1122 1326 1147 q 1291 1051 1326 1086 q 1201 1004 1256 1015 q 842 967 1047 971 q 861 644 856 788 q 1322 638 1129 644 m 611 643 q 606 789 608 738 q 564 707 594 765 l 543 667 l 531 643 l 611 643 m 769 1261 q 750 1285 750 1267 q 765 1317 750 1301 q 794 1345 771 1322 q 833 1389 817 1368 q 861 1429 850 1410 q 910 1476 876 1460 q 982 1496 943 1493 q 1024 1486 1001 1499 q 1046 1456 1046 1474 q 1040 1436 1046 1446 q 882 1279 967 1322 q 799 1257 838 1257 q 769 1261 782 1257 z "},"B":{"ha":921,"x_min":19,"x_max":951,"o":"m 789 568 q 803 631 803 601 q 665 721 803 721 q 527 702 601 721 q 410 661 453 683 q 299 588 335 624 q 263 489 264 553 q 257 319 261 392 q 242 175 253 246 q 553 333 410 238 q 706 448 647 396 q 789 568 764 500 m 279 869 q 276 801 279 849 q 274 757 274 774 l 333 835 q 410 937 383 900 q 458 1017 436 974 q 372 992 410 1006 q 304 958 335 979 q 281 938 288 946 q 275 919 275 929 q 277 897 275 911 q 279 869 279 883 m 806 907 q 916 849 881 894 q 951 735 951 803 q 931 618 951 685 q 683 278 876 447 q 347 54 532 149 q 211 -10 288 22 q 81 -42 135 -42 q 25 -17 39 -42 q 19 6 19 -7 q 28 37 19 22 q 54 78 36 51 q 81 119 75 106 q 93 219 93 156 l 93 253 q 92 279 93 264 q 93 313 92 294 q 108 538 104 463 q 110 572 108 557 q 113 597 111 586 q 115 632 114 611 q 117 681 117 653 q 113 736 117 710 q 96 790 107 772 q 83 806 94 794 q 69 824 71 818 q 68 839 68 829 q 121 968 68 885 q 151 1008 136 992 q 185 1032 167 1025 q 203 1035 190 1035 q 215 1035 207 1035 q 226 1036 222 1035 q 258 1057 242 1042 q 276 1075 274 1072 q 306 1100 292 1090 q 422 1167 350 1132 q 546 1201 494 1201 q 610 1161 596 1201 q 615 1128 615 1146 q 579 1013 615 1075 q 485 875 543 951 q 457 836 476 863 q 740 913 607 913 q 806 907 776 913 z "},"C":{"ha":746,"x_min":46,"x_max":724,"o":"m 367 799 l 369 800 l 367 799 m 624 439 q 650 444 636 444 q 703 404 683 444 q 724 317 724 364 q 717 274 724 292 q 649 175 696 219 q 535 85 601 131 q 381 6 469 42 q 218 -29 293 -29 q 68 60 106 -29 q 46 186 46 110 q 77 384 46 282 q 163 626 108 486 q 292 888 217 764 q 457 1013 367 1013 q 500 1003 481 1013 q 571 1158 515 1108 q 631 1188 606 1188 q 675 1153 660 1188 q 685 1089 685 1128 q 682 1036 685 1069 l 681 994 q 668 792 678 893 q 628 617 660 700 q 526 526 596 533 q 470 563 492 522 q 425 681 449 603 q 399 756 410 731 q 376 794 389 782 q 260 488 297 654 l 253 460 q 235 377 242 410 q 229 313 229 344 q 265 215 229 242 q 336 194 290 194 q 403 204 367 194 q 479 231 439 213 q 517 250 492 236 q 528 258 528 251 q 521 269 528 264 q 526 304 524 282 q 533 339 529 325 q 547 368 538 353 q 624 439 583 421 z "},"Ć":{"ha":724,"x_min":46,"x_max":724,"o":"m 367 799 l 369 800 l 367 799 m 624 439 q 650 444 636 444 q 703 404 683 444 q 724 317 724 364 q 717 274 724 292 q 649 175 696 219 q 535 85 601 131 q 381 6 469 42 q 218 -29 293 -29 q 68 60 106 -29 q 46 186 46 110 q 77 384 46 282 q 163 626 108 486 q 292 888 217 764 q 457 1013 367 1013 q 500 1003 481 1013 q 571 1158 515 1108 q 631 1188 606 1188 q 675 1153 660 1188 q 685 1089 685 1128 q 682 1036 685 1069 l 681 994 q 668 792 678 893 q 628 617 660 700 q 526 526 596 533 q 470 563 492 522 q 425 681 449 603 q 399 756 410 731 q 376 794 389 782 q 260 488 297 654 l 253 460 q 235 377 242 410 q 229 313 229 344 q 265 215 229 242 q 336 194 290 194 q 403 204 367 194 q 479 231 439 213 q 517 250 492 236 q 528 258 528 251 q 521 269 528 264 q 526 304 524 282 q 533 339 529 325 q 547 368 538 353 q 624 439 583 421 m 358 1139 q 339 1163 339 1144 q 354 1194 339 1179 q 383 1223 360 1200 q 422 1267 406 1246 q 450 1307 439 1288 q 499 1354 465 1338 q 571 1374 532 1371 q 613 1364 590 1376 q 635 1333 635 1351 q 629 1314 635 1324 q 471 1157 556 1200 q 388 1135 426 1135 q 358 1139 371 1135 z "},"Č":{"ha":717,"x_min":46,"x_max":724,"o":"m 367 799 l 369 800 l 367 799 m 624 439 q 650 444 636 444 q 703 404 683 444 q 724 317 724 364 q 717 274 724 292 q 649 175 696 219 q 535 85 601 131 q 381 6 469 42 q 218 -29 293 -29 q 68 60 106 -29 q 46 186 46 110 q 77 384 46 282 q 163 626 108 486 q 292 888 217 764 q 457 1013 367 1013 q 500 1003 481 1013 q 571 1158 515 1108 q 631 1188 606 1188 q 675 1153 660 1188 q 685 1089 685 1128 q 682 1036 685 1069 l 681 994 q 668 792 678 893 q 628 617 660 700 q 526 526 596 533 q 470 563 492 522 q 425 681 449 603 q 399 756 410 731 q 376 794 389 782 q 260 488 297 654 l 253 460 q 235 377 242 410 q 229 313 229 344 q 265 215 229 242 q 336 194 290 194 q 403 204 367 194 q 479 231 439 213 q 517 250 492 236 q 528 258 528 251 q 521 269 528 264 q 526 304 524 282 q 533 339 529 325 q 547 368 538 353 q 624 439 583 421 m 278 1318 q 268 1335 268 1324 q 288 1367 268 1350 q 325 1393 308 1385 q 410 1418 369 1418 q 450 1407 435 1418 q 511 1356 483 1385 q 650 1397 582 1399 q 697 1385 679 1397 q 714 1354 714 1372 q 685 1304 714 1328 q 638 1271 667 1289 q 595 1242 613 1256 q 564 1207 578 1228 q 515 1170 549 1186 q 449 1154 482 1154 q 385 1190 400 1154 q 278 1318 354 1267 z "},"Ç":{"ha":746,"x_min":46,"x_max":724,"o":"m 367 799 l 369 800 l 367 799 m 624 439 q 650 444 636 444 q 703 404 683 444 q 724 317 724 364 q 717 274 724 292 q 649 175 696 219 q 535 85 601 131 q 381 6 469 42 q 218 -29 293 -29 q 68 60 106 -29 q 46 186 46 110 q 77 384 46 282 q 163 626 108 486 q 292 888 217 764 q 457 1013 367 1013 q 500 1003 481 1013 q 571 1158 515 1108 q 631 1188 606 1188 q 675 1153 660 1188 q 685 1089 685 1128 q 682 1036 685 1069 l 681 994 q 668 792 678 893 q 628 617 660 700 q 526 526 596 533 q 470 563 492 522 q 425 681 449 603 q 399 756 410 731 q 376 794 389 782 q 260 488 297 654 l 253 460 q 235 377 242 410 q 229 313 229 344 q 265 215 229 242 q 336 194 290 194 q 403 204 367 194 q 479 231 439 213 q 517 250 492 236 q 528 258 528 251 q 521 269 528 264 q 526 304 524 282 q 533 339 529 325 q 547 368 538 353 q 624 439 583 421 m 396 -381 q 332 -387 361 -387 q 283 -383 308 -387 q 238 -369 256 -378 l 204 -351 l 219 -360 q 194 -322 194 -346 q 203 -294 194 -308 q 224 -268 211 -279 q 268 -242 243 -251 q 318 -232 293 -232 q 360 -240 342 -232 q 379 -244 371 -244 q 403 -233 394 -244 q 411 -207 411 -222 q 396 -170 411 -186 q 354 -157 381 -154 q 294 -150 324 -161 q 265 -115 265 -139 q 281 -81 265 -100 q 304 -40 293 -65 q 324 7 315 -15 q 363 51 335 33 q 424 78 390 69 q 457 81 435 81 q 507 49 518 81 q 475 -32 497 21 q 568 -79 533 -40 q 601 -162 601 -114 q 574 -253 601 -204 q 498 -333 544 -300 q 396 -381 451 -367 z "},"Ḉ":{"ha":833,"x_min":46,"x_max":724,"o":"m 367 799 l 369 800 l 367 799 m 624 439 q 650 444 636 444 q 703 404 683 444 q 724 317 724 364 q 717 274 724 292 q 649 175 696 219 q 535 85 601 131 q 381 6 469 42 q 218 -29 293 -29 q 68 60 106 -29 q 46 186 46 110 q 77 384 46 282 q 163 626 108 486 q 292 888 217 764 q 457 1013 367 1013 q 500 1003 481 1013 q 571 1158 515 1108 q 631 1188 606 1188 q 675 1153 660 1188 q 685 1089 685 1128 q 682 1036 685 1069 l 681 994 q 668 792 678 893 q 628 617 660 700 q 526 526 596 533 q 470 563 492 522 q 425 681 449 603 q 399 756 410 731 q 376 794 389 782 q 260 488 297 654 l 253 460 q 235 377 242 410 q 229 313 229 344 q 265 215 229 242 q 336 194 290 194 q 403 204 367 194 q 479 231 439 213 q 517 250 492 236 q 528 258 528 251 q 521 269 528 264 q 526 304 524 282 q 533 339 529 325 q 547 368 538 353 q 624 439 583 421 m 396 -381 q 332 -387 361 -387 q 283 -383 308 -387 q 238 -369 256 -378 l 204 -351 l 219 -360 q 194 -322 194 -346 q 203 -294 194 -308 q 224 -268 211 -279 q 268 -242 243 -251 q 318 -232 293 -232 q 360 -240 342 -232 q 379 -244 371 -244 q 403 -233 394 -244 q 411 -207 411 -222 q 396 -170 411 -186 q 354 -157 381 -154 q 294 -150 324 -161 q 265 -115 265 -139 q 281 -81 265 -100 q 304 -40 293 -65 q 324 7 315 -15 q 363 51 335 33 q 424 78 390 69 q 457 81 435 81 q 507 49 518 81 q 475 -32 497 21 q 568 -79 533 -40 q 601 -162 601 -114 q 574 -253 601 -204 q 498 -333 544 -300 q 396 -381 451 -367 m 271 1057 q 251 1081 251 1063 q 267 1113 251 1097 q 295 1141 272 1118 q 335 1185 318 1164 q 363 1225 351 1206 q 411 1272 378 1256 q 483 1292 444 1289 q 525 1282 503 1294 q 547 1251 547 1269 q 542 1232 547 1242 q 383 1075 468 1118 q 300 1053 339 1053 q 271 1057 283 1053 z "},"Ĉ":{"ha":756,"x_min":46,"x_max":790,"o":"m 367 799 l 369 800 l 367 799 m 624 439 q 650 444 636 444 q 703 404 683 444 q 724 317 724 364 q 717 274 724 292 q 649 175 696 219 q 535 85 601 131 q 381 6 469 42 q 218 -29 293 -29 q 68 60 106 -29 q 46 186 46 110 q 77 384 46 282 q 163 626 108 486 q 292 888 217 764 q 457 1013 367 1013 q 500 1003 481 1013 q 571 1158 515 1108 q 631 1188 606 1188 q 675 1153 660 1188 q 685 1089 685 1128 q 682 1036 685 1069 l 681 994 q 668 792 678 893 q 628 617 660 700 q 526 526 596 533 q 470 563 492 522 q 425 681 449 603 q 399 756 410 731 q 376 794 389 782 q 260 488 297 654 l 253 460 q 235 377 242 410 q 229 313 229 344 q 265 215 229 242 q 336 194 290 194 q 403 204 367 194 q 479 231 439 213 q 517 250 492 236 q 528 258 528 251 q 521 269 528 264 q 526 304 524 282 q 533 339 529 325 q 547 368 538 353 q 624 439 583 421 m 606 1469 q 661 1412 629 1433 q 725 1374 693 1390 q 767 1354 757 1358 q 790 1322 790 1343 q 781 1295 790 1310 q 760 1271 772 1281 q 716 1247 742 1256 q 665 1238 690 1238 q 628 1243 643 1238 q 529 1289 574 1263 q 504 1311 522 1293 q 425 1250 464 1275 q 322 1214 368 1214 q 293 1219 304 1214 q 272 1246 272 1229 q 281 1269 272 1257 q 304 1290 290 1282 q 432 1419 394 1354 q 486 1467 446 1443 q 561 1490 526 1490 q 606 1469 592 1490 z "},"Ċ":{"ha":833,"x_min":46,"x_max":724,"o":"m 367 799 l 369 800 l 367 799 m 624 439 q 650 444 636 444 q 703 404 683 444 q 724 317 724 364 q 717 274 724 292 q 649 175 696 219 q 535 85 601 131 q 381 6 469 42 q 218 -29 293 -29 q 68 60 106 -29 q 46 186 46 110 q 77 384 46 282 q 163 626 108 486 q 292 888 217 764 q 457 1013 367 1013 q 500 1003 481 1013 q 571 1158 515 1108 q 631 1188 606 1188 q 675 1153 660 1188 q 685 1089 685 1128 q 682 1036 685 1069 l 681 994 q 668 792 678 893 q 628 617 660 700 q 526 526 596 533 q 470 563 492 522 q 425 681 449 603 q 399 756 410 731 q 376 794 389 782 q 260 488 297 654 l 253 460 q 235 377 242 410 q 229 313 229 344 q 265 215 229 242 q 336 194 290 194 q 403 204 367 194 q 479 231 439 213 q 517 250 492 236 q 528 258 528 251 q 521 269 528 264 q 526 304 524 282 q 533 339 529 325 q 547 368 538 353 q 624 439 583 421 m 401 1135 q 353 1156 367 1138 q 340 1201 336 1176 q 351 1228 343 1215 q 369 1251 360 1240 q 394 1272 379 1264 q 431 1288 408 1279 q 432 1289 432 1288 q 508 1308 476 1308 q 554 1294 535 1308 q 574 1261 569 1282 l 575 1247 q 569 1218 575 1231 q 510 1160 556 1185 q 417 1133 464 1133 l 401 1135 z "},"D":{"ha":1007,"x_min":-56,"x_max":1047,"o":"m 43 1165 q 82 1175 61 1175 q 136 1158 111 1175 q 154 1144 146 1151 q 169 1132 163 1138 q 192 1121 178 1126 q 215 1110 206 1115 q 338 1040 257 1088 l 461 969 q 649 864 568 908 l 738 817 q 872 744 817 776 q 974 672 926 713 q 1028 610 1008 640 q 1047 543 1047 579 l 1046 528 q 961 374 1032 447 q 834 274 907 315 q 667 194 761 232 q 297 85 506 133 q 265 78 275 79 l 208 64 l 128 49 q 36 35 90 42 q 16 30 31 33 q -10 26 1 26 q -26 29 -15 26 q -56 64 -56 35 q -42 109 -56 83 q -15 150 -29 135 q 107 217 26 199 q 127 226 124 221 q 132 249 131 231 q 135 324 132 274 q 149 525 146 456 q 156 625 154 592 q 158 644 157 632 q 160 672 160 656 q 154 706 160 690 q 61 881 125 776 q 63 877 61 879 q 67 869 65 875 q 7 963 49 901 q -6 981 1 969 q -18 999 -12 992 q -29 1010 -22 1003 q -40 1024 -36 1018 q -47 1049 -47 1038 q -17 1113 -47 1079 q 43 1165 13 1146 m 367 271 q 640 344 493 299 q 769 390 719 369 q 864 444 819 411 q 773 528 824 493 q 629 619 722 564 l 525 682 l 357 786 q 408 513 408 640 q 382 328 408 419 l 367 271 z "},"Ð":{"ha":1007,"x_min":-56,"x_max":1047,"o":"m 43 1165 q 82 1175 61 1175 q 136 1158 111 1175 q 154 1144 146 1151 q 169 1132 163 1138 q 192 1121 178 1126 q 215 1110 206 1115 q 338 1040 257 1088 l 461 969 q 649 864 568 908 l 738 817 q 872 744 817 776 q 974 672 926 713 q 1028 610 1008 640 q 1047 543 1047 579 l 1046 528 q 961 374 1032 447 q 834 274 907 315 q 667 194 761 232 q 297 85 506 133 q 265 78 275 79 l 208 64 l 128 49 q 36 35 90 42 q 16 30 31 33 q -10 26 1 26 q -26 29 -15 26 q -56 64 -56 35 q -42 109 -56 83 q -15 150 -29 135 q 107 217 26 199 q 127 226 124 221 q 132 249 131 231 q 135 324 132 274 q 149 525 146 456 q 156 625 154 592 q 158 644 157 632 q 160 672 160 656 q 154 706 160 690 q 61 881 125 776 q 63 877 61 879 q 67 869 65 875 q 7 963 49 901 q -6 981 1 969 q -18 999 -12 992 q -29 1010 -22 1003 q -40 1024 -36 1018 q -47 1049 -47 1038 q -17 1113 -47 1079 q 43 1165 13 1146 m 367 271 q 640 344 493 299 q 769 390 719 369 q 864 444 819 411 q 773 528 824 493 q 629 619 722 564 l 525 682 l 357 786 q 408 513 408 640 q 382 328 408 419 l 367 271 m 35 463 q 0 486 0 468 q 26 522 0 501 q 86 556 53 543 q 140 567 119 569 q 303 554 224 554 q 496 571 397 554 q 533 575 525 575 q 578 543 576 575 q 544 499 579 518 q 478 474 508 479 q 233 446 365 446 q 35 463 132 446 z "},"Ď":{"ha":833,"x_min":-56,"x_max":1047,"o":"m 43 1165 q 82 1175 61 1175 q 136 1158 111 1175 q 154 1144 146 1151 q 169 1132 163 1138 q 192 1121 178 1126 q 215 1110 206 1115 q 338 1040 257 1088 l 461 969 q 649 864 568 908 l 738 817 q 872 744 817 776 q 974 672 926 713 q 1028 610 1008 640 q 1047 543 1047 579 l 1046 528 q 961 374 1032 447 q 834 274 907 315 q 667 194 761 232 q 297 85 506 133 q 265 78 275 79 l 208 64 l 128 49 q 36 35 90 42 q 16 30 31 33 q -10 26 1 26 q -26 29 -15 26 q -56 64 -56 35 q -42 109 -56 83 q -15 150 -29 135 q 107 217 26 199 q 127 226 124 221 q 132 249 131 231 q 135 324 132 274 q 149 525 146 456 q 156 625 154 592 q 158 644 157 632 q 160 672 160 656 q 154 706 160 690 q 61 881 125 776 q 63 877 61 879 q 67 869 65 875 q 7 963 49 901 q -6 981 1 969 q -18 999 -12 992 q -29 1010 -22 1003 q -40 1024 -36 1018 q -47 1049 -47 1038 q -17 1113 -47 1079 q 43 1165 13 1146 m 367 271 q 640 344 493 299 q 769 390 719 369 q 864 444 819 411 q 773 528 824 493 q 629 619 722 564 l 525 682 l 357 786 q 408 513 408 640 q 382 328 408 419 l 367 271 m 264 1235 q 254 1251 254 1240 q 274 1284 254 1267 q 311 1310 294 1301 q 396 1335 356 1335 q 436 1324 421 1335 q 497 1272 469 1301 q 636 1314 568 1315 q 683 1301 665 1314 q 700 1271 700 1289 q 671 1221 700 1244 q 624 1188 653 1206 q 581 1158 599 1172 q 550 1124 564 1144 q 501 1087 535 1103 q 435 1071 468 1071 q 371 1107 386 1071 q 264 1235 340 1183 z "},"Đ":{"ha":1007,"x_min":-56,"x_max":1047,"o":"m 43 1165 q 82 1175 61 1175 q 136 1158 111 1175 q 154 1144 146 1151 q 169 1132 163 1138 q 192 1121 178 1126 q 215 1110 206 1115 q 338 1040 257 1088 l 461 969 q 649 864 568 908 l 738 817 q 872 744 817 776 q 974 672 926 713 q 1028 610 1008 640 q 1047 543 1047 579 l 1046 528 q 961 374 1032 447 q 834 274 907 315 q 667 194 761 232 q 297 85 506 133 q 265 78 275 79 l 208 64 l 128 49 q 36 35 90 42 q 16 30 31 33 q -10 26 1 26 q -26 29 -15 26 q -56 64 -56 35 q -42 109 -56 83 q -15 150 -29 135 q 107 217 26 199 q 127 226 124 221 q 132 249 131 231 q 135 324 132 274 q 149 525 146 456 q 156 625 154 592 q 158 644 157 632 q 160 672 160 656 q 154 706 160 690 q 61 881 125 776 q 63 877 61 879 q 67 869 65 875 q 7 963 49 901 q -6 981 1 969 q -18 999 -12 992 q -29 1010 -22 1003 q -40 1024 -36 1018 q -47 1049 -47 1038 q -17 1113 -47 1079 q 43 1165 13 1146 m 367 271 q 640 344 493 299 q 769 390 719 369 q 864 444 819 411 q 773 528 824 493 q 629 619 722 564 l 525 682 l 357 786 q 408 513 408 640 q 382 328 408 419 l 367 271 m 35 463 q 0 486 0 468 q 26 522 0 501 q 86 556 53 543 q 140 567 119 569 q 303 554 224 554 q 496 571 397 554 q 533 575 525 575 q 578 543 576 575 q 544 499 579 518 q 478 474 508 479 q 233 446 365 446 q 35 463 132 446 z "},"E":{"ha":788,"x_min":-6,"x_max":815,"o":"m 732 267 q 785 211 785 260 q 777 172 785 193 q 757 132 769 150 q 697 79 731 93 q 608 63 663 65 q 451 58 499 58 q 263 51 315 54 q 72 24 154 47 q 26 15 39 15 q 3 25 11 15 q -6 60 -6 35 q 5 115 -6 86 q 38 192 15 143 q 68 261 57 229 q 81 300 71 271 q 96 353 92 329 q 97 369 97 360 q 94 390 97 378 q 90 413 92 401 q 97 456 89 435 q 119 506 104 478 q 147 575 143 554 q 175 756 172 694 l 176 799 q 168 860 176 840 q 143 893 161 876 q 121 921 126 910 q 114 954 114 933 q 126 1005 114 978 q 156 1054 138 1032 q 232 1096 188 1096 q 299 1076 265 1096 q 382 1019 333 1057 q 436 981 418 992 q 546 921 501 942 q 640 890 590 900 q 685 886 664 886 q 729 890 707 886 q 756 899 738 892 q 785 907 775 907 q 801 901 794 907 q 815 869 815 892 q 802 820 815 847 q 775 775 789 793 q 653 711 732 722 q 601 707 628 707 q 463 731 531 707 q 307 800 394 756 q 275 578 299 693 l 322 589 q 442 616 396 607 q 533 625 489 625 q 563 624 553 625 q 611 575 611 619 q 601 529 611 554 q 575 483 590 504 q 507 435 547 446 q 403 422 467 424 l 356 419 q 279 410 306 414 q 247 403 253 407 q 235 390 240 400 q 225 372 231 381 q 207 329 215 356 q 193 276 199 303 q 179 221 185 238 q 406 255 257 239 q 658 271 556 271 q 732 267 703 271 z "},"É":{"ha":833,"x_min":-6,"x_max":815,"o":"m 732 267 q 785 211 785 260 q 777 172 785 193 q 757 132 769 150 q 697 79 731 93 q 608 63 663 65 q 451 58 499 58 q 263 51 315 54 q 72 24 154 47 q 26 15 39 15 q 3 25 11 15 q -6 60 -6 35 q 5 115 -6 86 q 38 192 15 143 q 68 261 57 229 q 81 300 71 271 q 96 353 92 329 q 97 369 97 360 q 94 390 97 378 q 90 413 92 401 q 97 456 89 435 q 119 506 104 478 q 147 575 143 554 q 175 756 172 694 l 176 799 q 168 860 176 840 q 143 893 161 876 q 121 921 126 910 q 114 954 114 933 q 126 1005 114 978 q 156 1054 138 1032 q 232 1096 188 1096 q 299 1076 265 1096 q 382 1019 333 1057 q 436 981 418 992 q 546 921 501 942 q 640 890 590 900 q 685 886 664 886 q 729 890 707 886 q 756 899 738 892 q 785 907 775 907 q 801 901 794 907 q 815 869 815 892 q 802 820 815 847 q 775 775 789 793 q 653 711 732 722 q 601 707 628 707 q 463 731 531 707 q 307 800 394 756 q 275 578 299 693 l 322 589 q 442 616 396 607 q 533 625 489 625 q 563 624 553 625 q 611 575 611 619 q 601 529 611 554 q 575 483 590 504 q 507 435 547 446 q 403 422 467 424 l 356 419 q 279 410 306 414 q 247 403 253 407 q 235 390 240 400 q 225 372 231 381 q 207 329 215 356 q 193 276 199 303 q 179 221 185 238 q 406 255 257 239 q 658 271 556 271 q 732 267 703 271 m 432 1115 q 413 1139 413 1121 q 428 1171 413 1156 q 456 1199 433 1176 q 496 1243 479 1222 q 524 1283 513 1264 q 572 1331 539 1314 q 644 1350 606 1347 q 686 1340 664 1353 q 708 1310 708 1328 q 703 1290 708 1300 q 544 1133 629 1176 q 461 1111 500 1111 q 432 1115 444 1111 z "},"Ĕ":{"ha":833,"x_min":-6,"x_max":815,"o":"m 732 267 q 785 211 785 260 q 777 172 785 193 q 757 132 769 150 q 697 79 731 93 q 608 63 663 65 q 451 58 499 58 q 263 51 315 54 q 72 24 154 47 q 26 15 39 15 q 3 25 11 15 q -6 60 -6 35 q 5 115 -6 86 q 38 192 15 143 q 68 261 57 229 q 81 300 71 271 q 96 353 92 329 q 97 369 97 360 q 94 390 97 378 q 90 413 92 401 q 97 456 89 435 q 119 506 104 478 q 147 575 143 554 q 175 756 172 694 l 176 799 q 168 860 176 840 q 143 893 161 876 q 121 921 126 910 q 114 954 114 933 q 126 1005 114 978 q 156 1054 138 1032 q 232 1096 188 1096 q 299 1076 265 1096 q 382 1019 333 1057 q 436 981 418 992 q 546 921 501 942 q 640 890 590 900 q 685 886 664 886 q 729 890 707 886 q 756 899 738 892 q 785 907 775 907 q 801 901 794 907 q 815 869 815 892 q 802 820 815 847 q 775 775 789 793 q 653 711 732 722 q 601 707 628 707 q 463 731 531 707 q 307 800 394 756 q 275 578 299 693 l 322 589 q 442 616 396 607 q 533 625 489 625 q 563 624 553 625 q 611 575 611 619 q 601 529 611 554 q 575 483 590 504 q 507 435 547 446 q 403 422 467 424 l 356 419 q 279 410 306 414 q 247 403 253 407 q 235 390 240 400 q 225 372 231 381 q 207 329 215 356 q 193 276 199 303 q 179 221 185 238 q 406 255 257 239 q 658 271 556 271 q 732 267 703 271 m 507 1235 q 553 1294 508 1268 q 643 1321 597 1321 q 688 1310 671 1321 q 704 1275 704 1299 q 666 1178 704 1219 q 571 1113 628 1136 q 461 1086 514 1090 q 320 1121 379 1081 q 226 1238 261 1161 q 240 1278 218 1257 q 298 1315 261 1300 q 365 1329 335 1329 q 413 1307 403 1329 q 445 1250 428 1274 q 488 1213 463 1226 q 493 1211 489 1213 q 503 1208 497 1210 q 507 1235 508 1221 z "},"Ě":{"ha":833,"x_min":-6,"x_max":815,"o":"m 732 267 q 785 211 785 260 q 777 172 785 193 q 757 132 769 150 q 697 79 731 93 q 608 63 663 65 q 451 58 499 58 q 263 51 315 54 q 72 24 154 47 q 26 15 39 15 q 3 25 11 15 q -6 60 -6 35 q 5 115 -6 86 q 38 192 15 143 q 68 261 57 229 q 81 300 71 271 q 96 353 92 329 q 97 369 97 360 q 94 390 97 378 q 90 413 92 401 q 97 456 89 435 q 119 506 104 478 q 147 575 143 554 q 175 756 172 694 l 176 799 q 168 860 176 840 q 143 893 161 876 q 121 921 126 910 q 114 954 114 933 q 126 1005 114 978 q 156 1054 138 1032 q 232 1096 188 1096 q 299 1076 265 1096 q 382 1019 333 1057 q 436 981 418 992 q 546 921 501 942 q 640 890 590 900 q 685 886 664 886 q 729 890 707 886 q 756 899 738 892 q 785 907 775 907 q 801 901 794 907 q 815 869 815 892 q 802 820 815 847 q 775 775 789 793 q 653 711 732 722 q 601 707 628 707 q 463 731 531 707 q 307 800 394 756 q 275 578 299 693 l 322 589 q 442 616 396 607 q 533 625 489 625 q 563 624 553 625 q 611 575 611 619 q 601 529 611 554 q 575 483 590 504 q 507 435 547 446 q 403 422 467 424 l 356 419 q 279 410 306 414 q 247 403 253 407 q 235 390 240 400 q 225 372 231 381 q 207 329 215 356 q 193 276 199 303 q 179 221 185 238 q 406 255 257 239 q 658 271 556 271 q 732 267 703 271 m 308 1253 q 299 1269 299 1258 q 319 1302 299 1285 q 356 1328 339 1319 q 440 1353 400 1353 q 481 1342 465 1353 q 542 1290 514 1319 q 681 1332 613 1333 q 727 1319 710 1332 q 744 1289 744 1307 q 715 1239 744 1263 q 668 1206 697 1224 q 626 1176 643 1190 q 594 1142 608 1163 q 546 1105 579 1121 q 479 1089 513 1089 q 415 1125 431 1089 q 308 1253 385 1201 z "},"Ê":{"ha":788,"x_min":-6,"x_max":815,"o":"m 732 267 q 785 211 785 260 q 777 172 785 193 q 757 132 769 150 q 697 79 731 93 q 608 63 663 65 q 451 58 499 58 q 263 51 315 54 q 72 24 154 47 q 26 15 39 15 q 3 25 11 15 q -6 60 -6 35 q 5 115 -6 86 q 38 192 15 143 q 68 261 57 229 q 81 300 71 271 q 96 353 92 329 q 97 369 97 360 q 94 390 97 378 q 90 413 92 401 q 97 456 89 435 q 119 506 104 478 q 147 575 143 554 q 175 756 172 694 l 176 799 q 168 860 176 840 q 143 893 161 876 q 121 921 126 910 q 114 954 114 933 q 126 1005 114 978 q 156 1054 138 1032 q 232 1096 188 1096 q 299 1076 265 1096 q 382 1019 333 1057 q 436 981 418 992 q 546 921 501 942 q 640 890 590 900 q 685 886 664 886 q 729 890 707 886 q 756 899 738 892 q 785 907 775 907 q 801 901 794 907 q 815 869 815 892 q 802 820 815 847 q 775 775 789 793 q 653 711 732 722 q 601 707 628 707 q 463 731 531 707 q 307 800 394 756 q 275 578 299 693 l 322 589 q 442 616 396 607 q 533 625 489 625 q 563 624 553 625 q 611 575 611 619 q 601 529 611 554 q 575 483 590 504 q 507 435 547 446 q 403 422 467 424 l 356 419 q 279 410 306 414 q 247 403 253 407 q 235 390 240 400 q 225 372 231 381 q 207 329 215 356 q 193 276 199 303 q 179 221 185 238 q 406 255 257 239 q 658 271 556 271 q 732 267 703 271 m 497 1394 q 553 1337 521 1358 q 617 1299 585 1315 q 658 1279 649 1283 q 682 1247 682 1268 q 673 1220 682 1235 q 651 1196 664 1206 q 608 1172 633 1181 q 557 1163 582 1163 q 519 1168 535 1163 q 421 1214 465 1188 q 396 1236 414 1218 q 317 1175 356 1200 q 214 1139 260 1139 q 185 1144 196 1139 q 164 1171 164 1154 q 173 1194 164 1182 q 196 1215 182 1207 q 324 1344 286 1279 q 378 1392 338 1368 q 453 1415 418 1415 q 497 1394 483 1415 z "},"Ë":{"ha":788,"x_min":-6,"x_max":815,"o":"m 732 267 q 785 211 785 260 q 777 172 785 193 q 757 132 769 150 q 697 79 731 93 q 608 63 663 65 q 451 58 499 58 q 263 51 315 54 q 72 24 154 47 q 26 15 39 15 q 3 25 11 15 q -6 60 -6 35 q 5 115 -6 86 q 38 192 15 143 q 68 261 57 229 q 81 300 71 271 q 96 353 92 329 q 97 369 97 360 q 94 390 97 378 q 90 413 92 401 q 97 456 89 435 q 119 506 104 478 q 147 575 143 554 q 175 756 172 694 l 176 799 q 168 860 176 840 q 143 893 161 876 q 121 921 126 910 q 114 954 114 933 q 126 1005 114 978 q 156 1054 138 1032 q 232 1096 188 1096 q 299 1076 265 1096 q 382 1019 333 1057 q 436 981 418 992 q 546 921 501 942 q 640 890 590 900 q 685 886 664 886 q 729 890 707 886 q 756 899 738 892 q 785 907 775 907 q 801 901 794 907 q 815 869 815 892 q 802 820 815 847 q 775 775 789 793 q 653 711 732 722 q 601 707 628 707 q 463 731 531 707 q 307 800 394 756 q 275 578 299 693 l 322 589 q 442 616 396 607 q 533 625 489 625 q 563 624 553 625 q 611 575 611 619 q 601 529 611 554 q 575 483 590 504 q 507 435 547 446 q 403 422 467 424 l 356 419 q 279 410 306 414 q 247 403 253 407 q 235 390 240 400 q 225 372 231 381 q 207 329 215 356 q 193 276 199 303 q 179 221 185 238 q 406 255 257 239 q 658 271 556 271 q 732 267 703 271 m 239 1192 q 238 1200 238 1194 q 256 1233 238 1211 q 319 1271 275 1254 q 392 1283 361 1288 q 432 1263 424 1281 l 453 1219 q 468 1242 457 1231 q 531 1279 486 1260 q 603 1292 567 1294 q 642 1271 639 1288 l 656 1222 l 657 1214 q 640 1178 657 1200 q 576 1139 619 1156 q 503 1128 538 1124 q 477 1135 490 1129 q 463 1151 464 1142 l 451 1196 q 445 1184 450 1190 q 438 1174 440 1178 q 375 1135 415 1150 q 313 1122 340 1122 q 260 1149 274 1122 l 239 1192 z "},"Ė":{"ha":833,"x_min":-6,"x_max":815,"o":"m 732 267 q 785 211 785 260 q 777 172 785 193 q 757 132 769 150 q 697 79 731 93 q 608 63 663 65 q 451 58 499 58 q 263 51 315 54 q 72 24 154 47 q 26 15 39 15 q 3 25 11 15 q -6 60 -6 35 q 5 115 -6 86 q 38 192 15 143 q 68 261 57 229 q 81 300 71 271 q 96 353 92 329 q 97 369 97 360 q 94 390 97 378 q 90 413 92 401 q 97 456 89 435 q 119 506 104 478 q 147 575 143 554 q 175 756 172 694 l 176 799 q 168 860 176 840 q 143 893 161 876 q 121 921 126 910 q 114 954 114 933 q 126 1005 114 978 q 156 1054 138 1032 q 232 1096 188 1096 q 299 1076 265 1096 q 382 1019 333 1057 q 436 981 418 992 q 546 921 501 942 q 640 890 590 900 q 685 886 664 886 q 729 890 707 886 q 756 899 738 892 q 785 907 775 907 q 801 901 794 907 q 815 869 815 892 q 802 820 815 847 q 775 775 789 793 q 653 711 732 722 q 601 707 628 707 q 463 731 531 707 q 307 800 394 756 q 275 578 299 693 l 322 589 q 442 616 396 607 q 533 625 489 625 q 563 624 553 625 q 611 575 611 619 q 601 529 611 554 q 575 483 590 504 q 507 435 547 446 q 403 422 467 424 l 356 419 q 279 410 306 414 q 247 403 253 407 q 235 390 240 400 q 225 372 231 381 q 207 329 215 356 q 193 276 199 303 q 179 221 185 238 q 406 255 257 239 q 658 271 556 271 q 732 267 703 271 m 425 1108 q 376 1129 390 1111 q 364 1175 360 1150 q 375 1201 367 1189 q 393 1225 383 1214 q 417 1245 403 1238 q 454 1261 432 1253 q 456 1263 456 1261 q 532 1282 500 1282 q 578 1268 558 1282 q 597 1235 593 1256 l 599 1221 q 593 1192 599 1204 q 533 1133 579 1158 q 440 1107 488 1107 l 425 1108 z "},"È":{"ha":833,"x_min":-6,"x_max":815,"o":"m 732 267 q 785 211 785 260 q 777 172 785 193 q 757 132 769 150 q 697 79 731 93 q 608 63 663 65 q 451 58 499 58 q 263 51 315 54 q 72 24 154 47 q 26 15 39 15 q 3 25 11 15 q -6 60 -6 35 q 5 115 -6 86 q 38 192 15 143 q 68 261 57 229 q 81 300 71 271 q 96 353 92 329 q 97 369 97 360 q 94 390 97 378 q 90 413 92 401 q 97 456 89 435 q 119 506 104 478 q 147 575 143 554 q 175 756 172 694 l 176 799 q 168 860 176 840 q 143 893 161 876 q 121 921 126 910 q 114 954 114 933 q 126 1005 114 978 q 156 1054 138 1032 q 232 1096 188 1096 q 299 1076 265 1096 q 382 1019 333 1057 q 436 981 418 992 q 546 921 501 942 q 640 890 590 900 q 685 886 664 886 q 729 890 707 886 q 756 899 738 892 q 785 907 775 907 q 801 901 794 907 q 815 869 815 892 q 802 820 815 847 q 775 775 789 793 q 653 711 732 722 q 601 707 628 707 q 463 731 531 707 q 307 800 394 756 q 275 578 299 693 l 322 589 q 442 616 396 607 q 533 625 489 625 q 563 624 553 625 q 611 575 611 619 q 601 529 611 554 q 575 483 590 504 q 507 435 547 446 q 403 422 467 424 l 356 419 q 279 410 306 414 q 247 403 253 407 q 235 390 240 400 q 225 372 231 381 q 207 329 215 356 q 193 276 199 303 q 179 221 185 238 q 406 255 257 239 q 658 271 556 271 q 732 267 703 271 m 254 1250 q 246 1269 246 1258 q 297 1324 246 1297 q 393 1350 349 1350 q 429 1340 418 1350 l 432 1338 l 438 1332 l 499 1265 q 532 1234 507 1257 q 565 1190 557 1211 q 568 1176 568 1182 q 513 1111 568 1144 q 428 1089 475 1089 q 390 1094 406 1089 q 390 1096 390 1096 q 389 1096 389 1096 q 364 1124 368 1103 q 341 1153 358 1135 q 317 1181 324 1172 l 254 1250 z "},"Ē":{"ha":788,"x_min":-6,"x_max":815,"o":"m 732 267 q 785 211 785 260 q 777 172 785 193 q 757 132 769 150 q 697 79 731 93 q 608 63 663 65 q 451 58 499 58 q 263 51 315 54 q 72 24 154 47 q 26 15 39 15 q 3 25 11 15 q -6 60 -6 35 q 5 115 -6 86 q 38 192 15 143 q 68 261 57 229 q 81 300 71 271 q 96 353 92 329 q 97 369 97 360 q 94 390 97 378 q 90 413 92 401 q 97 456 89 435 q 119 506 104 478 q 147 575 143 554 q 175 756 172 694 l 176 799 q 168 860 176 840 q 143 893 161 876 q 121 921 126 910 q 114 954 114 933 q 126 1005 114 978 q 156 1054 138 1032 q 232 1096 188 1096 q 299 1076 265 1096 q 382 1019 333 1057 q 436 981 418 992 q 546 921 501 942 q 640 890 590 900 q 685 886 664 886 q 729 890 707 886 q 756 899 738 892 q 785 907 775 907 q 801 901 794 907 q 815 869 815 892 q 802 820 815 847 q 775 775 789 793 q 653 711 732 722 q 601 707 628 707 q 463 731 531 707 q 307 800 394 756 q 275 578 299 693 l 322 589 q 442 616 396 607 q 533 625 489 625 q 563 624 553 625 q 611 575 611 619 q 601 529 611 554 q 575 483 590 504 q 507 435 547 446 q 403 422 467 424 l 356 419 q 279 410 306 414 q 247 403 253 407 q 235 390 240 400 q 225 372 231 381 q 207 329 215 356 q 193 276 199 303 q 179 221 185 238 q 406 255 257 239 q 658 271 556 271 q 732 267 703 271 m 189 1146 q 161 1155 171 1147 q 151 1175 151 1163 q 167 1207 151 1189 q 224 1244 188 1232 q 296 1256 260 1256 q 460 1253 401 1253 q 574 1257 518 1253 q 639 1272 608 1272 q 672 1265 658 1272 q 690 1243 686 1257 l 693 1232 q 694 1219 694 1228 q 674 1175 694 1196 q 624 1143 653 1154 q 572 1135 594 1132 q 328 1143 490 1140 q 189 1146 281 1143 z "},"Ḗ":{"ha":833,"x_min":-6,"x_max":815,"o":"m 732 267 q 785 211 785 260 q 777 172 785 193 q 757 132 769 150 q 697 79 731 93 q 608 63 663 65 q 451 58 499 58 q 263 51 315 54 q 72 24 154 47 q 26 15 39 15 q 3 25 11 15 q -6 60 -6 35 q 5 115 -6 86 q 38 192 15 143 q 68 261 57 229 q 81 300 71 271 q 96 353 92 329 q 97 369 97 360 q 94 390 97 378 q 90 413 92 401 q 97 456 89 435 q 119 506 104 478 q 147 575 143 554 q 175 756 172 694 l 176 799 q 168 860 176 840 q 143 893 161 876 q 121 921 126 910 q 114 954 114 933 q 126 1005 114 978 q 156 1054 138 1032 q 232 1096 188 1096 q 299 1076 265 1096 q 382 1019 333 1057 q 436 981 418 992 q 546 921 501 942 q 640 890 590 900 q 685 886 664 886 q 729 890 707 886 q 756 899 738 892 q 785 907 775 907 q 801 901 794 907 q 815 869 815 892 q 802 820 815 847 q 775 775 789 793 q 653 711 732 722 q 601 707 628 707 q 463 731 531 707 q 307 800 394 756 q 275 578 299 693 l 322 589 q 442 616 396 607 q 533 625 489 625 q 563 624 553 625 q 611 575 611 619 q 601 529 611 554 q 575 483 590 504 q 507 435 547 446 q 403 422 467 424 l 356 419 q 279 410 306 414 q 247 403 253 407 q 235 390 240 400 q 225 372 231 381 q 207 329 215 356 q 193 276 199 303 q 179 221 185 238 q 406 255 257 239 q 658 271 556 271 q 732 267 703 271 m 189 1193 q 161 1202 171 1194 q 151 1222 151 1210 q 167 1254 151 1236 q 224 1291 188 1279 q 296 1303 260 1303 q 460 1300 401 1300 q 574 1304 518 1300 q 639 1319 608 1319 q 672 1312 658 1319 q 690 1290 686 1304 l 693 1279 q 694 1267 694 1275 q 674 1222 694 1243 q 624 1190 653 1201 q 572 1182 594 1179 q 328 1190 490 1188 q 189 1193 281 1190 m 271 1394 q 251 1418 251 1400 q 267 1450 251 1435 q 295 1478 272 1456 q 335 1522 318 1501 q 363 1563 351 1543 q 411 1610 378 1593 q 483 1629 444 1626 q 525 1619 503 1632 q 547 1589 547 1607 q 542 1569 547 1579 q 383 1413 468 1456 q 300 1390 339 1390 q 271 1394 283 1390 z "},"Ḕ":{"ha":833,"x_min":-6,"x_max":815,"o":"m 732 267 q 785 211 785 260 q 777 172 785 193 q 757 132 769 150 q 697 79 731 93 q 608 63 663 65 q 451 58 499 58 q 263 51 315 54 q 72 24 154 47 q 26 15 39 15 q 3 25 11 15 q -6 60 -6 35 q 5 115 -6 86 q 38 192 15 143 q 68 261 57 229 q 81 300 71 271 q 96 353 92 329 q 97 369 97 360 q 94 390 97 378 q 90 413 92 401 q 97 456 89 435 q 119 506 104 478 q 147 575 143 554 q 175 756 172 694 l 176 799 q 168 860 176 840 q 143 893 161 876 q 121 921 126 910 q 114 954 114 933 q 126 1005 114 978 q 156 1054 138 1032 q 232 1096 188 1096 q 299 1076 265 1096 q 382 1019 333 1057 q 436 981 418 992 q 546 921 501 942 q 640 890 590 900 q 685 886 664 886 q 729 890 707 886 q 756 899 738 892 q 785 907 775 907 q 801 901 794 907 q 815 869 815 892 q 802 820 815 847 q 775 775 789 793 q 653 711 732 722 q 601 707 628 707 q 463 731 531 707 q 307 800 394 756 q 275 578 299 693 l 322 589 q 442 616 396 607 q 533 625 489 625 q 563 624 553 625 q 611 575 611 619 q 601 529 611 554 q 575 483 590 504 q 507 435 547 446 q 403 422 467 424 l 356 419 q 279 410 306 414 q 247 403 253 407 q 235 390 240 400 q 225 372 231 381 q 207 329 215 356 q 193 276 199 303 q 179 221 185 238 q 406 255 257 239 q 658 271 556 271 q 732 267 703 271 m 189 1194 q 161 1203 171 1196 q 151 1224 151 1211 q 167 1256 151 1238 q 224 1292 188 1281 q 296 1304 260 1304 q 460 1301 401 1301 q 574 1306 518 1301 q 639 1321 608 1321 q 672 1313 658 1321 q 690 1292 686 1306 l 693 1281 q 694 1268 694 1276 q 674 1224 694 1244 q 624 1192 653 1203 q 572 1183 594 1181 q 328 1192 490 1189 q 189 1194 281 1192 m 254 1593 q 246 1613 246 1601 q 297 1667 246 1640 q 393 1693 349 1693 q 429 1683 418 1693 l 432 1681 l 438 1675 l 499 1608 q 532 1577 507 1600 q 565 1533 557 1554 q 568 1519 568 1525 q 513 1454 568 1488 q 428 1432 475 1432 q 390 1438 406 1432 q 390 1439 390 1439 q 389 1439 389 1439 q 364 1467 368 1446 q 341 1497 358 1478 q 317 1524 324 1515 l 254 1593 z "},"Ę":{"ha":833,"x_min":-6,"x_max":815,"o":"m 732 267 q 785 211 785 260 q 777 172 785 193 q 757 132 769 150 q 697 79 731 93 q 608 63 663 65 q 451 58 499 58 q 263 51 315 54 q 72 24 154 47 q 26 15 39 15 q 3 25 11 15 q -6 60 -6 35 q 5 115 -6 86 q 38 192 15 143 q 68 261 57 229 q 81 300 71 271 q 96 353 92 329 q 97 369 97 360 q 94 390 97 378 q 90 413 92 401 q 97 456 89 435 q 119 506 104 478 q 147 575 143 554 q 175 756 172 694 l 176 799 q 168 860 176 840 q 143 893 161 876 q 121 921 126 910 q 114 954 114 933 q 126 1005 114 978 q 156 1054 138 1032 q 232 1096 188 1096 q 299 1076 265 1096 q 382 1019 333 1057 q 436 981 418 992 q 546 921 501 942 q 640 890 590 900 q 685 886 664 886 q 729 890 707 886 q 756 899 738 892 q 785 907 775 907 q 801 901 794 907 q 815 869 815 892 q 802 820 815 847 q 775 775 789 793 q 653 711 732 722 q 601 707 628 707 q 463 731 531 707 q 307 800 394 756 q 275 578 299 693 l 322 589 q 442 616 396 607 q 533 625 489 625 q 563 624 553 625 q 611 575 611 619 q 601 529 611 554 q 575 483 590 504 q 507 435 547 446 q 403 422 467 424 l 356 419 q 279 410 306 414 q 247 403 253 407 q 235 390 240 400 q 225 372 231 381 q 207 329 215 356 q 193 276 199 303 q 179 221 185 238 q 406 255 257 239 q 658 271 556 271 q 732 267 703 271 m 454 54 q 428 25 438 39 q 422 -7 419 11 q 444 -37 424 -25 q 458 -39 454 -37 q 485 -49 472 -42 q 500 -68 499 -57 l 500 -69 q 501 -83 501 -75 q 483 -127 501 -110 q 431 -161 464 -144 q 383 -172 410 -172 q 307 -147 346 -172 q 264 -116 281 -132 q 240 -79 247 -100 q 236 -53 236 -65 q 304 64 236 4 q 365 101 329 88 q 433 113 400 114 q 460 103 450 111 q 469 83 469 94 q 454 54 469 69 z "},"F":{"ha":718,"x_min":-3,"x_max":771,"o":"m 714 1228 q 771 1186 771 1232 q 756 1133 771 1163 q 724 1081 742 1103 q 690 1051 706 1058 q 654 1043 674 1043 l 615 1044 q 585 1042 596 1044 q 440 1006 517 1028 q 410 999 439 1006 q 383 992 404 997 q 345 982 361 988 q 322 968 329 976 q 308 925 308 954 q 320 859 308 897 q 333 814 332 821 q 350 753 349 771 q 482 792 406 772 q 617 813 558 813 q 699 764 699 813 q 681 707 699 742 q 635 657 661 674 q 581 635 608 640 q 506 626 553 631 q 481 625 497 626 q 454 622 465 624 q 424 619 447 621 q 383 610 400 617 q 358 598 363 601 q 353 585 353 594 q 351 560 353 576 q 338 443 349 521 l 333 414 q 304 250 319 319 q 261 117 289 181 q 206 29 242 75 q 136 -17 171 -17 q 118 -12 126 -17 q 93 64 93 0 q 107 192 93 106 l 111 224 l 133 431 q 144 522 142 492 l 121 508 q 29 467 57 467 q 11 472 18 467 q -3 501 -3 485 q 28 565 -3 531 q 88 621 58 600 q 115 638 100 631 q 153 669 142 654 q 165 715 165 683 q 156 768 165 739 q 135 806 149 788 q 118 829 121 825 q 89 874 99 857 q 79 913 79 892 q 88 950 79 929 q 153 1025 107 994 q 274 1088 200 1056 l 311 1104 q 522 1190 424 1157 q 714 1228 619 1222 z "},"G":{"ha":825,"x_min":25,"x_max":792,"o":"m 768 174 q 775 115 769 154 q 783 46 783 68 q 764 -29 783 3 q 718 -85 747 -58 q 661 -112 689 -112 q 599 33 599 -112 l 600 97 q 628 350 604 221 q 590 342 597 349 q 579 313 583 335 q 574 279 579 297 q 524 172 560 224 q 446 95 492 126 q 346 53 400 64 q 281 46 308 46 q 107 108 179 46 q 26 274 35 169 q 25 308 25 285 q 56 501 25 400 q 138 713 86 601 q 385 1060 243 942 q 479 1118 428 1096 q 578 1140 531 1140 q 653 1121 619 1140 q 708 1060 688 1101 q 736 939 736 1006 q 711 805 736 874 q 644 675 686 736 q 591 613 625 646 q 529 581 557 581 q 503 594 513 581 q 493 622 493 606 q 539 711 493 656 l 558 739 q 576 806 576 769 q 545 894 576 856 q 469 933 514 933 q 406 910 438 933 q 286 748 335 858 q 217 528 238 638 q 210 464 210 490 q 261 322 210 375 q 410 271 313 268 q 390 313 400 301 q 356 328 381 324 q 330 325 347 329 q 304 321 313 321 q 258 361 258 325 q 265 399 258 375 q 310 470 281 446 q 376 503 340 494 q 467 517 411 511 l 508 522 q 556 532 518 524 q 610 543 564 533 q 697 553 657 553 q 789 501 778 553 q 792 478 792 485 q 782 411 792 450 q 775 365 776 376 q 767 226 767 297 q 768 174 767 190 z "},"Ğ":{"ha":833,"x_min":25,"x_max":792,"o":"m 768 174 q 775 115 769 154 q 783 46 783 68 q 764 -29 783 3 q 718 -85 747 -58 q 661 -112 689 -112 q 599 33 599 -112 l 600 97 q 628 350 604 221 q 590 342 597 349 q 579 313 583 335 q 574 279 579 297 q 524 172 560 224 q 446 95 492 126 q 346 53 400 64 q 281 46 308 46 q 107 108 179 46 q 26 274 35 169 q 25 308 25 285 q 56 501 25 400 q 138 713 86 601 q 385 1060 243 942 q 479 1118 428 1096 q 578 1140 531 1140 q 653 1121 619 1140 q 708 1060 688 1101 q 736 939 736 1006 q 711 805 736 874 q 644 675 686 736 q 591 613 625 646 q 529 581 557 581 q 503 594 513 581 q 493 622 493 606 q 539 711 493 656 l 558 739 q 576 806 576 769 q 545 894 576 856 q 469 933 514 933 q 406 910 438 933 q 286 748 335 858 q 217 528 238 638 q 210 464 210 490 q 261 322 210 375 q 410 271 313 268 q 390 313 400 301 q 356 328 381 324 q 330 325 347 329 q 304 321 313 321 q 258 361 258 325 q 265 399 258 375 q 310 470 281 446 q 376 503 340 494 q 467 517 411 511 l 508 522 q 556 532 518 524 q 610 543 564 533 q 697 553 657 553 q 789 501 778 553 q 792 478 792 485 q 782 411 792 450 q 775 365 776 376 q 767 226 767 297 q 768 174 767 190 m 526 1331 q 572 1390 528 1364 q 663 1417 617 1417 q 707 1406 690 1417 q 724 1371 724 1394 q 685 1274 724 1315 q 590 1209 647 1232 q 481 1182 533 1186 q 340 1217 399 1176 q 246 1333 281 1257 q 259 1374 238 1353 q 317 1410 281 1396 q 385 1425 354 1425 q 432 1403 422 1425 q 465 1346 447 1369 q 507 1308 482 1322 q 513 1307 508 1308 q 522 1304 517 1306 q 526 1331 528 1317 z "},"Ǧ":{"ha":833,"x_min":25,"x_max":792,"o":"m 768 174 q 775 115 769 154 q 783 46 783 68 q 764 -29 783 3 q 718 -85 747 -58 q 661 -112 689 -112 q 599 33 599 -112 l 600 97 q 628 350 604 221 q 590 342 597 349 q 579 313 583 335 q 574 279 579 297 q 524 172 560 224 q 446 95 492 126 q 346 53 400 64 q 281 46 308 46 q 107 108 179 46 q 26 274 35 169 q 25 308 25 285 q 56 501 25 400 q 138 713 86 601 q 385 1060 243 942 q 479 1118 428 1096 q 578 1140 531 1140 q 653 1121 619 1140 q 708 1060 688 1101 q 736 939 736 1006 q 711 805 736 874 q 644 675 686 736 q 591 613 625 646 q 529 581 557 581 q 503 594 513 581 q 493 622 493 606 q 539 711 493 656 l 558 739 q 576 806 576 769 q 545 894 576 856 q 469 933 514 933 q 406 910 438 933 q 286 748 335 858 q 217 528 238 638 q 210 464 210 490 q 261 322 210 375 q 410 271 313 268 q 390 313 400 301 q 356 328 381 324 q 330 325 347 329 q 304 321 313 321 q 258 361 258 325 q 265 399 258 375 q 310 470 281 446 q 376 503 340 494 q 467 517 411 511 l 508 522 q 556 532 518 524 q 610 543 564 533 q 697 553 657 553 q 789 501 778 553 q 792 478 792 485 q 782 411 792 450 q 775 365 776 376 q 767 226 767 297 q 768 174 767 190 m 283 1318 q 274 1335 274 1324 q 294 1367 274 1350 q 331 1393 314 1385 q 415 1418 375 1418 q 456 1407 440 1418 q 517 1356 489 1385 q 656 1397 588 1399 q 702 1385 685 1397 q 719 1354 719 1372 q 690 1304 719 1328 q 643 1271 672 1289 q 601 1242 618 1256 q 569 1207 583 1228 q 521 1170 554 1186 q 454 1154 488 1154 q 390 1190 406 1154 q 283 1318 360 1267 z "},"Ĝ":{"ha":833,"x_min":25,"x_max":792,"o":"m 768 174 q 775 115 769 154 q 783 46 783 68 q 764 -29 783 3 q 718 -85 747 -58 q 661 -112 689 -112 q 599 33 599 -112 l 600 97 q 628 350 604 221 q 590 342 597 349 q 579 313 583 335 q 574 279 579 297 q 524 172 560 224 q 446 95 492 126 q 346 53 400 64 q 281 46 308 46 q 107 108 179 46 q 26 274 35 169 q 25 308 25 285 q 56 501 25 400 q 138 713 86 601 q 385 1060 243 942 q 479 1118 428 1096 q 578 1140 531 1140 q 653 1121 619 1140 q 708 1060 688 1101 q 736 939 736 1006 q 711 805 736 874 q 644 675 686 736 q 591 613 625 646 q 529 581 557 581 q 503 594 513 581 q 493 622 493 606 q 539 711 493 656 l 558 739 q 576 806 576 769 q 545 894 576 856 q 469 933 514 933 q 406 910 438 933 q 286 748 335 858 q 217 528 238 638 q 210 464 210 490 q 261 322 210 375 q 410 271 313 268 q 390 313 400 301 q 356 328 381 324 q 330 325 347 329 q 304 321 313 321 q 258 361 258 325 q 265 399 258 375 q 310 470 281 446 q 376 503 340 494 q 467 517 411 511 l 508 522 q 556 532 518 524 q 610 543 564 533 q 697 553 657 553 q 789 501 778 553 q 792 478 792 485 q 782 411 792 450 q 775 365 776 376 q 767 226 767 297 q 768 174 767 190 m 593 1407 q 649 1349 617 1371 q 713 1312 681 1328 q 754 1292 744 1296 q 778 1260 778 1281 q 769 1233 778 1247 q 747 1208 760 1218 q 703 1184 729 1193 q 653 1175 678 1175 q 615 1181 631 1175 q 517 1226 561 1200 q 492 1249 510 1231 q 413 1188 451 1213 q 310 1151 356 1151 q 281 1157 292 1151 q 260 1183 260 1167 q 269 1207 260 1194 q 292 1228 278 1219 q 419 1357 382 1292 q 474 1404 433 1381 q 549 1428 514 1428 q 593 1407 579 1428 z "},"Ģ":{"ha":825,"x_min":25,"x_max":792,"o":"m 768 174 q 775 115 769 154 q 783 46 783 68 q 764 -29 783 3 q 718 -85 747 -58 q 661 -112 689 -112 q 599 33 599 -112 l 600 97 q 628 350 604 221 q 590 342 597 349 q 579 313 583 335 q 574 279 579 297 q 524 172 560 224 q 446 95 492 126 q 346 53 400 64 q 281 46 308 46 q 107 108 179 46 q 26 274 35 169 q 25 308 25 285 q 56 501 25 400 q 138 713 86 601 q 385 1060 243 942 q 479 1118 428 1096 q 578 1140 531 1140 q 653 1121 619 1140 q 708 1060 688 1101 q 736 939 736 1006 q 711 805 736 874 q 644 675 686 736 q 591 613 625 646 q 529 581 557 581 q 503 594 513 581 q 493 622 493 606 q 539 711 493 656 l 558 739 q 576 806 576 769 q 545 894 576 856 q 469 933 514 933 q 406 910 438 933 q 286 748 335 858 q 217 528 238 638 q 210 464 210 490 q 261 322 210 375 q 410 271 313 268 q 390 313 400 301 q 356 328 381 324 q 330 325 347 329 q 304 321 313 321 q 258 361 258 325 q 265 399 258 375 q 310 470 281 446 q 376 503 340 494 q 467 517 411 511 l 508 522 q 556 532 518 524 q 610 543 564 533 q 697 553 657 553 q 789 501 778 553 q 792 478 792 485 q 782 411 792 450 q 775 365 776 376 q 767 226 767 297 q 768 174 767 190 m 418 -136 q 453 -133 432 -133 q 500 -165 507 -133 q 389 -386 472 -294 q 331 -423 368 -410 q 261 -433 293 -436 q 224 -404 224 -429 q 238 -372 224 -390 q 318 -207 297 -301 q 353 -162 324 -181 q 418 -136 383 -144 z "},"Ġ":{"ha":833,"x_min":25,"x_max":792,"o":"m 768 174 q 775 115 769 154 q 783 46 783 68 q 764 -29 783 3 q 718 -85 747 -58 q 661 -112 689 -112 q 599 33 599 -112 l 600 97 q 628 350 604 221 q 590 342 597 349 q 579 313 583 335 q 574 279 579 297 q 524 172 560 224 q 446 95 492 126 q 346 53 400 64 q 281 46 308 46 q 107 108 179 46 q 26 274 35 169 q 25 308 25 285 q 56 501 25 400 q 138 713 86 601 q 385 1060 243 942 q 479 1118 428 1096 q 578 1140 531 1140 q 653 1121 619 1140 q 708 1060 688 1101 q 736 939 736 1006 q 711 805 736 874 q 644 675 686 736 q 591 613 625 646 q 529 581 557 581 q 503 594 513 581 q 493 622 493 606 q 539 711 493 656 l 558 739 q 576 806 576 769 q 545 894 576 856 q 469 933 514 933 q 406 910 438 933 q 286 748 335 858 q 217 528 238 638 q 210 464 210 490 q 261 322 210 375 q 410 271 313 268 q 390 313 400 301 q 356 328 381 324 q 330 325 347 329 q 304 321 313 321 q 258 361 258 325 q 265 399 258 375 q 310 470 281 446 q 376 503 340 494 q 467 517 411 511 l 508 522 q 556 532 518 524 q 610 543 564 533 q 697 553 657 553 q 789 501 778 553 q 792 478 792 485 q 782 411 792 450 q 775 365 776 376 q 767 226 767 297 q 768 174 767 190 m 453 1188 q 404 1208 418 1190 q 392 1254 388 1229 q 403 1281 394 1268 q 421 1304 411 1293 q 445 1324 431 1317 q 482 1340 460 1332 q 483 1342 483 1340 q 560 1361 528 1361 q 606 1347 586 1361 q 625 1314 621 1335 l 626 1300 q 621 1271 626 1283 q 561 1213 607 1238 q 468 1186 515 1186 l 453 1188 m 471 -4 q 506 -1 485 -1 q 553 -33 560 -1 q 442 -254 525 -162 q 383 -291 421 -278 q 314 -301 346 -304 q 276 -272 276 -297 q 290 -240 276 -258 q 371 -75 350 -169 q 406 -31 376 -49 q 471 -4 436 -12 z "},"Ḡ":{"ha":833,"x_min":25,"x_max":792,"o":"m 768 174 q 775 115 769 154 q 783 46 783 68 q 764 -29 783 3 q 718 -85 747 -58 q 661 -112 689 -112 q 599 33 599 -112 l 600 97 q 628 350 604 221 q 590 342 597 349 q 579 313 583 335 q 574 279 579 297 q 524 172 560 224 q 446 95 492 126 q 346 53 400 64 q 281 46 308 46 q 107 108 179 46 q 26 274 35 169 q 25 308 25 285 q 56 501 25 400 q 138 713 86 601 q 385 1060 243 942 q 479 1118 428 1096 q 578 1140 531 1140 q 653 1121 619 1140 q 708 1060 688 1101 q 736 939 736 1006 q 711 805 736 874 q 644 675 686 736 q 591 613 625 646 q 529 581 557 581 q 503 594 513 581 q 493 622 493 606 q 539 711 493 656 l 558 739 q 576 806 576 769 q 545 894 576 856 q 469 933 514 933 q 406 910 438 933 q 286 748 335 858 q 217 528 238 638 q 210 464 210 490 q 261 322 210 375 q 410 271 313 268 q 390 313 400 301 q 356 328 381 324 q 330 325 347 329 q 304 321 313 321 q 258 361 258 325 q 265 399 258 375 q 310 470 281 446 q 376 503 340 494 q 467 517 411 511 l 508 522 q 556 532 518 524 q 610 543 564 533 q 697 553 657 553 q 789 501 778 553 q 792 478 792 485 q 782 411 792 450 q 775 365 776 376 q 767 226 767 297 q 768 174 767 190 m 279 1290 q 251 1299 261 1292 q 242 1319 242 1307 q 257 1351 242 1333 q 314 1388 278 1376 q 386 1400 350 1400 q 550 1397 492 1397 q 664 1401 608 1397 q 729 1417 699 1417 q 763 1409 749 1417 q 781 1388 776 1401 l 783 1376 q 785 1364 785 1372 q 764 1319 785 1340 q 714 1288 743 1299 q 663 1279 685 1276 q 418 1288 581 1285 q 279 1290 371 1288 z "},"H":{"ha":697,"x_min":18,"x_max":721,"o":"m 674 686 q 707 671 694 686 q 721 628 721 656 q 715 592 721 614 q 689 530 708 558 q 643 485 669 501 q 610 472 626 475 q 568 465 593 468 l 558 464 l 554 464 l 558 358 q 574 361 569 361 q 589 358 581 361 q 622 333 613 354 q 631 296 631 318 q 628 264 631 283 q 626 253 626 260 q 608 163 621 203 q 568 88 594 122 q 451 13 507 13 q 436 14 442 13 q 392 47 404 21 q 376 107 381 74 q 365 299 365 192 l 367 408 l 367 419 l 368 442 l 314 432 q 239 411 272 422 l 228 406 q 207 238 211 296 q 204 171 204 215 q 206 151 206 165 q 204 132 206 139 q 190 83 204 106 q 151 49 175 60 q 113 40 133 40 q 49 65 75 40 q 18 143 18 94 l 19 164 q 35 308 24 236 q 68 479 47 379 q 92 613 85 568 q 119 828 111 731 q 126 940 125 889 l 126 946 q 133 994 128 975 q 154 1031 138 1014 l 154 1031 q 213 1054 178 1054 q 272 1031 249 1054 q 296 964 296 1007 q 294 932 296 942 l 293 925 l 285 822 q 271 676 281 740 q 260 604 268 649 q 325 624 279 611 l 333 626 q 369 636 354 631 q 368 783 369 735 l 368 786 q 371 971 368 910 q 442 1113 375 1065 l 442 1113 q 490 1129 465 1129 q 528 1114 513 1129 q 544 1060 544 1093 q 542 1024 544 1046 q 540 1008 540 1018 q 539 960 539 993 q 542 882 539 935 l 543 843 l 544 786 l 549 669 l 656 683 l 665 685 l 674 686 z "},"Ħ":{"ha":746,"x_min":-1,"x_max":742,"o":"m 674 686 q 707 671 694 686 q 721 628 721 656 q 715 592 721 614 q 689 530 708 558 q 643 485 669 501 q 610 472 626 475 q 568 465 593 468 l 558 464 l 554 464 l 558 358 q 574 361 569 361 q 589 358 581 361 q 622 333 613 354 q 631 296 631 318 q 628 264 631 283 q 626 253 626 260 q 608 163 621 203 q 568 88 594 122 q 451 13 507 13 q 436 14 442 13 q 392 47 404 21 q 376 107 381 74 q 365 299 365 192 l 367 408 l 367 419 l 368 442 l 314 432 q 239 411 272 422 l 228 406 q 207 238 211 296 q 204 171 204 215 q 206 151 206 165 q 204 132 206 139 q 190 83 204 106 q 151 49 175 60 q 113 40 133 40 q 49 65 75 40 q 18 143 18 94 l 19 164 q 35 308 24 236 q 68 479 47 379 q 92 613 85 568 q 119 828 111 731 q 126 940 125 889 l 126 946 q 133 994 128 975 q 154 1031 138 1014 l 154 1031 q 213 1054 178 1054 q 272 1031 249 1054 q 296 964 296 1007 q 294 932 296 942 l 293 925 l 285 822 q 271 676 281 740 q 260 604 268 649 q 325 624 279 611 l 333 626 q 369 636 354 631 q 368 783 369 735 l 368 786 q 371 971 368 910 q 442 1113 375 1065 l 442 1113 q 490 1129 465 1129 q 528 1114 513 1129 q 544 1060 544 1093 q 542 1024 544 1046 q 540 1008 540 1018 q 539 960 539 993 q 542 882 539 935 l 543 843 l 544 786 l 549 669 l 656 683 l 665 685 l 674 686 m 90 763 q 49 757 68 757 q 0 792 1 757 q 38 840 -1 819 q 113 869 76 861 q 219 888 165 883 q 342 892 274 892 q 429 890 400 892 l 515 889 q 675 899 601 889 q 692 900 681 900 q 728 889 715 900 q 738 856 742 878 q 697 811 733 831 q 628 785 661 792 q 472 768 560 768 q 403 769 432 768 q 353 772 374 771 q 236 776 294 776 q 90 763 151 776 z "},"Ĥ":{"ha":694,"x_min":18,"x_max":721,"o":"m 674 686 q 707 671 694 686 q 721 628 721 656 q 715 592 721 614 q 689 530 708 558 q 643 485 669 501 q 610 472 626 475 q 568 465 593 468 l 558 464 l 554 464 l 558 358 q 574 361 569 361 q 589 358 581 361 q 622 333 613 354 q 631 296 631 318 q 628 264 631 283 q 626 253 626 260 q 608 163 621 203 q 568 88 594 122 q 451 13 507 13 q 436 14 442 13 q 392 47 404 21 q 376 107 381 74 q 365 299 365 192 l 367 408 l 367 419 l 368 442 l 314 432 q 239 411 272 422 l 228 406 q 207 238 211 296 q 204 171 204 215 q 206 151 206 165 q 204 132 206 139 q 190 83 204 106 q 151 49 175 60 q 113 40 133 40 q 49 65 75 40 q 18 143 18 94 l 19 164 q 35 308 24 236 q 68 479 47 379 q 92 613 85 568 q 119 828 111 731 q 126 940 125 889 l 126 946 q 133 994 128 975 q 154 1031 138 1014 l 154 1031 q 213 1054 178 1054 q 272 1031 249 1054 q 296 964 296 1007 q 294 932 296 942 l 293 925 l 285 822 q 271 676 281 740 q 260 604 268 649 q 325 624 279 611 l 333 626 q 369 636 354 631 q 368 783 369 735 l 368 786 q 371 971 368 910 q 442 1113 375 1065 l 442 1113 q 490 1129 465 1129 q 528 1114 513 1129 q 544 1060 544 1093 q 542 1024 544 1046 q 540 1008 540 1018 q 539 960 539 993 q 542 882 539 935 l 543 843 l 544 786 l 549 669 l 656 683 l 665 685 l 674 686 m 465 1447 q 521 1390 489 1411 q 585 1352 553 1368 q 626 1332 617 1336 q 650 1300 650 1321 q 641 1273 650 1288 q 619 1249 632 1258 q 576 1224 601 1233 q 525 1215 550 1215 q 488 1221 503 1215 q 389 1267 433 1240 q 364 1289 382 1271 q 285 1228 324 1253 q 182 1192 228 1192 q 153 1197 164 1192 q 132 1224 132 1207 q 141 1247 132 1235 q 164 1268 150 1260 q 292 1397 254 1332 q 346 1444 306 1421 q 421 1468 386 1468 q 465 1447 451 1468 z "},"I":{"ha":251,"x_min":-14,"x_max":286,"o":"m 85 1006 q 61 1058 61 1022 q 64 1082 61 1065 q 102 1160 74 1124 q 168 1219 131 1197 q 226 1236 197 1236 q 274 1215 257 1236 q 286 1175 286 1199 q 274 1122 286 1154 q 231 1051 260 1083 q 167 1003 203 1019 q 115 993 138 989 q 85 1006 94 996 m 203 204 q 199 182 203 194 q 194 164 196 169 l 192 156 q 142 58 178 104 q 51 13 106 13 q 43 14 46 13 q 7 31 21 17 q -14 108 -14 56 q -11 153 -14 128 q -12 162 -12 157 q -11 168 -11 167 q 18 436 -7 267 l 24 479 q 42 621 38 574 l 47 683 q 49 699 47 693 q 50 724 51 718 q 49 727 49 725 q 47 731 49 729 q 39 760 39 742 q 43 804 39 782 q 44 818 44 808 q 99 928 54 882 q 185 974 144 974 q 214 967 200 974 q 249 890 249 949 q 246 832 246 851 l 244 796 l 240 719 q 232 572 239 647 q 215 389 231 544 l 211 346 l 208 318 l 200 242 q 199 233 199 236 q 200 225 200 229 q 201 214 203 218 l 203 204 z "},"Í":{"ha":239,"x_min":7,"x_max":313,"o":"m 176 225 q 159 148 176 190 q 113 76 142 106 q 51 46 83 46 q 16 72 25 46 q 7 138 7 97 q 22 442 7 256 q 25 485 22 457 q 32 547 26 506 q 38 606 33 561 q 42 689 42 651 q 38 753 42 722 l 33 783 q 28 828 28 814 q 48 908 28 868 q 101 974 68 949 q 146 992 128 992 q 188 889 188 992 l 186 842 l 186 690 q 185 540 186 590 q 178 446 183 510 q 174 386 176 428 q 171 311 171 344 q 175 240 171 276 l 176 225 m 36 1093 q 17 1117 17 1099 q 32 1149 17 1133 q 60 1177 38 1154 q 100 1221 83 1200 q 128 1261 117 1242 q 176 1308 143 1292 q 249 1328 210 1325 q 290 1318 268 1331 q 313 1288 313 1306 q 307 1268 313 1278 q 149 1111 233 1154 q 65 1089 104 1089 q 36 1093 49 1089 z "},"Ĭ":{"ha":250,"x_min":-139,"x_max":347,"o":"m 176 225 q 159 148 176 190 q 113 76 142 106 q 51 46 83 46 q 16 72 25 46 q 7 138 7 97 q 22 442 7 256 q 25 485 22 457 q 32 547 26 506 q 38 606 33 561 q 42 689 42 651 q 38 753 42 722 l 33 783 q 28 828 28 814 q 48 908 28 868 q 101 974 68 949 q 146 992 128 992 q 188 889 188 992 l 186 842 l 186 690 q 185 540 186 590 q 178 446 183 510 q 174 386 176 428 q 171 311 171 344 q 175 240 171 276 l 176 225 m 150 1238 q 196 1297 151 1271 q 286 1324 240 1324 q 331 1313 314 1324 q 347 1278 347 1301 q 309 1181 347 1222 q 214 1116 271 1139 q 104 1089 157 1093 q -37 1124 22 1083 q -131 1240 -96 1164 q -117 1281 -139 1260 q -59 1317 -96 1303 q 8 1332 -22 1332 q 56 1310 46 1332 q 88 1253 71 1276 q 131 1215 106 1229 q 136 1214 132 1215 q 146 1211 140 1213 q 150 1238 151 1224 z "},"Î":{"ha":224,"x_min":-101,"x_max":417,"o":"m 176 225 q 159 148 176 190 q 113 76 142 106 q 51 46 83 46 q 16 72 25 46 q 7 138 7 97 q 22 442 7 256 q 25 485 22 457 q 32 547 26 506 q 38 606 33 561 q 42 689 42 651 q 38 753 42 722 l 33 783 q 28 828 28 814 q 48 908 28 868 q 101 974 68 949 q 146 992 128 992 q 188 889 188 992 l 186 842 l 186 690 q 185 540 186 590 q 178 446 183 510 q 174 386 176 428 q 171 311 171 344 q 175 240 171 276 l 176 225 m 232 1272 q 288 1215 256 1236 q 351 1177 319 1193 q 393 1157 383 1161 q 417 1125 417 1146 q 408 1098 417 1113 q 386 1074 399 1083 q 342 1049 368 1058 q 292 1040 317 1040 q 254 1046 269 1040 q 156 1092 200 1065 q 131 1114 149 1096 q 51 1053 90 1078 q -51 1017 -6 1017 q -81 1022 -69 1017 q -101 1049 -101 1032 q -92 1072 -101 1060 q -69 1093 -83 1085 q 58 1222 21 1157 q 113 1269 72 1246 q 188 1293 153 1293 q 232 1272 218 1293 z "},"Ï":{"ha":224,"x_min":-85,"x_max":335,"o":"m 176 225 q 159 148 176 190 q 113 76 142 106 q 51 46 83 46 q 16 72 25 46 q 7 138 7 97 q 22 442 7 256 q 25 485 22 457 q 32 547 26 506 q 38 606 33 561 q 42 689 42 651 q 38 753 42 722 l 33 783 q 28 828 28 814 q 48 908 28 868 q 101 974 68 949 q 146 992 128 992 q 188 889 188 992 l 186 842 l 186 690 q 185 540 186 590 q 178 446 183 510 q 174 386 176 428 q 171 311 171 344 q 175 240 171 276 l 176 225 m -83 1172 q -85 1181 -85 1175 q -67 1214 -85 1192 q -3 1251 -47 1235 q 69 1264 39 1268 q 110 1243 101 1261 l 131 1200 q 146 1222 135 1211 q 208 1260 164 1240 q 281 1272 244 1275 q 319 1251 317 1268 l 333 1203 l 335 1194 q 318 1158 335 1181 q 254 1119 297 1136 q 181 1108 217 1104 q 155 1116 168 1110 q 140 1132 142 1122 l 129 1176 q 123 1165 128 1171 q 115 1154 118 1158 q 53 1115 93 1131 q -10 1103 18 1103 q -62 1129 -50 1103 l -83 1172 z "},"İ":{"ha":238,"x_min":-1,"x_max":238,"o":"m 176 225 q 159 148 176 190 q 113 76 142 106 q 51 46 83 46 q 16 72 25 46 q 7 138 7 97 q 22 442 7 256 q 25 485 22 457 q 32 547 26 506 q 38 606 33 561 q 42 689 42 651 q 38 753 42 722 l 33 783 q 28 828 28 814 q 48 908 28 868 q 101 974 68 949 q 146 992 128 992 q 188 889 188 992 l 186 842 l 186 690 q 185 540 186 590 q 178 446 183 510 q 174 386 176 428 q 171 311 171 344 q 175 240 171 276 l 176 225 m 64 1081 q 15 1101 29 1083 q 3 1147 -1 1122 q 14 1174 6 1161 q 32 1197 22 1186 q 56 1217 42 1210 q 93 1233 71 1225 q 94 1235 94 1233 q 171 1254 139 1254 q 217 1240 197 1254 q 236 1207 232 1228 l 238 1193 q 232 1164 238 1176 q 172 1106 218 1131 q 79 1079 126 1079 l 64 1081 z "},"Ì":{"ha":251,"x_min":-71,"x_max":251,"o":"m 176 225 q 159 148 176 190 q 113 76 142 106 q 51 46 83 46 q 16 72 25 46 q 7 138 7 97 q 22 442 7 256 q 25 485 22 457 q 32 547 26 506 q 38 606 33 561 q 42 689 42 651 q 38 753 42 722 l 33 783 q 28 828 28 814 q 48 908 28 868 q 101 974 68 949 q 146 992 128 992 q 188 889 188 992 l 186 842 l 186 690 q 185 540 186 590 q 178 446 183 510 q 174 386 176 428 q 171 311 171 344 q 175 240 171 276 l 176 225 m -62 1243 q -71 1263 -71 1251 q -19 1317 -71 1290 q 76 1343 32 1343 q 113 1333 101 1343 l 115 1331 l 121 1325 l 182 1258 q 215 1227 190 1250 q 249 1183 240 1204 q 251 1169 251 1175 q 196 1104 251 1138 q 111 1082 158 1082 q 74 1088 89 1082 q 73 1089 74 1089 q 72 1089 72 1089 q 47 1117 51 1096 q 24 1147 42 1128 q 0 1174 7 1165 l -62 1243 z "},"Ī":{"ha":626,"x_min":42,"x_max":585,"o":"m 351 225 q 334 148 351 190 q 288 76 317 106 q 226 46 258 46 q 191 72 200 46 q 182 138 182 97 q 197 442 182 256 q 200 485 197 457 q 207 547 201 506 q 213 606 208 561 q 217 689 217 651 q 213 753 217 722 l 208 783 q 203 828 203 814 q 223 908 203 868 q 276 974 243 949 q 321 992 303 992 q 363 889 363 992 l 361 842 l 361 690 q 360 540 361 590 q 353 446 358 510 q 349 386 351 428 q 346 311 346 344 q 350 240 346 276 l 351 225 m 79 1103 q 51 1112 61 1104 q 42 1132 42 1119 q 57 1164 42 1146 q 114 1201 78 1189 q 186 1213 150 1213 q 350 1210 292 1210 q 464 1214 408 1210 q 529 1229 499 1229 q 563 1222 549 1229 q 581 1200 576 1214 l 583 1189 q 585 1176 585 1185 q 564 1132 585 1153 q 514 1100 543 1111 q 463 1092 485 1089 q 218 1100 381 1097 q 79 1103 171 1100 z "},"Į":{"ha":207,"x_min":-117,"x_max":286,"o":"m 85 1006 q 61 1058 61 1022 q 64 1082 61 1065 q 102 1160 74 1124 q 168 1219 131 1197 q 226 1236 197 1236 q 274 1215 257 1236 q 286 1175 286 1199 q 274 1122 286 1154 q 231 1051 260 1083 q 167 1003 203 1019 q 115 993 138 989 q 85 1006 94 996 m 203 204 q 199 182 203 194 q 194 164 196 169 l 192 156 q 142 58 178 104 q 51 13 106 13 q 43 14 46 13 q 7 31 21 17 q -14 108 -14 56 q -11 153 -14 128 q -12 162 -12 157 q -11 168 -11 167 q 18 436 -7 267 l 24 479 q 42 621 38 574 l 47 683 q 49 699 47 693 q 50 724 51 718 q 49 727 49 725 q 47 731 49 729 q 39 760 39 742 q 43 804 39 782 q 44 818 44 808 q 99 928 54 882 q 185 974 144 974 q 214 967 200 974 q 249 890 249 949 q 246 832 246 851 l 244 796 l 240 719 q 232 572 239 647 q 215 389 231 544 l 211 346 l 208 318 l 200 242 q 199 233 199 236 q 200 225 200 229 q 201 214 203 218 l 203 204 m 101 57 q 76 28 85 42 q 69 -4 67 14 q 92 -35 71 -22 q 106 -36 101 -35 q 133 -47 119 -39 q 147 -65 146 -54 l 147 -67 q 149 -81 149 -72 q 130 -124 149 -107 q 78 -158 111 -142 q 31 -169 57 -169 q -46 -144 -7 -169 q -89 -113 -72 -129 q -112 -76 -106 -97 q -117 -50 -117 -62 q -49 67 -117 7 q 12 103 -24 90 q 81 115 47 117 q 107 106 97 114 q 117 86 117 97 q 101 57 117 72 z "},"Ĩ":{"ha":439,"x_min":-61,"x_max":510,"o":"m 274 225 q 256 148 274 190 q 210 76 239 106 q 149 46 181 46 q 113 72 122 46 q 104 138 104 97 q 119 442 104 256 q 122 485 119 457 q 129 547 124 506 q 135 606 131 561 q 139 689 139 651 q 135 753 139 722 l 131 783 q 125 828 125 814 q 145 908 125 868 q 199 974 165 949 q 243 992 225 992 q 285 889 285 992 l 283 842 l 283 690 q 282 540 283 590 q 275 446 281 510 q 271 386 274 428 q 268 311 268 344 q 272 240 268 276 l 274 225 m 367 1207 q 401 1264 368 1239 q 465 1289 433 1289 q 497 1278 485 1289 q 508 1243 508 1267 q 478 1146 510 1186 q 399 1085 446 1106 q 310 1064 353 1064 q 292 1065 297 1064 q 183 1096 250 1069 q 139 1111 149 1108 l 89 1124 l 83 1107 q 42 1057 78 1079 q -26 1035 6 1035 q -56 1063 -61 1035 q 4 1197 -40 1144 q 113 1254 49 1250 q 204 1232 131 1254 q 272 1214 218 1228 q 350 1200 326 1200 q 367 1207 367 1200 z "},"J":{"ha":903,"x_min":42,"x_max":888,"o":"m 856 1200 q 878 1185 871 1200 q 888 1156 886 1171 q 874 1094 888 1122 q 827 1024 857 1054 q 760 989 797 993 q 663 975 690 979 q 706 811 693 890 q 724 689 722 718 q 726 629 726 650 q 724 568 726 610 q 690 324 715 414 q 647 206 669 249 q 611 137 628 164 q 572 89 594 110 l 533 53 l 507 38 q 468 25 490 25 q 454 22 460 22 q 354 47 400 25 q 286 92 318 67 q 208 160 254 118 l 60 293 q 42 339 42 310 q 75 431 42 379 q 150 500 110 483 q 172 506 161 506 q 194 500 185 506 l 303 397 l 336 367 q 427 289 389 318 q 510 243 465 260 q 518 242 513 242 q 529 272 526 261 q 558 425 544 322 q 565 546 565 492 q 564 593 565 578 l 561 622 q 544 753 553 708 q 486 917 525 844 q 481 943 481 926 l 461 940 q 278 893 339 910 q 269 890 274 892 q 257 889 264 889 q 229 907 239 889 q 225 932 225 919 q 228 953 225 939 q 272 1036 236 997 q 317 1068 292 1057 q 450 1107 406 1093 q 490 1118 481 1117 q 571 1140 540 1133 q 850 1199 711 1172 l 856 1200 z "},"Ĵ":{"ha":833,"x_min":42,"x_max":888,"o":"m 856 1200 q 878 1185 871 1200 q 888 1156 886 1171 q 874 1094 888 1122 q 827 1024 857 1054 q 760 989 797 993 q 663 975 690 979 q 706 811 693 890 q 724 689 722 718 q 726 629 726 650 q 724 568 726 610 q 690 324 715 414 q 647 206 669 249 q 611 137 628 164 q 572 89 594 110 l 533 53 l 507 38 q 468 25 490 25 q 454 22 460 22 q 354 47 400 25 q 286 92 318 67 q 208 160 254 118 l 60 293 q 42 339 42 310 q 75 431 42 379 q 150 500 110 483 q 172 506 161 506 q 194 500 185 506 l 303 397 l 336 367 q 427 289 389 318 q 510 243 465 260 q 518 242 513 242 q 529 272 526 261 q 558 425 544 322 q 565 546 565 492 q 564 593 565 578 l 561 622 q 544 753 553 708 q 486 917 525 844 q 481 943 481 926 l 461 940 q 278 893 339 910 q 269 890 274 892 q 257 889 264 889 q 229 907 239 889 q 225 932 225 919 q 228 953 225 939 q 272 1036 236 997 q 317 1068 292 1057 q 450 1107 406 1093 q 490 1118 481 1117 q 571 1140 540 1133 q 850 1199 711 1172 l 856 1200 m 624 1406 q 679 1348 647 1369 q 743 1310 711 1326 q 785 1290 775 1294 q 808 1258 808 1279 q 799 1231 808 1246 q 778 1207 790 1217 q 734 1183 760 1192 q 683 1174 708 1174 q 646 1179 661 1174 q 547 1225 592 1199 q 522 1247 540 1229 q 443 1186 482 1211 q 340 1150 386 1150 q 311 1156 322 1150 q 290 1182 290 1165 q 299 1206 290 1193 q 322 1226 308 1218 q 450 1356 413 1290 q 504 1403 464 1379 q 579 1426 544 1426 q 624 1406 610 1426 z "},"K":{"ha":856,"x_min":42,"x_max":818,"o":"m 785 350 q 818 290 818 326 q 782 202 818 250 q 709 121 746 154 q 615 40 672 88 q 531 7 576 7 q 474 31 496 7 q 451 100 451 54 q 460 173 451 133 q 486 269 469 213 l 501 324 q 557 564 525 422 q 475 515 546 558 l 361 450 q 336 436 344 442 q 286 408 304 421 q 263 389 267 394 q 258 372 260 383 q 256 350 257 360 l 249 299 q 235 196 244 243 l 238 210 q 233 183 236 201 q 228 153 231 164 q 201 78 215 106 q 167 25 188 50 q 121 -15 146 0 q 79 -31 94 -31 q 51 -12 60 -31 q 42 32 42 6 q 46 74 42 56 q 63 151 44 65 q 83 244 76 208 q 89 313 89 281 q 86 349 89 326 q 79 397 79 383 q 93 456 79 418 q 107 505 103 481 q 114 552 111 529 q 118 583 117 575 q 129 797 129 678 l 128 921 q 126 963 128 944 q 124 994 125 982 q 118 1072 118 1047 q 128 1153 118 1117 q 167 1218 139 1189 q 244 1265 211 1265 q 272 1250 261 1265 q 285 1185 285 1232 q 283 1147 285 1160 q 283 1128 283 1139 q 283 1107 282 1118 q 294 806 294 947 l 294 761 q 407 890 347 826 q 550 1038 467 954 q 616 1096 586 1074 q 675 1114 646 1118 q 708 1074 708 1108 q 689 1010 708 1046 q 625 919 664 963 q 521 814 586 876 l 454 749 l 415 711 q 335 631 365 665 q 299 560 306 596 l 543 715 q 631 744 586 744 q 699 715 674 744 q 718 629 724 685 q 681 425 711 560 l 658 318 q 694 351 672 339 q 739 364 715 364 q 785 350 765 364 z "},"L":{"ha":642,"x_min":32,"x_max":614,"o":"m 594 158 q 562 114 588 150 q 506 52 536 78 q 451 26 476 26 q 422 36 436 26 q 404 64 410 44 q 393 117 399 83 q 372 191 385 167 q 326 210 358 215 q 279 182 306 206 q 232 136 253 158 q 203 106 211 114 l 175 79 q 139 43 154 57 q 106 21 124 29 q 68 11 85 11 q 32 69 32 11 q 38 132 32 99 q 44 171 43 165 q 143 889 106 635 q 184 1057 158 985 q 269 1146 210 1129 q 288 1149 283 1149 q 319 1133 310 1149 q 329 1090 329 1117 q 321 1039 329 1065 q 301 997 313 1013 l 301 979 q 297 932 301 958 q 290 894 292 906 l 265 714 l 208 301 q 310 382 263 350 q 403 414 357 414 q 496 361 465 414 q 549 226 526 308 q 588 249 569 249 q 607 238 600 249 q 614 210 614 226 q 594 158 614 179 z "},"Ĺ":{"ha":667,"x_min":32,"x_max":614,"o":"m 594 158 q 562 114 588 150 q 506 52 536 78 q 451 26 476 26 q 422 36 436 26 q 404 64 410 44 q 393 117 399 83 q 372 191 385 167 q 326 210 358 215 q 279 182 306 206 q 232 136 253 158 q 203 106 211 114 l 175 79 q 139 43 154 57 q 106 21 124 29 q 68 11 85 11 q 32 69 32 11 q 38 132 32 99 q 44 171 43 165 q 143 889 106 635 q 184 1057 158 985 q 269 1146 210 1129 q 288 1149 283 1149 q 319 1133 310 1149 q 329 1090 329 1117 q 321 1039 329 1065 q 301 997 313 1013 l 301 979 q 297 932 301 958 q 290 894 292 906 l 265 714 l 208 301 q 310 382 263 350 q 403 414 357 414 q 496 361 465 414 q 549 226 526 308 q 588 249 569 249 q 607 238 600 249 q 614 210 614 226 q 594 158 614 179 m 236 1268 q 217 1292 217 1274 q 232 1324 217 1308 q 260 1352 238 1329 q 300 1396 283 1375 q 328 1436 317 1417 q 376 1483 343 1467 q 449 1503 410 1500 q 490 1493 468 1506 q 513 1463 513 1481 q 507 1443 513 1453 q 349 1286 433 1329 q 265 1264 304 1264 q 236 1268 249 1264 z "},"Ľ":{"ha":625,"x_min":32,"x_max":614,"o":"m 594 158 q 562 114 588 150 q 506 52 536 78 q 451 26 476 26 q 422 36 436 26 q 404 64 410 44 q 393 117 399 83 q 372 191 385 167 q 326 210 358 215 q 279 182 306 206 q 232 136 253 158 q 203 106 211 114 l 175 79 q 139 43 154 57 q 106 21 124 29 q 68 11 85 11 q 32 69 32 11 q 38 132 32 99 q 44 171 43 165 q 143 889 106 635 q 184 1057 158 985 q 269 1146 210 1129 q 288 1149 283 1149 q 319 1133 310 1149 q 329 1090 329 1117 q 321 1039 329 1065 q 301 997 313 1013 l 301 979 q 297 932 301 958 q 290 894 292 906 l 265 714 l 208 301 q 310 382 263 350 q 403 414 357 414 q 496 361 465 414 q 549 226 526 308 q 588 249 569 249 q 607 238 600 249 q 614 210 614 226 q 594 158 614 179 m 396 744 q 389 765 389 754 q 392 782 389 771 q 403 813 393 796 q 431 967 431 896 q 425 1026 431 988 q 446 1077 422 1049 q 504 1126 469 1106 q 563 1147 539 1147 q 588 1128 583 1147 q 593 1051 593 1094 q 588 968 593 1006 q 568 839 579 888 q 560 807 568 824 q 485 732 539 758 q 438 721 460 721 q 396 744 406 721 z "},"Ŀ":{"ha":614,"x_min":32,"x_max":614,"o":"m 594 158 q 562 114 588 150 q 506 52 536 78 q 451 26 476 26 q 422 36 436 26 q 404 64 410 44 q 393 117 399 83 q 372 191 385 167 q 326 210 358 215 q 279 182 306 206 q 232 136 253 158 q 203 106 211 114 l 175 79 q 139 43 154 57 q 106 21 124 29 q 68 11 85 11 q 32 69 32 11 q 38 132 32 99 q 44 171 43 165 q 143 889 106 635 q 184 1057 158 985 q 269 1146 210 1129 q 288 1149 283 1149 q 319 1133 310 1149 q 329 1090 329 1117 q 321 1039 329 1065 q 301 997 313 1013 l 301 979 q 297 932 301 958 q 290 894 292 906 l 265 714 l 208 301 q 310 382 263 350 q 403 414 357 414 q 496 361 465 414 q 549 226 526 308 q 588 249 569 249 q 607 238 600 249 q 614 210 614 226 q 594 158 614 179 m 300 592 q 297 600 297 597 q 306 619 297 610 q 315 631 314 629 q 375 667 333 650 q 433 679 403 679 q 481 658 465 679 l 481 660 l 481 658 q 513 625 490 646 q 557 589 536 604 q 568 568 568 582 q 554 539 568 554 q 525 513 540 524 q 467 489 496 494 q 433 485 454 485 q 404 490 415 485 q 300 592 351 518 z "},"Ł":{"ha":642,"x_min":-103,"x_max":614,"o":"m 594 158 q 562 114 588 150 q 506 52 536 78 q 451 26 476 26 q 422 36 436 26 q 404 64 410 44 q 393 117 399 83 q 372 191 385 167 q 326 210 358 215 q 279 182 306 206 q 232 136 253 158 q 203 106 211 114 l 175 79 q 139 43 154 57 q 106 21 124 29 q 68 11 85 11 q 32 69 32 11 q 38 132 32 99 q 44 171 43 165 q 143 889 106 635 q 184 1057 158 985 q 269 1146 210 1129 q 288 1149 283 1149 q 319 1133 310 1149 q 329 1090 329 1117 q 321 1039 329 1065 q 301 997 313 1013 l 301 979 q 297 932 301 958 q 290 894 292 906 l 265 714 l 208 301 q 310 382 263 350 q 403 414 357 414 q 496 361 465 414 q 549 226 526 308 q 588 249 569 249 q 607 238 600 249 q 614 210 614 226 q 594 158 614 179 m 386 826 q 421 836 396 836 q 485 822 453 836 q 518 790 518 807 q 513 781 518 785 q 21 381 289 543 q -6 375 11 375 q -70 390 -37 375 q -103 422 -103 406 q -90 440 -103 432 q 386 826 179 608 z "},"M":{"ha":899,"x_min":24,"x_max":831,"o":"m 814 194 q 831 154 831 182 q 813 94 831 126 q 767 40 794 61 q 713 18 739 18 q 638 125 654 18 q 632 213 632 164 q 635 290 632 238 l 636 368 q 639 551 636 429 q 643 797 643 675 q 556 542 608 704 q 525 464 540 494 q 481 410 510 433 q 425 386 453 386 q 338 457 372 386 q 278 617 303 528 l 265 514 q 233 292 247 375 q 190 125 218 208 q 142 19 169 63 q 72 -25 115 -25 q 24 25 24 -25 q 44 104 24 60 q 42 99 43 101 q 40 97 42 97 l 49 124 q 71 222 61 165 q 110 460 92 328 l 143 703 q 176 954 158 833 q 198 1066 186 1025 q 242 1144 210 1107 q 277 1174 257 1163 q 315 1185 297 1185 q 361 1157 346 1185 q 375 1089 372 1136 l 379 1056 q 404 943 389 1004 q 472 713 442 793 q 486 753 483 746 q 556 942 525 867 q 632 1081 588 1017 q 679 1131 653 1110 q 732 1153 706 1153 q 774 1133 761 1153 q 791 1092 788 1113 q 799 1025 794 1072 q 804 881 804 963 q 799 699 804 821 q 796 636 797 674 q 794 549 794 599 l 793 454 q 796 319 793 408 l 794 275 q 814 194 794 211 z "},"N":{"ha":667,"x_min":35,"x_max":633,"o":"m 235 1156 q 281 1176 256 1172 l 285 1176 q 314 1157 307 1176 q 325 1115 322 1142 q 328 1096 328 1101 q 363 977 347 1028 q 390 892 379 926 q 425 778 401 854 q 465 644 449 703 q 472 621 471 626 q 469 738 472 660 l 468 796 l 467 832 q 462 926 465 889 q 449 1000 458 964 q 460 1064 449 1036 l 476 1100 q 522 1158 492 1129 q 571 1182 544 1178 q 607 1161 594 1182 q 631 1043 628 1107 q 632 986 631 1004 q 633 879 632 914 q 631 653 633 803 q 622 426 631 576 l 621 397 q 617 344 619 382 q 611 278 615 307 q 581 131 599 185 q 553 68 565 90 q 506 11 539 42 q 460 -10 482 -10 q 443 -6 451 -10 q 406 53 421 6 q 381 144 393 92 q 369 203 372 183 q 347 308 354 281 q 296 539 332 386 q 154 69 250 256 q 127 31 144 49 q 92 4 110 13 q 69 -1 82 -1 q 53 1 58 -1 q 35 44 35 14 q 36 63 35 57 q 58 124 43 97 l 61 129 q 106 254 86 186 q 140 446 128 347 q 163 671 153 544 q 165 772 165 740 l 164 844 q 163 883 164 869 q 162 908 163 893 q 163 942 161 922 q 165 1016 163 989 q 176 1068 167 1043 q 235 1156 199 1125 z "},"Ń":{"ha":672,"x_min":35,"x_max":633,"o":"m 235 1156 q 281 1176 256 1172 l 285 1176 q 314 1157 307 1176 q 325 1115 322 1142 q 328 1096 328 1101 q 363 977 347 1028 q 390 892 379 926 q 425 778 401 854 q 465 644 449 703 q 472 621 471 626 q 469 738 472 660 l 468 796 l 467 832 q 462 926 465 889 q 449 1000 458 964 q 460 1064 449 1036 l 476 1100 q 522 1158 492 1129 q 571 1182 544 1178 q 607 1161 594 1182 q 631 1043 628 1107 q 632 986 631 1004 q 633 879 632 914 q 631 653 633 803 q 622 426 631 576 l 621 397 q 617 344 619 382 q 611 278 615 307 q 581 131 599 185 q 553 68 565 90 q 506 11 539 42 q 460 -10 482 -10 q 443 -6 451 -10 q 406 53 421 6 q 381 144 393 92 q 369 203 372 183 q 347 308 354 281 q 296 539 332 386 q 154 69 250 256 q 127 31 144 49 q 92 4 110 13 q 69 -1 82 -1 q 53 1 58 -1 q 35 44 35 14 q 36 63 35 57 q 58 124 43 97 l 61 129 q 106 254 86 186 q 140 446 128 347 q 163 671 153 544 q 165 772 165 740 l 164 844 q 163 883 164 869 q 162 908 163 893 q 163 942 161 922 q 165 1016 163 989 q 176 1068 167 1043 q 235 1156 199 1125 m 306 1139 q 286 1163 286 1144 q 301 1194 286 1179 q 330 1223 307 1200 q 369 1267 353 1246 q 397 1307 386 1288 q 446 1354 413 1338 q 518 1374 479 1371 q 560 1364 538 1376 q 582 1333 582 1351 q 576 1314 582 1324 q 418 1157 503 1200 q 335 1135 374 1135 q 306 1139 318 1135 z "},"Ň":{"ha":672,"x_min":35,"x_max":642,"o":"m 235 1156 q 281 1176 256 1172 l 285 1176 q 314 1157 307 1176 q 325 1115 322 1142 q 328 1096 328 1101 q 363 977 347 1028 q 390 892 379 926 q 425 778 401 854 q 465 644 449 703 q 472 621 471 626 q 469 738 472 660 l 468 796 l 467 832 q 462 926 465 889 q 449 1000 458 964 q 460 1064 449 1036 l 476 1100 q 522 1158 492 1129 q 571 1182 544 1178 q 607 1161 594 1182 q 631 1043 628 1107 q 632 986 631 1004 q 633 879 632 914 q 631 653 633 803 q 622 426 631 576 l 621 397 q 617 344 619 382 q 611 278 615 307 q 581 131 599 185 q 553 68 565 90 q 506 11 539 42 q 460 -10 482 -10 q 443 -6 451 -10 q 406 53 421 6 q 381 144 393 92 q 369 203 372 183 q 347 308 354 281 q 296 539 332 386 q 154 69 250 256 q 127 31 144 49 q 92 4 110 13 q 69 -1 82 -1 q 53 1 58 -1 q 35 44 35 14 q 36 63 35 57 q 58 124 43 97 l 61 129 q 106 254 86 186 q 140 446 128 347 q 163 671 153 544 q 165 772 165 740 l 164 844 q 163 883 164 869 q 162 908 163 893 q 163 942 161 922 q 165 1016 163 989 q 176 1068 167 1043 q 235 1156 199 1125 m 206 1343 q 196 1360 196 1349 q 216 1392 196 1375 q 253 1418 236 1410 q 338 1443 297 1443 q 378 1432 363 1443 q 439 1381 411 1410 q 578 1422 510 1424 q 624 1410 607 1422 q 642 1379 642 1397 q 613 1329 642 1353 q 565 1296 594 1314 q 523 1267 540 1281 q 492 1232 506 1253 q 443 1195 476 1211 q 376 1179 410 1179 q 313 1215 328 1179 q 206 1343 282 1292 z "},"Ṅ":{"ha":672,"x_min":35,"x_max":633,"o":"m 235 1156 q 281 1176 256 1172 l 285 1176 q 314 1157 307 1176 q 325 1115 322 1142 q 328 1096 328 1101 q 363 977 347 1028 q 390 892 379 926 q 425 778 401 854 q 465 644 449 703 q 472 621 471 626 q 469 738 472 660 l 468 796 l 467 832 q 462 926 465 889 q 449 1000 458 964 q 460 1064 449 1036 l 476 1100 q 522 1158 492 1129 q 571 1182 544 1178 q 607 1161 594 1182 q 631 1043 628 1107 q 632 986 631 1004 q 633 879 632 914 q 631 653 633 803 q 622 426 631 576 l 621 397 q 617 344 619 382 q 611 278 615 307 q 581 131 599 185 q 553 68 565 90 q 506 11 539 42 q 460 -10 482 -10 q 443 -6 451 -10 q 406 53 421 6 q 381 144 393 92 q 369 203 372 183 q 347 308 354 281 q 296 539 332 386 q 154 69 250 256 q 127 31 144 49 q 92 4 110 13 q 69 -1 82 -1 q 53 1 58 -1 q 35 44 35 14 q 36 63 35 57 q 58 124 43 97 l 61 129 q 106 254 86 186 q 140 446 128 347 q 163 671 153 544 q 165 772 165 740 l 164 844 q 163 883 164 869 q 162 908 163 893 q 163 942 161 922 q 165 1016 163 989 q 176 1068 167 1043 q 235 1156 199 1125 m 360 1254 q 311 1275 325 1257 q 299 1321 294 1296 q 310 1347 301 1335 q 328 1371 318 1360 q 352 1391 338 1383 q 389 1407 367 1399 q 390 1408 390 1407 q 467 1428 435 1428 q 513 1414 493 1428 q 532 1381 528 1401 l 533 1367 q 528 1338 533 1350 q 468 1279 514 1304 q 375 1253 422 1253 l 360 1254 z "},"Ŋ":{"ha":667,"x_min":35,"x_max":633,"o":"m 603 539 q 614 353 614 442 q 574 2 614 174 q 454 -317 535 -169 q 422 -340 446 -331 q 372 -350 397 -350 q 336 -337 344 -350 q 165 -164 242 -294 q 161 -149 161 -156 q 188 -112 161 -128 q 243 -97 215 -97 q 279 -112 272 -97 l 297 -147 q 335 -215 319 -190 q 363 -239 350 -239 q 374 -229 369 -239 q 493 326 493 42 q 481 506 493 417 q 506 546 478 529 q 564 563 533 563 q 603 539 601 563 m 235 1156 q 281 1176 256 1172 l 285 1176 q 314 1157 307 1176 q 325 1115 322 1142 q 328 1096 328 1101 q 363 977 347 1028 q 390 892 379 926 q 425 778 401 854 q 465 644 449 703 q 472 621 471 626 q 469 738 472 660 l 468 796 l 467 832 q 462 926 465 889 q 449 1000 458 964 q 460 1064 449 1036 l 476 1100 q 522 1158 492 1129 q 571 1182 544 1178 q 607 1161 594 1182 q 631 1043 628 1107 q 632 986 631 1004 q 633 879 632 914 q 631 653 633 803 q 622 426 631 576 l 621 397 q 617 344 619 382 q 611 278 615 307 q 581 131 599 185 q 553 68 565 90 q 506 11 539 42 q 460 -10 482 -10 q 443 -6 451 -10 q 406 53 421 6 q 381 144 393 92 q 369 203 372 183 q 347 308 354 281 q 296 539 332 386 q 154 69 250 256 q 127 31 144 49 q 92 4 110 13 q 69 -1 82 -1 q 53 1 58 -1 q 35 44 35 14 q 36 63 35 57 q 58 124 43 97 l 61 129 q 106 254 86 186 q 140 446 128 347 q 163 671 153 544 q 165 772 165 740 l 164 844 q 163 883 164 869 q 162 908 163 893 q 163 942 161 922 q 165 1016 163 989 q 176 1068 167 1043 q 235 1156 199 1125 z "},"Ñ":{"ha":651,"x_min":35,"x_max":644,"o":"m 235 1156 q 281 1176 256 1172 l 285 1176 q 314 1157 307 1176 q 325 1115 322 1142 q 328 1096 328 1101 q 363 977 347 1028 q 390 892 379 926 q 425 778 401 854 q 465 644 449 703 q 472 621 471 626 q 469 738 472 660 l 468 796 l 467 832 q 462 926 465 889 q 449 1000 458 964 q 460 1064 449 1036 l 476 1100 q 522 1158 492 1129 q 571 1182 544 1178 q 607 1161 594 1182 q 631 1043 628 1107 q 632 986 631 1004 q 633 879 632 914 q 631 653 633 803 q 622 426 631 576 l 621 397 q 617 344 619 382 q 611 278 615 307 q 581 131 599 185 q 553 68 565 90 q 506 11 539 42 q 460 -10 482 -10 q 443 -6 451 -10 q 406 53 421 6 q 381 144 393 92 q 369 203 372 183 q 347 308 354 281 q 296 539 332 386 q 154 69 250 256 q 127 31 144 49 q 92 4 110 13 q 69 -1 82 -1 q 53 1 58 -1 q 35 44 35 14 q 36 63 35 57 q 58 124 43 97 l 61 129 q 106 254 86 186 q 140 446 128 347 q 163 671 153 544 q 165 772 165 740 l 164 844 q 163 883 164 869 q 162 908 163 893 q 163 942 161 922 q 165 1016 163 989 q 176 1068 167 1043 q 235 1156 199 1125 m 501 1310 q 535 1367 503 1342 q 600 1392 568 1392 q 631 1381 619 1392 q 643 1346 643 1369 q 613 1249 644 1289 q 534 1188 581 1208 q 444 1167 488 1167 q 426 1168 432 1167 q 318 1199 385 1172 q 274 1214 283 1211 l 224 1226 l 218 1210 q 176 1160 213 1182 q 108 1138 140 1138 q 79 1165 74 1138 q 139 1300 94 1247 q 247 1357 183 1353 q 339 1335 265 1357 q 407 1317 353 1331 q 485 1303 461 1303 q 501 1310 501 1303 z "},"O":{"ha":758,"x_min":29,"x_max":742,"o":"m 432 1154 q 501 1163 469 1163 q 682 1059 622 1163 q 742 790 742 956 q 681 435 742 618 q 516 132 621 253 q 283 11 411 11 q 167 39 224 11 q 63 157 97 74 q 29 357 29 240 q 85 694 29 515 q 235 1001 142 872 q 432 1154 328 1131 m 407 929 q 276 855 335 928 q 183 673 217 782 q 149 460 149 564 q 186 288 149 354 q 299 222 224 222 q 360 232 329 222 q 478 326 424 253 q 565 499 533 400 q 597 692 597 599 q 551 866 597 800 q 407 929 504 932 z "},"Ó":{"ha":833,"x_min":29,"x_max":742,"o":"m 432 1154 q 501 1163 469 1163 q 682 1059 622 1163 q 742 790 742 956 q 681 435 742 618 q 516 132 621 253 q 283 11 411 11 q 167 39 224 11 q 63 157 97 74 q 29 357 29 240 q 85 694 29 515 q 235 1001 142 872 q 432 1154 328 1131 m 407 929 q 276 855 335 928 q 183 673 217 782 q 149 460 149 564 q 186 288 149 354 q 299 222 224 222 q 360 232 329 222 q 478 326 424 253 q 565 499 533 400 q 597 692 597 599 q 551 866 597 800 q 407 929 504 932 m 342 1100 q 322 1124 322 1106 q 338 1156 322 1140 q 366 1184 343 1161 q 406 1228 389 1207 q 433 1268 422 1249 q 482 1315 449 1299 q 554 1335 515 1332 q 596 1325 574 1338 q 618 1294 618 1313 q 613 1275 618 1285 q 454 1118 539 1161 q 371 1096 410 1096 q 342 1100 354 1096 z "},"Ŏ":{"ha":833,"x_min":29,"x_max":742,"o":"m 432 1154 q 501 1163 469 1163 q 682 1059 622 1163 q 742 790 742 956 q 681 435 742 618 q 516 132 621 253 q 283 11 411 11 q 167 39 224 11 q 63 157 97 74 q 29 357 29 240 q 85 694 29 515 q 235 1001 142 872 q 432 1154 328 1131 m 407 929 q 276 855 335 928 q 183 673 217 782 q 149 460 149 564 q 186 288 149 354 q 299 222 224 222 q 360 232 329 222 q 478 326 424 253 q 565 499 533 400 q 597 692 597 599 q 551 866 597 800 q 407 929 504 932 m 535 1242 q 581 1301 536 1275 q 671 1328 625 1328 q 715 1317 699 1328 q 732 1282 732 1306 q 694 1185 732 1226 q 599 1120 656 1143 q 489 1093 542 1097 q 348 1128 407 1088 q 254 1244 289 1168 q 267 1285 246 1264 q 326 1322 289 1307 q 393 1336 363 1336 q 440 1314 431 1336 q 473 1257 456 1281 q 515 1219 490 1233 q 521 1218 517 1219 q 531 1215 525 1217 q 535 1242 536 1228 z "},"Ô":{"ha":842,"x_min":29,"x_max":815,"o":"m 432 1154 q 501 1163 469 1163 q 682 1059 622 1163 q 742 790 742 956 q 681 435 742 618 q 516 132 621 253 q 283 11 411 11 q 167 39 224 11 q 63 157 97 74 q 29 357 29 240 q 85 694 29 515 q 235 1001 142 872 q 432 1154 328 1131 m 407 929 q 276 855 335 928 q 183 673 217 782 q 149 460 149 564 q 186 288 149 354 q 299 222 224 222 q 360 232 329 222 q 478 326 424 253 q 565 499 533 400 q 597 692 597 599 q 551 866 597 800 q 407 929 504 932 m 631 1338 q 686 1280 654 1301 q 750 1242 718 1258 q 792 1222 782 1226 q 815 1190 815 1211 q 806 1163 815 1178 q 785 1139 797 1149 q 741 1115 767 1124 q 690 1106 715 1106 q 653 1111 668 1106 q 554 1157 599 1131 q 529 1179 547 1161 q 450 1118 489 1143 q 347 1082 393 1082 q 318 1088 329 1082 q 297 1114 297 1097 q 306 1138 297 1125 q 329 1158 315 1150 q 457 1288 419 1222 q 511 1335 471 1311 q 586 1358 551 1358 q 631 1338 617 1358 z "},"Ö":{"ha":842,"x_min":29,"x_max":743,"o":"m 432 1154 q 501 1163 469 1163 q 682 1059 622 1163 q 742 790 742 956 q 681 435 742 618 q 516 132 621 253 q 283 11 411 11 q 167 39 224 11 q 63 157 97 74 q 29 357 29 240 q 85 694 29 515 q 235 1001 142 872 q 432 1154 328 1131 m 407 929 q 276 855 335 928 q 183 673 217 782 q 149 460 149 564 q 186 288 149 354 q 299 222 224 222 q 360 232 329 222 q 478 326 424 253 q 565 499 533 400 q 597 692 597 599 q 551 866 597 800 q 407 929 504 932 m 325 1172 q 324 1181 324 1175 q 342 1214 324 1192 q 406 1251 361 1235 q 478 1264 447 1268 q 518 1243 510 1261 l 539 1200 q 554 1222 543 1211 q 617 1260 572 1240 q 689 1272 653 1275 q 728 1251 725 1268 l 742 1203 l 743 1194 q 726 1158 743 1181 q 663 1119 706 1136 q 589 1108 624 1104 q 563 1116 576 1110 q 549 1132 550 1122 l 538 1176 q 531 1165 536 1171 q 524 1154 526 1158 q 461 1115 501 1131 q 399 1103 426 1103 q 346 1129 360 1103 l 325 1172 z "},"Ò":{"ha":833,"x_min":29,"x_max":742,"o":"m 432 1154 q 501 1163 469 1163 q 682 1059 622 1163 q 742 790 742 956 q 681 435 742 618 q 516 132 621 253 q 283 11 411 11 q 167 39 224 11 q 63 157 97 74 q 29 357 29 240 q 85 694 29 515 q 235 1001 142 872 q 432 1154 328 1131 m 407 929 q 276 855 335 928 q 183 673 217 782 q 149 460 149 564 q 186 288 149 354 q 299 222 224 222 q 360 232 329 222 q 478 326 424 253 q 565 499 533 400 q 597 692 597 599 q 551 866 597 800 q 407 929 504 932 m 371 1271 q 363 1290 363 1279 q 414 1344 363 1318 q 510 1371 465 1371 q 546 1361 535 1371 l 549 1358 l 554 1353 l 615 1286 q 649 1255 624 1278 q 682 1211 674 1232 q 685 1197 685 1203 q 629 1132 685 1165 q 544 1110 592 1110 q 507 1115 522 1110 q 506 1117 507 1117 q 506 1117 506 1117 q 481 1144 485 1124 q 458 1174 475 1156 q 433 1201 440 1193 l 371 1271 z "},"Ơ":{"ha":833,"x_min":29,"x_max":994,"o":"m 432 1154 q 501 1163 469 1163 q 682 1059 622 1163 q 742 790 742 956 q 681 435 742 618 q 516 132 621 253 q 283 11 411 11 q 167 39 224 11 q 63 157 97 74 q 29 357 29 240 q 85 694 29 515 q 235 1001 142 872 q 432 1154 328 1131 m 407 929 q 276 855 335 928 q 183 673 217 782 q 149 460 149 564 q 186 288 149 354 q 299 222 224 222 q 360 232 329 222 q 478 326 424 253 q 565 499 533 400 q 597 692 597 599 q 551 866 597 800 q 407 929 504 932 m 864 1142 q 901 1166 878 1154 q 942 1178 924 1178 q 969 1164 960 1178 q 994 1086 994 1129 q 964 992 994 1038 q 886 915 933 946 q 792 878 839 883 q 754 885 768 875 q 740 913 740 894 q 747 939 740 922 q 778 982 757 961 q 825 1014 800 1003 q 819 1033 824 1024 q 814 1044 814 1043 q 808 1064 808 1051 q 826 1104 808 1083 q 864 1142 843 1125 z "},"Ő":{"ha":833,"x_min":29,"x_max":807,"o":"m 432 1154 q 501 1163 469 1163 q 682 1059 622 1163 q 742 790 742 956 q 681 435 742 618 q 516 132 621 253 q 283 11 411 11 q 167 39 224 11 q 63 157 97 74 q 29 357 29 240 q 85 694 29 515 q 235 1001 142 872 q 432 1154 328 1131 m 407 929 q 276 855 335 928 q 183 673 217 782 q 149 460 149 564 q 186 288 149 354 q 299 222 224 222 q 360 232 329 222 q 478 326 424 253 q 565 499 533 400 q 597 692 597 599 q 551 866 597 800 q 407 929 504 932 m 615 1315 q 569 1232 601 1282 q 553 1208 567 1228 q 525 1172 539 1188 q 497 1144 511 1156 q 451 1119 478 1129 q 399 1110 425 1110 q 382 1111 388 1110 q 353 1124 367 1114 q 340 1147 340 1133 q 346 1164 340 1157 q 378 1204 360 1185 l 403 1238 q 440 1299 408 1244 q 492 1340 457 1325 q 561 1360 526 1356 q 601 1356 583 1363 q 619 1332 619 1349 q 615 1315 619 1326 m 569 1104 q 542 1115 553 1106 q 532 1136 532 1124 q 547 1168 532 1153 q 629 1279 592 1214 q 678 1319 644 1304 q 749 1340 713 1335 q 789 1336 771 1343 q 807 1313 807 1329 q 803 1296 807 1307 q 700 1151 771 1222 q 640 1114 675 1126 q 569 1104 604 1101 z "},"Ō":{"ha":842,"x_min":29,"x_max":832,"o":"m 432 1154 q 501 1163 469 1163 q 682 1059 622 1163 q 742 790 742 956 q 681 435 742 618 q 516 132 621 253 q 283 11 411 11 q 167 39 224 11 q 63 157 97 74 q 29 357 29 240 q 85 694 29 515 q 235 1001 142 872 q 432 1154 328 1131 m 407 929 q 276 855 335 928 q 183 673 217 782 q 149 460 149 564 q 186 288 149 354 q 299 222 224 222 q 360 232 329 222 q 478 326 424 253 q 565 499 533 400 q 597 692 597 599 q 551 866 597 800 q 407 929 504 932 m 326 1121 q 299 1130 308 1122 q 289 1150 289 1138 q 304 1182 289 1164 q 361 1219 325 1207 q 433 1231 397 1231 q 597 1228 539 1228 q 711 1232 654 1228 q 776 1247 746 1247 q 810 1240 796 1247 q 828 1218 824 1232 l 831 1207 q 832 1194 832 1203 q 811 1150 832 1171 q 761 1118 790 1129 q 710 1110 732 1107 q 465 1118 628 1115 q 326 1121 418 1118 z "},"Ṓ":{"ha":833,"x_min":29,"x_max":799,"o":"m 432 1154 q 501 1163 469 1163 q 682 1059 622 1163 q 742 790 742 956 q 681 435 742 618 q 516 132 621 253 q 283 11 411 11 q 167 39 224 11 q 63 157 97 74 q 29 357 29 240 q 85 694 29 515 q 235 1001 142 872 q 432 1154 328 1131 m 407 929 q 276 855 335 928 q 183 673 217 782 q 149 460 149 564 q 186 288 149 354 q 299 222 224 222 q 360 232 329 222 q 478 326 424 253 q 565 499 533 400 q 597 692 597 599 q 551 866 597 800 q 407 929 504 932 m 293 1156 q 265 1165 275 1157 q 256 1185 256 1172 q 271 1217 256 1199 q 328 1253 292 1242 q 400 1265 364 1265 q 564 1263 506 1263 q 678 1267 622 1263 q 743 1282 713 1282 q 776 1274 763 1282 q 794 1253 790 1267 l 797 1242 q 799 1229 799 1238 q 778 1185 799 1206 q 728 1153 757 1164 q 676 1144 699 1142 q 432 1153 594 1150 q 293 1156 385 1153 m 396 1421 q 376 1444 376 1426 q 392 1476 376 1461 q 420 1505 397 1482 q 460 1549 443 1528 q 488 1589 476 1569 q 536 1636 503 1619 q 608 1656 569 1653 q 650 1646 628 1658 q 672 1615 672 1633 q 667 1596 672 1606 q 508 1439 593 1482 q 425 1417 464 1417 q 396 1421 408 1417 z "},"Ṑ":{"ha":833,"x_min":29,"x_max":783,"o":"m 432 1154 q 501 1163 469 1163 q 682 1059 622 1163 q 742 790 742 956 q 681 435 742 618 q 516 132 621 253 q 283 11 411 11 q 167 39 224 11 q 63 157 97 74 q 29 357 29 240 q 85 694 29 515 q 235 1001 142 872 q 432 1154 328 1131 m 407 929 q 276 855 335 928 q 183 673 217 782 q 149 460 149 564 q 186 288 149 354 q 299 222 224 222 q 360 232 329 222 q 478 326 424 253 q 565 499 533 400 q 597 692 597 599 q 551 866 597 800 q 407 929 504 932 m 278 1197 q 250 1206 260 1199 q 240 1226 240 1214 q 256 1258 240 1240 q 313 1295 276 1283 q 385 1307 349 1307 q 549 1304 490 1304 q 663 1308 607 1304 q 728 1324 697 1324 q 761 1316 747 1324 q 779 1294 775 1308 l 782 1283 q 783 1271 783 1279 q 763 1226 783 1247 q 713 1194 742 1206 q 661 1186 683 1183 q 417 1194 579 1192 q 278 1197 369 1194 m 350 1626 q 342 1646 342 1635 q 393 1700 342 1674 q 489 1726 444 1726 q 525 1717 514 1726 l 528 1714 l 533 1708 l 594 1642 q 628 1610 603 1633 q 661 1567 653 1588 q 664 1553 664 1558 q 608 1488 664 1521 q 524 1465 571 1465 q 486 1471 501 1465 q 485 1472 486 1472 q 485 1472 485 1472 q 460 1500 464 1479 q 437 1530 454 1511 q 413 1557 419 1549 l 350 1626 z "},"Ø":{"ha":844,"x_min":24,"x_max":844,"o":"m 432 1154 q 501 1163 469 1163 q 682 1059 622 1163 q 742 790 742 956 q 681 435 742 618 q 516 132 621 253 q 283 11 411 11 q 167 39 224 11 q 63 157 97 74 q 29 357 29 240 q 85 694 29 515 q 235 1001 142 872 q 432 1154 328 1131 m 407 929 q 276 855 335 928 q 183 673 217 782 q 149 460 149 564 q 186 288 149 354 q 299 222 224 222 q 360 232 329 222 q 478 326 424 253 q 565 499 533 400 q 597 692 597 599 q 551 866 597 800 q 407 929 504 932 m 674 985 q 726 1011 686 1000 q 800 1022 765 1022 q 844 1004 844 1022 q 836 988 844 999 q 612 701 726 853 q 478 522 497 549 q 203 160 313 299 q 150 131 189 143 q 75 119 111 119 q 24 144 24 119 q 32 167 24 154 q 303 536 160 357 q 674 985 447 715 z "},"Ǿ":{"ha":844,"x_min":24,"x_max":844,"o":"m 432 1154 q 501 1163 469 1163 q 682 1059 622 1163 q 742 790 742 956 q 681 435 742 618 q 516 132 621 253 q 283 11 411 11 q 167 39 224 11 q 63 157 97 74 q 29 357 29 240 q 85 694 29 515 q 235 1001 142 872 q 432 1154 328 1131 m 407 929 q 276 855 335 928 q 183 673 217 782 q 149 460 149 564 q 186 288 149 354 q 299 222 224 222 q 360 232 329 222 q 478 326 424 253 q 565 499 533 400 q 597 692 597 599 q 551 866 597 800 q 407 929 504 932 m 674 985 q 726 1011 686 1000 q 800 1022 765 1022 q 844 1004 844 1022 q 836 988 844 999 q 612 701 726 853 q 478 522 497 549 q 203 160 313 299 q 150 131 189 143 q 75 119 111 119 q 24 144 24 119 q 32 167 24 154 q 303 536 160 357 q 674 985 447 715 m 424 1207 q 404 1231 404 1213 q 419 1263 404 1247 q 448 1291 425 1268 q 488 1335 471 1314 q 515 1375 504 1356 q 564 1422 531 1406 q 636 1442 597 1439 q 678 1432 656 1444 q 700 1401 700 1419 q 694 1382 700 1392 q 536 1225 621 1268 q 453 1203 492 1203 q 424 1207 436 1203 z "},"Õ":{"ha":833,"x_min":29,"x_max":821,"o":"m 432 1154 q 501 1163 469 1163 q 682 1059 622 1163 q 742 790 742 956 q 681 435 742 618 q 516 132 621 253 q 283 11 411 11 q 167 39 224 11 q 63 157 97 74 q 29 357 29 240 q 85 694 29 515 q 235 1001 142 872 q 432 1154 328 1131 m 407 929 q 276 855 335 928 q 183 673 217 782 q 149 460 149 564 q 186 288 149 354 q 299 222 224 222 q 360 232 329 222 q 478 326 424 253 q 565 499 533 400 q 597 692 597 599 q 551 866 597 800 q 407 929 504 932 m 678 1233 q 712 1290 679 1265 q 776 1315 744 1315 q 808 1304 796 1315 q 819 1269 819 1293 q 789 1172 821 1213 q 710 1111 757 1132 q 621 1090 664 1090 q 603 1092 608 1090 q 494 1122 561 1096 q 450 1138 460 1135 l 400 1150 l 394 1133 q 353 1083 389 1106 q 285 1061 317 1061 q 256 1089 250 1061 q 315 1224 271 1171 q 424 1281 360 1276 q 515 1258 442 1281 q 583 1240 529 1254 q 661 1226 638 1226 q 678 1233 678 1226 z "},"Ṍ":{"ha":833,"x_min":29,"x_max":742,"o":"m 432 1154 q 501 1163 469 1163 q 682 1059 622 1163 q 742 790 742 956 q 681 435 742 618 q 516 132 621 253 q 283 11 411 11 q 167 39 224 11 q 63 157 97 74 q 29 357 29 240 q 85 694 29 515 q 235 1001 142 872 q 432 1154 328 1131 m 407 929 q 276 855 335 928 q 183 673 217 782 q 149 460 149 564 q 186 288 149 354 q 299 222 224 222 q 360 232 329 222 q 478 326 424 253 q 565 499 533 400 q 597 692 597 599 q 551 866 597 800 q 407 929 504 932 m 597 1294 q 631 1351 599 1326 q 696 1376 664 1376 q 727 1365 715 1376 q 739 1331 739 1354 q 708 1233 740 1274 q 630 1172 676 1193 q 540 1151 583 1151 q 522 1153 528 1151 q 414 1183 481 1157 q 369 1199 379 1196 l 319 1211 l 314 1194 q 272 1144 308 1167 q 204 1122 236 1122 q 175 1150 169 1122 q 235 1285 190 1232 q 343 1342 279 1338 q 435 1319 361 1342 q 503 1301 449 1315 q 581 1288 557 1288 q 597 1294 597 1288 m 363 1515 q 343 1539 343 1521 q 358 1571 343 1556 q 387 1599 364 1576 q 426 1643 410 1622 q 454 1683 443 1664 q 503 1731 469 1714 q 575 1750 536 1747 q 617 1740 594 1753 q 639 1710 639 1728 q 633 1690 639 1700 q 475 1533 560 1576 q 392 1511 431 1511 q 363 1515 375 1511 z "},"Ṏ":{"ha":833,"x_min":29,"x_max":826,"o":"m 432 1154 q 501 1163 469 1163 q 682 1059 622 1163 q 742 790 742 956 q 681 435 742 618 q 516 132 621 253 q 283 11 411 11 q 167 39 224 11 q 63 157 97 74 q 29 357 29 240 q 85 694 29 515 q 235 1001 142 872 q 432 1154 328 1131 m 407 929 q 276 855 335 928 q 183 673 217 782 q 149 460 149 564 q 186 288 149 354 q 299 222 224 222 q 360 232 329 222 q 478 326 424 253 q 565 499 533 400 q 597 692 597 599 q 551 866 597 800 q 407 929 504 932 m 683 1296 q 717 1353 685 1328 q 782 1378 750 1378 q 813 1367 801 1378 q 825 1332 825 1356 q 794 1235 826 1275 q 716 1174 763 1194 q 626 1153 669 1153 q 608 1154 614 1153 q 500 1185 567 1158 q 456 1200 465 1197 l 406 1213 l 400 1196 q 358 1146 394 1168 q 290 1124 322 1124 q 261 1151 256 1124 q 321 1286 276 1233 q 429 1343 365 1339 q 521 1321 447 1343 q 589 1303 535 1317 q 667 1289 643 1289 q 683 1296 683 1289 m 369 1540 q 368 1549 368 1543 q 386 1582 368 1560 q 450 1619 406 1603 q 522 1632 492 1636 q 563 1611 554 1629 l 583 1568 q 599 1590 588 1579 q 661 1628 617 1608 q 733 1640 697 1643 q 772 1619 769 1636 l 786 1571 l 788 1563 q 771 1526 788 1549 q 707 1488 750 1504 q 633 1476 668 1472 q 608 1484 621 1478 q 593 1500 594 1490 l 582 1544 q 576 1533 581 1539 q 568 1522 571 1526 q 506 1483 546 1499 q 443 1471 471 1471 q 390 1497 404 1471 l 369 1540 z "},"Œ":{"ha":1631,"x_min":100,"x_max":1442,"o":"m 1390 225 q 1442 174 1442 208 q 1418 127 1442 151 q 1358 88 1394 103 q 1288 72 1321 72 q 1251 78 1267 72 q 1093 106 1171 106 q 874 49 979 106 q 832 34 860 40 q 778 28 804 28 q 726 40 744 28 q 711 82 707 53 q 472 24 597 24 q 290 63 374 24 q 147 189 194 108 q 100 367 100 269 q 140 552 100 460 q 247 713 179 644 q 416 822 318 782 q 614 863 514 863 q 760 836 693 863 q 809 898 765 872 q 899 924 853 924 q 943 911 926 924 q 1016 868 947 910 q 1125 826 1085 826 q 1140 833 1138 826 q 1203 878 1153 858 q 1296 899 1253 899 q 1343 871 1343 899 q 1339 851 1343 863 q 1232 739 1303 775 q 1071 703 1161 703 q 978 711 1024 703 q 974 522 978 617 q 1108 525 1063 525 q 1257 518 1196 525 q 1292 504 1279 517 q 1304 474 1304 492 q 1294 443 1304 460 q 1239 397 1275 414 q 1164 378 1203 381 q 1106 376 1144 376 q 964 382 1058 376 q 946 235 957 299 q 1156 265 1056 265 q 1390 225 1272 265 m 429 201 q 540 168 486 168 q 637 197 593 168 q 706 276 681 225 q 732 388 732 326 q 695 532 731 458 q 600 655 660 606 q 471 708 540 704 q 347 582 396 679 q 310 425 310 503 q 340 298 310 357 q 429 201 369 239 z "},"P":{"ha":774,"x_min":22,"x_max":829,"o":"m 329 678 q 531 854 442 783 q 314 872 458 858 q 329 678 325 767 m 811 1033 q 829 1000 829 1021 q 745 870 829 950 q 507 668 661 790 q 385 569 426 604 q 335 517 344 535 q 325 488 328 504 q 322 452 322 471 q 321 421 322 433 q 299 301 311 353 q 270 211 286 250 q 226 142 254 172 q 185 103 208 121 q 140 86 161 86 q 93 163 93 86 q 98 220 93 188 q 104 263 103 253 l 111 307 q 56 282 81 282 q 31 293 39 282 q 22 324 22 304 q 38 381 22 351 q 82 440 50 406 q 117 485 107 469 q 132 521 128 501 q 143 657 143 592 q 138 750 143 710 q 125 815 133 783 q 117 858 124 822 q 110 924 110 893 q 276 1071 110 1071 q 331 1068 294 1071 q 543 1057 419 1060 l 586 1056 l 688 1057 q 811 1033 775 1057 z "},"Þ":{"ha":833,"x_min":8,"x_max":832,"o":"m 283 775 q 500 826 389 826 q 667 790 592 826 q 787 681 742 754 q 831 497 832 607 q 779 306 829 399 q 646 147 729 214 q 468 51 563 81 q 365 36 415 36 q 290 44 328 36 q 285 -56 288 -22 q 253 -108 283 -83 q 180 -148 222 -133 q 100 -162 138 -162 q 49 -150 68 -162 q 32 -111 31 -137 q 49 350 49 121 q 11 1024 49 689 q 39 1081 8 1054 q 116 1124 69 1107 q 200 1140 163 1140 q 253 1113 249 1140 q 283 775 272 956 m 517 269 q 574 440 574 349 q 569 488 574 465 q 525 597 560 547 q 438 668 490 647 q 399 676 414 676 q 355 656 371 676 q 321 590 339 635 q 294 561 315 578 l 299 369 q 342 353 326 367 q 358 315 358 340 q 381 245 360 269 q 432 221 401 221 q 477 233 454 221 q 517 269 500 246 z "},"Q":{"ha":939,"x_min":6,"x_max":924,"o":"m 719 436 q 743 576 743 510 q 663 782 743 703 q 546 858 614 831 q 406 885 478 885 q 311 872 357 885 q 367 764 328 813 q 472 650 406 715 q 719 436 558 567 m 363 282 q 442 268 399 268 q 569 296 503 268 l 513 344 q 353 485 417 425 q 239 622 290 546 q 172 779 188 697 q 136 631 136 711 q 165 485 136 557 q 246 360 194 414 q 363 282 297 306 m 847 343 q 906 296 888 314 q 924 249 924 278 q 891 172 924 210 q 819 135 858 135 q 778 144 796 135 q 736 174 760 154 q 688 206 706 199 q 671 208 676 208 q 638 199 656 208 q 594 172 621 190 q 549 144 557 149 q 369 101 458 101 q 168 168 257 101 q 36 351 79 235 q 6 521 6 433 q 59 749 6 639 q 211 943 113 858 q 344 1030 281 1001 q 485 1058 408 1058 q 661 1022 575 1058 q 803 922 747 986 q 886 683 886 825 q 882 621 886 653 q 835 440 871 519 q 820 408 826 422 q 814 385 814 393 q 821 366 814 375 q 847 343 828 357 z "},"R":{"ha":710,"x_min":26,"x_max":685,"o":"m 256 725 q 254 697 254 715 q 257 640 254 676 q 260 582 260 601 q 297 603 269 589 q 389 661 356 633 q 422 724 422 689 q 421 735 422 731 q 392 789 415 765 q 346 824 368 813 q 272 863 324 836 q 256 725 263 794 m 424 700 l 428 707 l 424 700 m 428 710 l 428 710 l 428 710 m 429 725 l 431 717 l 429 725 m 632 539 q 647 542 643 542 q 685 460 685 542 q 678 378 685 417 q 672 335 672 339 q 646 210 663 264 q 596 110 629 156 q 508 50 551 50 q 424 90 472 50 l 288 203 l 225 256 q 195 174 218 225 q 140 84 172 124 q 74 44 108 44 q 54 49 65 44 q 26 125 26 60 q 47 278 26 186 l 54 321 q 64 390 56 335 q 76 493 72 446 q 81 581 81 540 q 78 647 81 625 q 68 713 72 693 q 54 850 54 801 q 71 950 54 907 q 152 1058 99 1024 q 272 1092 206 1092 q 432 1051 351 1092 q 557 951 513 1010 q 596 836 596 901 q 555 697 596 768 q 452 565 514 626 q 325 465 390 504 q 429 382 379 425 q 517 313 488 335 q 632 539 517 500 z "},"Ŕ":{"ha":678,"x_min":26,"x_max":685,"o":"m 256 725 q 254 697 254 715 q 257 640 254 676 q 260 582 260 601 q 297 603 269 589 q 389 661 356 633 q 422 724 422 689 q 421 735 422 731 q 392 789 415 765 q 346 824 368 813 q 272 863 324 836 q 256 725 263 794 m 424 700 l 428 707 l 424 700 m 428 710 l 428 710 l 428 710 m 429 725 l 431 717 l 429 725 m 632 539 q 647 542 643 542 q 685 460 685 542 q 678 378 685 417 q 672 335 672 339 q 646 210 663 264 q 596 110 629 156 q 508 50 551 50 q 424 90 472 50 l 288 203 l 225 256 q 195 174 218 225 q 140 84 172 124 q 74 44 108 44 q 54 49 65 44 q 26 125 26 60 q 47 278 26 186 l 54 321 q 64 390 56 335 q 76 493 72 446 q 81 581 81 540 q 78 647 81 625 q 68 713 72 693 q 54 850 54 801 q 71 950 54 907 q 152 1058 99 1024 q 272 1092 206 1092 q 432 1051 351 1092 q 557 951 513 1010 q 596 836 596 901 q 555 697 596 768 q 452 565 514 626 q 325 465 390 504 q 429 382 379 425 q 517 313 488 335 q 632 539 517 500 m 157 1133 q 138 1157 138 1139 q 153 1189 138 1174 q 181 1217 158 1194 q 221 1261 204 1240 q 249 1301 238 1282 q 297 1349 264 1332 q 369 1368 331 1365 q 411 1358 389 1371 q 433 1328 433 1346 q 428 1308 433 1318 q 269 1151 354 1194 q 186 1129 225 1129 q 157 1133 169 1129 z "},"Ř":{"ha":678,"x_min":26,"x_max":685,"o":"m 256 725 q 254 697 254 715 q 257 640 254 676 q 260 582 260 601 q 297 603 269 589 q 389 661 356 633 q 422 724 422 689 q 421 735 422 731 q 392 789 415 765 q 346 824 368 813 q 272 863 324 836 q 256 725 263 794 m 424 700 l 428 707 l 424 700 m 428 710 l 428 710 l 428 710 m 429 725 l 431 717 l 429 725 m 632 539 q 647 542 643 542 q 685 460 685 542 q 678 378 685 417 q 672 335 672 339 q 646 210 663 264 q 596 110 629 156 q 508 50 551 50 q 424 90 472 50 l 288 203 l 225 256 q 195 174 218 225 q 140 84 172 124 q 74 44 108 44 q 54 49 65 44 q 26 125 26 60 q 47 278 26 186 l 54 321 q 64 390 56 335 q 76 493 72 446 q 81 581 81 540 q 78 647 81 625 q 68 713 72 693 q 54 850 54 801 q 71 950 54 907 q 152 1058 99 1024 q 272 1092 206 1092 q 432 1051 351 1092 q 557 951 513 1010 q 596 836 596 901 q 555 697 596 768 q 452 565 514 626 q 325 465 390 504 q 429 382 379 425 q 517 313 488 335 q 632 539 517 500 m 119 1294 q 110 1311 110 1300 q 130 1344 110 1326 q 167 1369 150 1361 q 251 1394 211 1394 q 292 1383 276 1394 q 353 1332 325 1361 q 492 1374 424 1375 q 538 1361 521 1374 q 556 1331 556 1349 q 526 1281 556 1304 q 479 1247 508 1265 q 437 1218 454 1232 q 406 1183 419 1204 q 357 1147 390 1163 q 290 1131 324 1131 q 226 1167 242 1131 q 119 1294 196 1243 z "},"S":{"ha":865,"x_min":-6,"x_max":842,"o":"m 751 311 q 784 275 758 303 q 826 219 810 247 q 842 164 842 190 q 817 101 842 131 q 742 64 786 64 q 699 69 722 64 q 668 76 675 75 q 413 99 558 99 q 174 88 300 99 q 142 85 163 86 q 104 83 121 83 q 24 99 54 83 q -6 158 -6 115 q 4 212 -6 183 q 33 281 14 240 l 46 310 q 92 388 67 361 q 163 415 117 415 q 222 391 200 415 q 243 331 243 367 q 231 281 243 306 q 429 286 318 286 q 528 285 494 286 q 338 528 400 446 l 242 649 q 204 692 219 676 q 126 794 153 751 q 100 881 100 836 q 130 948 100 922 q 201 987 160 974 q 304 1013 242 1000 l 363 1025 q 589 1075 472 1053 q 628 1082 599 1076 q 711 1094 675 1094 q 781 1069 757 1094 q 806 1015 806 1043 q 790 963 806 989 q 739 893 774 936 q 686 819 697 843 q 648 754 668 781 q 603 728 628 728 q 567 742 585 728 q 547 783 547 757 q 556 824 547 803 q 574 864 565 846 q 586 886 583 882 q 376 838 515 874 q 308 819 360 832 l 475 628 q 751 311 689 385 z "},"Ś":{"ha":842,"x_min":-6,"x_max":842,"o":"m 751 311 q 784 275 758 303 q 826 219 810 247 q 842 164 842 190 q 817 101 842 131 q 742 64 786 64 q 699 69 722 64 q 668 76 675 75 q 413 99 558 99 q 174 88 300 99 q 142 85 163 86 q 104 83 121 83 q 24 99 54 83 q -6 158 -6 115 q 4 212 -6 183 q 33 281 14 240 l 46 310 q 92 388 67 361 q 163 415 117 415 q 222 391 200 415 q 243 331 243 367 q 231 281 243 306 q 429 286 318 286 q 528 285 494 286 q 338 528 400 446 l 242 649 q 204 692 219 676 q 126 794 153 751 q 100 881 100 836 q 130 948 100 922 q 201 987 160 974 q 304 1013 242 1000 l 363 1025 q 589 1075 472 1053 q 628 1082 599 1076 q 711 1094 675 1094 q 781 1069 757 1094 q 806 1015 806 1043 q 790 963 806 989 q 739 893 774 936 q 686 819 697 843 q 648 754 668 781 q 603 728 628 728 q 567 742 585 728 q 547 783 547 757 q 556 824 547 803 q 574 864 565 846 q 586 886 583 882 q 376 838 515 874 q 308 819 360 832 l 475 628 q 751 311 689 385 m 271 1057 q 251 1081 251 1063 q 267 1113 251 1097 q 295 1141 272 1118 q 335 1185 318 1164 q 363 1225 351 1206 q 411 1272 378 1256 q 483 1292 444 1289 q 525 1282 503 1294 q 547 1251 547 1269 q 542 1232 547 1242 q 383 1075 468 1118 q 300 1053 339 1053 q 271 1057 283 1053 z "},"Š":{"ha":842,"x_min":-6,"x_max":842,"o":"m 751 311 q 784 275 758 303 q 826 219 810 247 q 842 164 842 190 q 817 101 842 131 q 742 64 786 64 q 699 69 722 64 q 668 76 675 75 q 413 99 558 99 q 174 88 300 99 q 142 85 163 86 q 104 83 121 83 q 24 99 54 83 q -6 158 -6 115 q 4 212 -6 183 q 33 281 14 240 l 46 310 q 92 388 67 361 q 163 415 117 415 q 222 391 200 415 q 243 331 243 367 q 231 281 243 306 q 429 286 318 286 q 528 285 494 286 q 338 528 400 446 l 242 649 q 204 692 219 676 q 126 794 153 751 q 100 881 100 836 q 130 948 100 922 q 201 987 160 974 q 304 1013 242 1000 l 363 1025 q 589 1075 472 1053 q 628 1082 599 1076 q 711 1094 675 1094 q 781 1069 757 1094 q 806 1015 806 1043 q 790 963 806 989 q 739 893 774 936 q 686 819 697 843 q 648 754 668 781 q 603 728 628 728 q 567 742 585 728 q 547 783 547 757 q 556 824 547 803 q 574 864 565 846 q 586 886 583 882 q 376 838 515 874 q 308 819 360 832 l 475 628 q 751 311 689 385 m 283 1235 q 274 1251 274 1240 q 294 1284 274 1267 q 331 1310 314 1301 q 415 1335 375 1335 q 456 1324 440 1335 q 517 1272 489 1301 q 656 1314 588 1315 q 702 1301 685 1314 q 719 1271 719 1289 q 690 1221 719 1244 q 643 1188 672 1206 q 601 1158 618 1172 q 569 1124 583 1144 q 521 1087 554 1103 q 454 1071 488 1071 q 390 1107 406 1071 q 283 1235 360 1183 z "},"Ş":{"ha":833,"x_min":-6,"x_max":842,"o":"m 751 311 q 784 275 758 303 q 826 219 810 247 q 842 164 842 190 q 817 101 842 131 q 742 64 786 64 q 699 69 722 64 q 668 76 675 75 q 413 99 558 99 q 174 88 300 99 q 142 85 163 86 q 104 83 121 83 q 24 99 54 83 q -6 158 -6 115 q 4 212 -6 183 q 33 281 14 240 l 46 310 q 92 388 67 361 q 163 415 117 415 q 222 391 200 415 q 243 331 243 367 q 231 281 243 306 q 429 286 318 286 q 528 285 494 286 q 338 528 400 446 l 242 649 q 204 692 219 676 q 126 794 153 751 q 100 881 100 836 q 130 948 100 922 q 201 987 160 974 q 304 1013 242 1000 l 363 1025 q 589 1075 472 1053 q 628 1082 599 1076 q 711 1094 675 1094 q 781 1069 757 1094 q 806 1015 806 1043 q 790 963 806 989 q 739 893 774 936 q 686 819 697 843 q 648 754 668 781 q 603 728 628 728 q 567 742 585 728 q 547 783 547 757 q 556 824 547 803 q 574 864 565 846 q 586 886 583 882 q 376 838 515 874 q 308 819 360 832 l 475 628 q 751 311 689 385 m 396 -289 q 332 -296 361 -296 q 283 -292 308 -296 q 238 -278 256 -286 l 204 -260 l 219 -268 q 194 -231 194 -254 q 203 -202 194 -217 q 224 -176 211 -187 q 268 -150 243 -160 q 318 -140 293 -140 q 360 -149 342 -140 q 379 -153 371 -153 q 403 -142 394 -153 q 411 -115 411 -131 q 396 -78 411 -94 q 354 -65 381 -62 q 294 -58 324 -69 q 265 -24 265 -47 q 281 11 265 -8 q 304 51 293 26 q 324 99 315 76 q 363 143 335 125 q 424 169 390 161 q 457 172 435 172 q 507 140 518 172 q 475 60 497 113 q 568 13 533 50 q 601 -71 601 -22 q 574 -161 601 -112 q 498 -242 544 -208 q 396 -289 451 -275 z "},"Ŝ":{"ha":833,"x_min":-6,"x_max":842,"o":"m 751 311 q 784 275 758 303 q 826 219 810 247 q 842 164 842 190 q 817 101 842 131 q 742 64 786 64 q 699 69 722 64 q 668 76 675 75 q 413 99 558 99 q 174 88 300 99 q 142 85 163 86 q 104 83 121 83 q 24 99 54 83 q -6 158 -6 115 q 4 212 -6 183 q 33 281 14 240 l 46 310 q 92 388 67 361 q 163 415 117 415 q 222 391 200 415 q 243 331 243 367 q 231 281 243 306 q 429 286 318 286 q 528 285 494 286 q 338 528 400 446 l 242 649 q 204 692 219 676 q 126 794 153 751 q 100 881 100 836 q 130 948 100 922 q 201 987 160 974 q 304 1013 242 1000 l 363 1025 q 589 1075 472 1053 q 628 1082 599 1076 q 711 1094 675 1094 q 781 1069 757 1094 q 806 1015 806 1043 q 790 963 806 989 q 739 893 774 936 q 686 819 697 843 q 648 754 668 781 q 603 728 628 728 q 567 742 585 728 q 547 783 547 757 q 556 824 547 803 q 574 864 565 846 q 586 886 583 882 q 376 838 515 874 q 308 819 360 832 l 475 628 q 751 311 689 385 m 549 1419 q 604 1362 572 1383 q 668 1324 636 1340 q 710 1304 700 1308 q 733 1272 733 1293 q 724 1245 733 1260 q 703 1221 715 1231 q 659 1197 685 1206 q 608 1188 633 1188 q 571 1193 586 1188 q 472 1239 517 1213 q 447 1261 465 1243 q 368 1200 407 1225 q 265 1164 311 1164 q 236 1169 247 1164 q 215 1196 215 1179 q 224 1219 215 1207 q 247 1240 233 1232 q 375 1369 338 1304 q 429 1417 389 1393 q 504 1440 469 1440 q 549 1419 535 1440 z "},"ẞ":{"ha":842,"x_min":14,"x_max":828,"o":"m 750 821 q 658 649 736 725 q 781 557 735 614 q 828 424 828 500 q 819 360 828 393 q 730 216 799 274 q 569 131 661 158 q 382 104 476 104 q 310 108 346 104 q 288 113 299 108 q 289 103 289 110 q 259 45 292 72 q 178 1 226 18 q 92 -15 129 -15 q 40 11 42 -15 q 33 86 39 32 q 23 213 32 104 q 14 426 14 322 q 108 888 14 707 q 447 1090 201 1069 q 476 1092 457 1092 q 613 1063 549 1092 q 715 982 676 1035 q 753 857 753 929 q 750 821 753 846 m 386 275 q 477 288 442 281 q 541 315 513 294 q 569 372 569 335 q 561 413 569 390 q 490 491 542 467 q 372 518 439 515 q 309 535 329 519 q 289 574 289 550 q 328 650 289 611 q 415 694 368 689 q 480 728 457 700 q 506 800 503 756 q 493 865 510 835 q 346 900 383 890 q 292 815 308 882 q 268 668 276 749 q 263 526 263 606 q 281 207 263 403 q 333 252 303 232 q 386 275 364 272 z "},"Ə":{"ha":821,"x_min":0,"x_max":821,"o":"m 778 451 q 810 440 800 450 q 821 413 821 429 q 813 381 821 397 q 778 344 803 360 q 722 322 753 329 q 562 101 668 192 q 324 1 456 10 l 299 0 q 93 104 163 0 q 11 360 24 208 q 33 406 10 386 q 90 438 57 426 q 146 450 122 449 q 496 461 332 461 l 547 461 q 503 628 547 550 q 447 697 485 658 q 364 762 410 735 q 278 789 318 789 q 200 744 229 789 q 142 696 181 715 q 68 675 104 676 q 22 683 44 675 q 0 710 0 692 q 7 729 0 721 q 150 865 67 821 q 328 910 233 910 q 535 856 435 910 q 697 708 635 803 q 758 497 758 613 q 756 453 758 483 l 778 451 m 397 149 q 470 208 439 163 q 524 315 501 254 q 233 313 428 315 q 367 143 282 143 q 397 149 382 143 z "},"T":{"ha":636,"x_min":-54,"x_max":789,"o":"m 758 1128 q 789 1097 789 1126 q 774 1043 789 1074 q 743 994 758 1013 q 676 946 714 958 q 590 933 639 933 q 538 936 574 933 q 471 938 493 939 q 445 938 460 938 q 426 932 431 938 q 414 907 421 926 q 409 871 410 893 q 408 839 408 849 l 399 685 q 393 544 394 604 q 390 443 392 483 q 389 363 390 389 q 404 365 400 365 q 435 318 435 365 q 424 247 435 285 q 399 164 414 210 q 363 101 390 140 q 303 32 336 61 q 244 3 269 3 q 201 53 213 3 q 190 169 190 101 q 206 363 190 246 l 215 463 q 267 904 236 733 q 222 890 258 901 q 154 863 185 878 q 107 831 124 847 q 75 781 89 811 q 44 733 57 750 q 6 707 31 717 q -25 700 -10 700 q -54 736 -54 700 q -43 792 -54 760 q -19 843 -32 824 q 267 1063 74 996 q 675 1131 460 1131 q 758 1128 706 1131 z "},"Ŧ":{"ha":636,"x_min":-54,"x_max":789,"o":"m 758 1128 q 789 1097 789 1126 q 774 1043 789 1074 q 743 994 758 1013 q 676 946 714 958 q 590 933 639 933 q 538 936 574 933 q 471 938 493 939 q 445 938 460 938 q 426 932 431 938 q 414 907 421 926 q 409 871 410 893 q 408 839 408 849 l 399 685 q 393 544 394 604 q 390 443 392 483 q 389 363 390 389 q 404 365 400 365 q 435 318 435 365 q 424 247 435 285 q 399 164 414 210 q 363 101 390 140 q 303 32 336 61 q 244 3 269 3 q 201 53 213 3 q 190 169 190 101 q 206 363 190 246 l 215 463 q 267 904 236 733 q 222 890 258 901 q 154 863 185 878 q 107 831 124 847 q 75 781 89 811 q 44 733 57 750 q 6 707 31 717 q -25 700 -10 700 q -54 736 -54 700 q -43 792 -54 760 q -19 843 -32 824 q 267 1063 74 996 q 675 1131 460 1131 q 758 1128 706 1131 m 51 526 q 17 550 17 532 q 43 586 17 565 q 103 620 69 607 q 157 631 136 633 q 319 618 240 618 q 513 635 415 618 q 550 639 542 639 q 594 607 593 639 q 560 563 596 582 q 494 538 525 543 q 250 510 382 510 q 51 526 150 510 z "},"Ť":{"ha":789,"x_min":-54,"x_max":789,"o":"m 758 1128 q 789 1097 789 1126 q 774 1043 789 1074 q 743 994 758 1013 q 676 946 714 958 q 590 933 639 933 q 538 936 574 933 q 471 938 493 939 q 445 938 460 938 q 426 932 431 938 q 414 907 421 926 q 409 871 410 893 q 408 839 408 849 l 399 685 q 393 544 394 604 q 390 443 392 483 q 389 363 390 389 q 404 365 400 365 q 435 318 435 365 q 424 247 435 285 q 399 164 414 210 q 363 101 390 140 q 303 32 336 61 q 244 3 269 3 q 201 53 213 3 q 190 169 190 101 q 206 363 190 246 l 215 463 q 267 904 236 733 q 222 890 258 901 q 154 863 185 878 q 107 831 124 847 q 75 781 89 811 q 44 733 57 750 q 6 707 31 717 q -25 700 -10 700 q -54 736 -54 700 q -43 792 -54 760 q -19 843 -32 824 q 267 1063 74 996 q 675 1131 460 1131 q 758 1128 706 1131 m 186 1363 q 176 1379 176 1368 q 197 1412 176 1394 q 233 1438 217 1429 q 318 1463 278 1463 q 358 1451 343 1463 q 419 1400 392 1429 q 558 1442 490 1443 q 605 1429 588 1442 q 622 1399 622 1417 q 593 1349 622 1372 q 546 1315 575 1333 q 503 1286 521 1300 q 472 1251 486 1272 q 424 1215 457 1231 q 357 1199 390 1199 q 293 1235 308 1199 q 186 1363 263 1311 z "},"U":{"ha":701,"x_min":15,"x_max":674,"o":"m 164 199 l 160 189 l 164 199 m 633 921 q 644 847 636 897 q 667 678 660 742 q 674 550 674 615 q 657 382 674 465 q 547 186 626 251 q 476 146 515 160 q 376 118 438 132 q 333 108 350 113 q 301 99 315 104 q 276 92 288 94 q 167 64 206 72 q 92 56 129 56 q 33 71 50 56 q 15 114 15 86 q 29 182 15 140 q 61 281 36 204 q 131 512 106 415 q 167 707 157 608 q 114 679 138 679 q 81 698 94 679 q 60 747 67 717 q 56 789 56 768 q 86 925 56 846 q 152 1041 107 979 q 239 1103 197 1103 q 294 1063 271 1103 q 326 910 326 1008 q 319 799 326 853 q 294 654 311 744 q 179 240 261 476 q 252 249 215 242 q 346 274 289 257 l 381 283 q 418 292 390 286 q 483 307 457 299 q 519 328 510 315 q 531 385 531 343 q 524 469 531 407 q 519 504 519 490 q 496 694 515 571 q 485 750 494 707 q 465 888 465 839 q 503 1007 465 963 q 568 1051 539 1051 q 633 921 617 1051 z "},"Ú":{"ha":674,"x_min":15,"x_max":674,"o":"m 164 199 l 160 189 l 164 199 m 633 921 q 644 847 636 897 q 667 678 660 742 q 674 550 674 615 q 657 382 674 465 q 547 186 626 251 q 476 146 515 160 q 376 118 438 132 q 333 108 350 113 q 301 99 315 104 q 276 92 288 94 q 167 64 206 72 q 92 56 129 56 q 33 71 50 56 q 15 114 15 86 q 29 182 15 140 q 61 281 36 204 q 131 512 106 415 q 167 707 157 608 q 114 679 138 679 q 81 698 94 679 q 60 747 67 717 q 56 789 56 768 q 86 925 56 846 q 152 1041 107 979 q 239 1103 197 1103 q 294 1063 271 1103 q 326 910 326 1008 q 319 799 326 853 q 294 654 311 744 q 179 240 261 476 q 252 249 215 242 q 346 274 289 257 l 381 283 q 418 292 390 286 q 483 307 457 299 q 519 328 510 315 q 531 385 531 343 q 524 469 531 407 q 519 504 519 490 q 496 694 515 571 q 485 750 494 707 q 465 888 465 839 q 503 1007 465 963 q 568 1051 539 1051 q 633 921 617 1051 m 351 1164 q 332 1188 332 1169 q 347 1219 332 1204 q 376 1248 353 1225 q 415 1292 399 1271 q 443 1332 432 1313 q 492 1379 458 1363 q 564 1399 525 1396 q 606 1389 583 1401 q 628 1358 628 1376 q 622 1339 628 1349 q 464 1182 549 1225 q 381 1160 419 1160 q 351 1164 364 1160 z "},"Ŭ":{"ha":681,"x_min":15,"x_max":674,"o":"m 164 199 l 160 189 l 164 199 m 633 921 q 644 847 636 897 q 667 678 660 742 q 674 550 674 615 q 657 382 674 465 q 547 186 626 251 q 476 146 515 160 q 376 118 438 132 q 333 108 350 113 q 301 99 315 104 q 276 92 288 94 q 167 64 206 72 q 92 56 129 56 q 33 71 50 56 q 15 114 15 86 q 29 182 15 140 q 61 281 36 204 q 131 512 106 415 q 167 707 157 608 q 114 679 138 679 q 81 698 94 679 q 60 747 67 717 q 56 789 56 768 q 86 925 56 846 q 152 1041 107 979 q 239 1103 197 1103 q 294 1063 271 1103 q 326 910 326 1008 q 319 799 326 853 q 294 654 311 744 q 179 240 261 476 q 252 249 215 242 q 346 274 289 257 l 381 283 q 418 292 390 286 q 483 307 457 299 q 519 328 510 315 q 531 385 531 343 q 524 469 531 407 q 519 504 519 490 q 496 694 515 571 q 485 750 494 707 q 465 888 465 839 q 503 1007 465 963 q 568 1051 539 1051 q 633 921 617 1051 m 444 1276 q 490 1336 446 1310 q 581 1363 535 1363 q 625 1351 608 1363 q 642 1317 642 1340 q 603 1219 642 1261 q 508 1155 565 1178 q 399 1128 451 1132 q 258 1163 317 1122 q 164 1279 199 1203 q 177 1320 156 1299 q 235 1356 199 1342 q 303 1371 272 1371 q 350 1349 340 1371 q 383 1292 365 1315 q 425 1254 400 1268 q 431 1253 426 1254 q 440 1250 435 1251 q 444 1276 446 1263 z "},"Û":{"ha":701,"x_min":15,"x_max":674,"o":"m 164 199 l 160 189 l 164 199 m 633 921 q 644 847 636 897 q 667 678 660 742 q 674 550 674 615 q 657 382 674 465 q 547 186 626 251 q 476 146 515 160 q 376 118 438 132 q 333 108 350 113 q 301 99 315 104 q 276 92 288 94 q 167 64 206 72 q 92 56 129 56 q 33 71 50 56 q 15 114 15 86 q 29 182 15 140 q 61 281 36 204 q 131 512 106 415 q 167 707 157 608 q 114 679 138 679 q 81 698 94 679 q 60 747 67 717 q 56 789 56 768 q 86 925 56 846 q 152 1041 107 979 q 239 1103 197 1103 q 294 1063 271 1103 q 326 910 326 1008 q 319 799 326 853 q 294 654 311 744 q 179 240 261 476 q 252 249 215 242 q 346 274 289 257 l 381 283 q 418 292 390 286 q 483 307 457 299 q 519 328 510 315 q 531 385 531 343 q 524 469 531 407 q 519 504 519 490 q 496 694 515 571 q 485 750 494 707 q 465 888 465 839 q 503 1007 465 963 q 568 1051 539 1051 q 633 921 617 1051 m 474 1381 q 529 1323 497 1344 q 593 1285 561 1301 q 635 1265 625 1269 q 658 1233 658 1254 q 649 1206 658 1221 q 628 1182 640 1192 q 584 1158 610 1167 q 533 1149 558 1149 q 496 1154 511 1149 q 397 1200 442 1174 q 372 1222 390 1204 q 293 1161 332 1186 q 190 1125 236 1125 q 161 1131 172 1125 q 140 1157 140 1140 q 149 1181 140 1168 q 172 1201 158 1193 q 300 1331 263 1265 q 354 1378 314 1354 q 429 1401 394 1401 q 474 1381 460 1401 z "},"Ü":{"ha":701,"x_min":15,"x_max":674,"o":"m 164 199 l 160 189 l 164 199 m 633 921 q 644 847 636 897 q 667 678 660 742 q 674 550 674 615 q 657 382 674 465 q 547 186 626 251 q 476 146 515 160 q 376 118 438 132 q 333 108 350 113 q 301 99 315 104 q 276 92 288 94 q 167 64 206 72 q 92 56 129 56 q 33 71 50 56 q 15 114 15 86 q 29 182 15 140 q 61 281 36 204 q 131 512 106 415 q 167 707 157 608 q 114 679 138 679 q 81 698 94 679 q 60 747 67 717 q 56 789 56 768 q 86 925 56 846 q 152 1041 107 979 q 239 1103 197 1103 q 294 1063 271 1103 q 326 910 326 1008 q 319 799 326 853 q 294 654 311 744 q 179 240 261 476 q 252 249 215 242 q 346 274 289 257 l 381 283 q 418 292 390 286 q 483 307 457 299 q 519 328 510 315 q 531 385 531 343 q 524 469 531 407 q 519 504 519 490 q 496 694 515 571 q 485 750 494 707 q 465 888 465 839 q 503 1007 465 963 q 568 1051 539 1051 q 633 921 617 1051 m 193 1219 q 192 1228 192 1222 q 210 1261 192 1239 q 274 1299 229 1282 q 346 1311 315 1315 q 386 1290 378 1308 l 407 1247 q 422 1269 411 1258 q 485 1307 440 1288 q 557 1319 521 1322 q 596 1299 593 1315 l 610 1250 l 611 1242 q 594 1206 611 1228 q 531 1167 574 1183 q 457 1156 492 1151 q 431 1163 444 1157 q 417 1179 418 1169 l 406 1224 q 399 1212 404 1218 q 392 1201 394 1206 q 329 1163 369 1178 q 267 1150 294 1150 q 214 1176 228 1150 l 193 1219 z "},"Ù":{"ha":681,"x_min":15,"x_max":674,"o":"m 164 199 l 160 189 l 164 199 m 633 921 q 644 847 636 897 q 667 678 660 742 q 674 550 674 615 q 657 382 674 465 q 547 186 626 251 q 476 146 515 160 q 376 118 438 132 q 333 108 350 113 q 301 99 315 104 q 276 92 288 94 q 167 64 206 72 q 92 56 129 56 q 33 71 50 56 q 15 114 15 86 q 29 182 15 140 q 61 281 36 204 q 131 512 106 415 q 167 707 157 608 q 114 679 138 679 q 81 698 94 679 q 60 747 67 717 q 56 789 56 768 q 86 925 56 846 q 152 1041 107 979 q 239 1103 197 1103 q 294 1063 271 1103 q 326 910 326 1008 q 319 799 326 853 q 294 654 311 744 q 179 240 261 476 q 252 249 215 242 q 346 274 289 257 l 381 283 q 418 292 390 286 q 483 307 457 299 q 519 328 510 315 q 531 385 531 343 q 524 469 531 407 q 519 504 519 490 q 496 694 515 571 q 485 750 494 707 q 465 888 465 839 q 503 1007 465 963 q 568 1051 539 1051 q 633 921 617 1051 m 254 1308 q 246 1328 246 1317 q 297 1382 246 1356 q 393 1408 349 1408 q 429 1399 418 1408 l 432 1396 l 438 1390 l 499 1324 q 532 1292 507 1315 q 565 1249 557 1269 q 568 1235 568 1240 q 513 1169 568 1203 q 428 1147 475 1147 q 390 1153 406 1147 q 390 1154 390 1154 q 389 1154 389 1154 q 364 1182 368 1161 q 341 1212 358 1193 q 317 1239 324 1231 l 254 1308 z "},"Ư":{"ha":833,"x_min":15,"x_max":836,"o":"m 164 199 l 160 189 l 164 199 m 633 921 q 644 847 636 897 q 667 678 660 742 q 674 550 674 615 q 657 382 674 465 q 547 186 626 251 q 476 146 515 160 q 376 118 438 132 q 333 108 350 113 q 301 99 315 104 q 276 92 288 94 q 167 64 206 72 q 92 56 129 56 q 33 71 50 56 q 15 114 15 86 q 29 182 15 140 q 61 281 36 204 q 131 512 106 415 q 167 707 157 608 q 114 679 138 679 q 81 698 94 679 q 60 747 67 717 q 56 789 56 768 q 86 925 56 846 q 152 1041 107 979 q 239 1103 197 1103 q 294 1063 271 1103 q 326 910 326 1008 q 319 799 326 853 q 294 654 311 744 q 179 240 261 476 q 252 249 215 242 q 346 274 289 257 l 381 283 q 418 292 390 286 q 483 307 457 299 q 519 328 510 315 q 531 385 531 343 q 524 469 531 407 q 519 504 519 490 q 496 694 515 571 q 485 750 494 707 q 465 888 465 839 q 503 1007 465 963 q 568 1051 539 1051 q 633 921 617 1051 m 706 1125 q 742 1149 719 1138 q 783 1161 765 1161 q 811 1147 801 1161 q 836 1069 836 1113 q 806 975 836 1021 q 728 898 775 929 q 633 861 681 867 q 596 868 610 858 q 582 896 582 878 q 589 922 582 906 q 620 965 599 944 q 667 997 642 986 q 660 1017 665 1007 q 656 1028 656 1026 q 650 1047 650 1035 q 667 1088 650 1067 q 706 1125 685 1108 z "},"Ű":{"ha":681,"x_min":15,"x_max":674,"o":"m 164 199 l 160 189 l 164 199 m 633 921 q 644 847 636 897 q 667 678 660 742 q 674 550 674 615 q 657 382 674 465 q 547 186 626 251 q 476 146 515 160 q 376 118 438 132 q 333 108 350 113 q 301 99 315 104 q 276 92 288 94 q 167 64 206 72 q 92 56 129 56 q 33 71 50 56 q 15 114 15 86 q 29 182 15 140 q 61 281 36 204 q 131 512 106 415 q 167 707 157 608 q 114 679 138 679 q 81 698 94 679 q 60 747 67 717 q 56 789 56 768 q 86 925 56 846 q 152 1041 107 979 q 239 1103 197 1103 q 294 1063 271 1103 q 326 910 326 1008 q 319 799 326 853 q 294 654 311 744 q 179 240 261 476 q 252 249 215 242 q 346 274 289 257 l 381 283 q 418 292 390 286 q 483 307 457 299 q 519 328 510 315 q 531 385 531 343 q 524 469 531 407 q 519 504 519 490 q 496 694 515 571 q 485 750 494 707 q 465 888 465 839 q 503 1007 465 963 q 568 1051 539 1051 q 633 921 617 1051 m 458 1399 q 413 1315 444 1365 q 396 1291 410 1311 q 368 1255 382 1271 q 340 1228 354 1239 q 294 1203 321 1213 q 242 1193 268 1193 q 225 1194 231 1193 q 197 1207 210 1197 q 183 1231 183 1217 q 189 1247 183 1240 q 221 1288 203 1268 l 246 1321 q 283 1382 251 1328 q 335 1424 300 1408 q 404 1443 369 1439 q 444 1439 426 1446 q 463 1415 463 1432 q 458 1399 463 1410 m 413 1188 q 385 1198 396 1189 q 375 1219 375 1207 q 390 1251 375 1236 q 472 1363 435 1297 q 522 1403 488 1388 q 592 1424 556 1418 q 632 1419 614 1426 q 650 1396 650 1413 q 646 1379 650 1390 q 543 1235 614 1306 q 483 1197 518 1210 q 413 1188 447 1185 z "},"Ū":{"ha":701,"x_min":15,"x_max":694,"o":"m 164 199 l 160 189 l 164 199 m 633 921 q 644 847 636 897 q 667 678 660 742 q 674 550 674 615 q 657 382 674 465 q 547 186 626 251 q 476 146 515 160 q 376 118 438 132 q 333 108 350 113 q 301 99 315 104 q 276 92 288 94 q 167 64 206 72 q 92 56 129 56 q 33 71 50 56 q 15 114 15 86 q 29 182 15 140 q 61 281 36 204 q 131 512 106 415 q 167 707 157 608 q 114 679 138 679 q 81 698 94 679 q 60 747 67 717 q 56 789 56 768 q 86 925 56 846 q 152 1041 107 979 q 239 1103 197 1103 q 294 1063 271 1103 q 326 910 326 1008 q 319 799 326 853 q 294 654 311 744 q 179 240 261 476 q 252 249 215 242 q 346 274 289 257 l 381 283 q 418 292 390 286 q 483 307 457 299 q 519 328 510 315 q 531 385 531 343 q 524 469 531 407 q 519 504 519 490 q 496 694 515 571 q 485 750 494 707 q 465 888 465 839 q 503 1007 465 963 q 568 1051 539 1051 q 633 921 617 1051 m 189 1154 q 161 1163 171 1156 q 151 1183 151 1171 q 167 1215 151 1197 q 224 1252 188 1240 q 296 1264 260 1264 q 460 1261 401 1261 q 574 1265 518 1261 q 639 1281 608 1281 q 672 1273 658 1281 q 690 1251 686 1265 l 693 1240 q 694 1228 694 1236 q 674 1183 694 1204 q 624 1151 653 1163 q 572 1143 594 1140 q 328 1151 490 1149 q 189 1154 281 1151 z "},"Ṻ":{"ha":694,"x_min":15,"x_max":674,"o":"m 164 199 l 160 189 l 164 199 m 633 921 q 644 847 636 897 q 667 678 660 742 q 674 550 674 615 q 657 382 674 465 q 547 186 626 251 q 476 146 515 160 q 376 118 438 132 q 333 108 350 113 q 301 99 315 104 q 276 92 288 94 q 167 64 206 72 q 92 56 129 56 q 33 71 50 56 q 15 114 15 86 q 29 182 15 140 q 61 281 36 204 q 131 512 106 415 q 167 707 157 608 q 114 679 138 679 q 81 698 94 679 q 60 747 67 717 q 56 789 56 768 q 86 925 56 846 q 152 1041 107 979 q 239 1103 197 1103 q 294 1063 271 1103 q 326 910 326 1008 q 319 799 326 853 q 294 654 311 744 q 179 240 261 476 q 252 249 215 242 q 346 274 289 257 l 381 283 q 418 292 390 286 q 483 307 457 299 q 519 328 510 315 q 531 385 531 343 q 524 469 531 407 q 519 504 519 490 q 496 694 515 571 q 485 750 494 707 q 465 888 465 839 q 503 1007 465 963 q 568 1051 539 1051 q 633 921 617 1051 m 153 1192 q 125 1201 135 1193 q 115 1221 115 1208 q 131 1253 115 1235 q 188 1290 151 1278 q 260 1301 224 1301 q 424 1299 365 1299 q 538 1303 482 1299 q 603 1318 572 1318 q 636 1310 622 1318 q 654 1289 650 1303 l 657 1278 q 658 1265 658 1274 q 638 1221 658 1242 q 588 1189 617 1200 q 536 1181 558 1178 q 292 1189 454 1186 q 153 1192 244 1189 m 197 1465 q 196 1474 196 1468 q 214 1507 196 1485 q 278 1544 233 1528 q 350 1557 319 1561 q 390 1536 382 1554 l 411 1493 q 426 1515 415 1504 q 489 1553 444 1533 q 561 1565 525 1568 q 600 1544 597 1561 l 614 1496 l 615 1488 q 599 1451 615 1474 q 535 1413 578 1429 q 461 1401 496 1397 q 435 1409 449 1403 q 421 1425 422 1415 l 410 1469 q 403 1458 408 1464 q 396 1447 399 1451 q 333 1408 374 1424 q 271 1396 299 1396 q 218 1422 232 1396 l 197 1465 z "},"Ų":{"ha":681,"x_min":15,"x_max":674,"o":"m 164 199 l 160 189 l 164 199 m 633 921 q 644 847 636 897 q 667 678 660 742 q 674 550 674 615 q 657 382 674 465 q 547 186 626 251 q 476 146 515 160 q 376 118 438 132 q 333 108 350 113 q 301 99 315 104 q 276 92 288 94 q 167 64 206 72 q 92 56 129 56 q 33 71 50 56 q 15 114 15 86 q 29 182 15 140 q 61 281 36 204 q 131 512 106 415 q 167 707 157 608 q 114 679 138 679 q 81 698 94 679 q 60 747 67 717 q 56 789 56 768 q 86 925 56 846 q 152 1041 107 979 q 239 1103 197 1103 q 294 1063 271 1103 q 326 910 326 1008 q 319 799 326 853 q 294 654 311 744 q 179 240 261 476 q 252 249 215 242 q 346 274 289 257 l 381 283 q 418 292 390 286 q 483 307 457 299 q 519 328 510 315 q 531 385 531 343 q 524 469 531 407 q 519 504 519 490 q 496 694 515 571 q 485 750 494 707 q 465 888 465 839 q 503 1007 465 963 q 568 1051 539 1051 q 633 921 617 1051 m 439 129 q 413 100 422 114 q 407 68 404 86 q 429 38 408 50 q 443 36 439 38 q 470 26 457 33 q 485 7 483 18 l 485 6 q 486 -8 486 0 q 467 -52 486 -35 q 415 -86 449 -69 q 368 -97 394 -97 q 292 -72 331 -97 q 249 -41 265 -57 q 225 -4 232 -25 q 221 22 221 11 q 289 139 221 79 q 349 176 314 163 q 418 188 385 189 q 444 178 435 186 q 454 158 454 169 q 439 129 454 144 z "},"Ů":{"ha":681,"x_min":15,"x_max":674,"o":"m 164 199 l 160 189 l 164 199 m 633 921 q 644 847 636 897 q 667 678 660 742 q 674 550 674 615 q 657 382 674 465 q 547 186 626 251 q 476 146 515 160 q 376 118 438 132 q 333 108 350 113 q 301 99 315 104 q 276 92 288 94 q 167 64 206 72 q 92 56 129 56 q 33 71 50 56 q 15 114 15 86 q 29 182 15 140 q 61 281 36 204 q 131 512 106 415 q 167 707 157 608 q 114 679 138 679 q 81 698 94 679 q 60 747 67 717 q 56 789 56 768 q 86 925 56 846 q 152 1041 107 979 q 239 1103 197 1103 q 294 1063 271 1103 q 326 910 326 1008 q 319 799 326 853 q 294 654 311 744 q 179 240 261 476 q 252 249 215 242 q 346 274 289 257 l 381 283 q 418 292 390 286 q 483 307 457 299 q 519 328 510 315 q 531 385 531 343 q 524 469 531 407 q 519 504 519 490 q 496 694 515 571 q 485 750 494 707 q 465 888 465 839 q 503 1007 465 963 q 568 1051 539 1051 q 633 921 617 1051 m 289 1489 q 417 1522 351 1522 q 554 1464 501 1522 q 593 1369 593 1419 q 553 1272 593 1318 q 456 1196 514 1225 q 369 1165 419 1178 q 272 1151 318 1151 q 126 1247 147 1151 q 122 1286 122 1268 q 170 1413 122 1357 q 289 1489 218 1468 m 351 1399 m 383 1269 q 403 1311 403 1281 q 394 1351 403 1329 q 368 1389 386 1374 l 356 1397 q 315 1374 336 1382 q 313 1343 313 1364 q 324 1286 313 1310 q 358 1263 336 1263 q 383 1269 374 1263 z "},"Ũ":{"ha":681,"x_min":15,"x_max":674,"o":"m 164 199 l 160 189 l 164 199 m 633 921 q 644 847 636 897 q 667 678 660 742 q 674 550 674 615 q 657 382 674 465 q 547 186 626 251 q 476 146 515 160 q 376 118 438 132 q 333 108 350 113 q 301 99 315 104 q 276 92 288 94 q 167 64 206 72 q 92 56 129 56 q 33 71 50 56 q 15 114 15 86 q 29 182 15 140 q 61 281 36 204 q 131 512 106 415 q 167 707 157 608 q 114 679 138 679 q 81 698 94 679 q 60 747 67 717 q 56 789 56 768 q 86 925 56 846 q 152 1041 107 979 q 239 1103 197 1103 q 294 1063 271 1103 q 326 910 326 1008 q 319 799 326 853 q 294 654 311 744 q 179 240 261 476 q 252 249 215 242 q 346 274 289 257 l 381 283 q 418 292 390 286 q 483 307 457 299 q 519 328 510 315 q 531 385 531 343 q 524 469 531 407 q 519 504 519 490 q 496 694 515 571 q 485 750 494 707 q 465 888 465 839 q 503 1007 465 963 q 568 1051 539 1051 q 633 921 617 1051 m 524 1292 q 558 1349 525 1324 q 622 1374 590 1374 q 653 1363 642 1374 q 665 1328 665 1351 q 635 1231 667 1271 q 556 1169 603 1190 q 467 1149 510 1149 q 449 1150 454 1149 q 340 1181 407 1154 q 296 1196 306 1193 l 246 1208 l 240 1192 q 199 1142 235 1164 q 131 1119 163 1119 q 101 1147 96 1119 q 161 1282 117 1229 q 269 1339 206 1335 q 361 1317 288 1339 q 429 1299 375 1313 q 507 1285 483 1285 q 524 1292 524 1285 z "},"Ṹ":{"ha":729,"x_min":15,"x_max":710,"o":"m 164 199 l 160 189 l 164 199 m 633 921 q 644 847 636 897 q 667 678 660 742 q 674 550 674 615 q 657 382 674 465 q 547 186 626 251 q 476 146 515 160 q 376 118 438 132 q 333 108 350 113 q 301 99 315 104 q 276 92 288 94 q 167 64 206 72 q 92 56 129 56 q 33 71 50 56 q 15 114 15 86 q 29 182 15 140 q 61 281 36 204 q 131 512 106 415 q 167 707 157 608 q 114 679 138 679 q 81 698 94 679 q 60 747 67 717 q 56 789 56 768 q 86 925 56 846 q 152 1041 107 979 q 239 1103 197 1103 q 294 1063 271 1103 q 326 910 326 1008 q 319 799 326 853 q 294 654 311 744 q 179 240 261 476 q 252 249 215 242 q 346 274 289 257 l 381 283 q 418 292 390 286 q 483 307 457 299 q 519 328 510 315 q 531 385 531 343 q 524 469 531 407 q 519 504 519 490 q 496 694 515 571 q 485 750 494 707 q 465 888 465 839 q 503 1007 465 963 q 568 1051 539 1051 q 633 921 617 1051 m 567 1333 q 601 1390 568 1365 q 665 1415 633 1415 q 697 1404 685 1415 q 708 1369 708 1393 q 678 1272 710 1313 q 599 1211 646 1232 q 510 1190 553 1190 q 492 1192 497 1190 q 383 1222 450 1196 q 339 1238 349 1235 l 289 1250 l 283 1233 q 242 1183 278 1206 q 174 1161 206 1161 q 144 1189 139 1161 q 204 1324 160 1271 q 313 1381 249 1376 q 404 1358 331 1381 q 472 1340 418 1354 q 550 1326 526 1326 q 567 1333 567 1326 m 310 1494 q 290 1518 290 1500 q 306 1550 290 1535 q 334 1578 311 1556 q 374 1622 357 1601 q 401 1663 390 1643 q 450 1710 417 1693 q 522 1729 483 1726 q 564 1719 542 1732 q 586 1689 586 1707 q 581 1669 586 1679 q 422 1513 507 1556 q 339 1490 378 1490 q 310 1494 322 1490 z "},"V":{"ha":499,"x_min":53,"x_max":474,"o":"m 458 1122 q 474 1075 474 1113 q 463 988 474 1040 q 457 950 457 954 q 443 756 453 840 q 382 347 417 503 q 349 216 364 267 q 304 113 335 165 q 228 38 274 60 q 196 29 210 29 q 144 85 157 29 q 132 228 132 142 l 132 261 q 133 281 132 269 q 132 303 133 292 q 89 708 121 489 q 61 901 71 842 q 53 979 53 954 q 79 1065 53 1028 q 115 1104 94 1088 q 154 1121 135 1121 q 182 1106 171 1121 q 196 1071 192 1093 q 203 1010 200 1049 q 206 972 203 992 q 238 799 217 904 q 276 583 265 669 q 282 681 279 617 q 290 818 285 760 q 308 933 296 876 q 331 1006 313 958 q 377 1092 350 1054 q 433 1131 404 1131 q 458 1122 446 1131 z "},"W":{"ha":785,"x_min":15,"x_max":758,"o":"m 739 1035 q 758 982 758 1026 q 751 917 758 954 q 743 868 744 879 q 715 676 733 783 q 683 490 696 556 q 649 356 671 424 q 578 208 622 275 q 471 128 533 142 q 451 125 457 125 q 390 161 411 125 q 364 238 369 197 q 354 339 358 278 q 301 203 328 258 q 231 108 275 149 q 165 75 193 75 q 106 174 118 75 q 81 436 94 261 q 50 738 64 640 q 36 806 47 758 q 22 872 28 838 q 15 935 15 907 q 22 986 15 961 q 62 1053 33 1022 q 117 1085 90 1085 q 158 1042 147 1085 q 196 849 178 971 q 203 800 199 832 q 213 746 208 768 q 254 454 240 600 l 265 510 q 287 611 276 572 q 318 685 297 650 q 365 748 339 719 q 419 776 392 776 q 463 745 447 776 q 485 683 479 714 q 496 600 490 651 q 501 517 499 572 q 521 353 507 414 q 561 625 546 453 q 578 768 576 758 q 595 872 588 836 q 619 942 603 907 q 665 1006 636 974 q 722 1039 694 1039 q 739 1035 731 1039 z "},"Ẃ":{"ha":764,"x_min":15,"x_max":758,"o":"m 739 1035 q 758 982 758 1026 q 751 917 758 954 q 743 868 744 879 q 715 676 733 783 q 683 490 696 556 q 649 356 671 424 q 578 208 622 275 q 471 128 533 142 q 451 125 457 125 q 390 161 411 125 q 364 238 369 197 q 354 339 358 278 q 301 203 328 258 q 231 108 275 149 q 165 75 193 75 q 106 174 118 75 q 81 436 94 261 q 50 738 64 640 q 36 806 47 758 q 22 872 28 838 q 15 935 15 907 q 22 986 15 961 q 62 1053 33 1022 q 117 1085 90 1085 q 158 1042 147 1085 q 196 849 178 971 q 203 800 199 832 q 213 746 208 768 q 254 454 240 600 l 265 510 q 287 611 276 572 q 318 685 297 650 q 365 748 339 719 q 419 776 392 776 q 463 745 447 776 q 485 683 479 714 q 496 600 490 651 q 501 517 499 572 q 521 353 507 414 q 561 625 546 453 q 578 768 576 758 q 595 872 588 836 q 619 942 603 907 q 665 1006 636 974 q 722 1039 694 1039 q 739 1035 731 1039 m 283 1072 q 264 1096 264 1078 q 279 1128 264 1113 q 308 1156 285 1133 q 347 1200 331 1179 q 375 1240 364 1221 q 424 1288 390 1271 q 496 1307 457 1304 q 538 1297 515 1310 q 560 1267 560 1285 q 554 1247 560 1257 q 396 1090 481 1133 q 313 1068 351 1068 q 283 1072 296 1068 z "},"Ŵ":{"ha":757,"x_min":15,"x_max":758,"o":"m 739 1035 q 758 982 758 1026 q 751 917 758 954 q 743 868 744 879 q 715 676 733 783 q 683 490 696 556 q 649 356 671 424 q 578 208 622 275 q 471 128 533 142 q 451 125 457 125 q 390 161 411 125 q 364 238 369 197 q 354 339 358 278 q 301 203 328 258 q 231 108 275 149 q 165 75 193 75 q 106 174 118 75 q 81 436 94 261 q 50 738 64 640 q 36 806 47 758 q 22 872 28 838 q 15 935 15 907 q 22 986 15 961 q 62 1053 33 1022 q 117 1085 90 1085 q 158 1042 147 1085 q 196 849 178 971 q 203 800 199 832 q 213 746 208 768 q 254 454 240 600 l 265 510 q 287 611 276 572 q 318 685 297 650 q 365 748 339 719 q 419 776 392 776 q 463 745 447 776 q 485 683 479 714 q 496 600 490 651 q 501 517 499 572 q 521 353 507 414 q 561 625 546 453 q 578 768 576 758 q 595 872 588 836 q 619 942 603 907 q 665 1006 636 974 q 722 1039 694 1039 q 739 1035 731 1039 m 490 1382 q 546 1324 514 1346 q 610 1287 578 1303 q 651 1267 642 1271 q 675 1235 675 1256 q 666 1208 675 1222 q 644 1183 657 1193 q 601 1159 626 1168 q 550 1150 575 1150 q 513 1156 528 1150 q 414 1201 458 1175 q 389 1224 407 1206 q 310 1163 349 1188 q 207 1126 253 1126 q 178 1132 189 1126 q 157 1158 157 1142 q 166 1182 157 1169 q 189 1203 175 1194 q 317 1332 279 1267 q 371 1379 331 1356 q 446 1403 411 1403 q 490 1382 476 1403 z "},"Ẅ":{"ha":743,"x_min":15,"x_max":758,"o":"m 739 1035 q 758 982 758 1026 q 751 917 758 954 q 743 868 744 879 q 715 676 733 783 q 683 490 696 556 q 649 356 671 424 q 578 208 622 275 q 471 128 533 142 q 451 125 457 125 q 390 161 411 125 q 364 238 369 197 q 354 339 358 278 q 301 203 328 258 q 231 108 275 149 q 165 75 193 75 q 106 174 118 75 q 81 436 94 261 q 50 738 64 640 q 36 806 47 758 q 22 872 28 838 q 15 935 15 907 q 22 986 15 961 q 62 1053 33 1022 q 117 1085 90 1085 q 158 1042 147 1085 q 196 849 178 971 q 203 800 199 832 q 213 746 208 768 q 254 454 240 600 l 265 510 q 287 611 276 572 q 318 685 297 650 q 365 748 339 719 q 419 776 392 776 q 463 745 447 776 q 485 683 479 714 q 496 600 490 651 q 501 517 499 572 q 521 353 507 414 q 561 625 546 453 q 578 768 576 758 q 595 872 588 836 q 619 942 603 907 q 665 1006 636 974 q 722 1039 694 1039 q 739 1035 731 1039 m 190 1188 q 189 1196 189 1190 q 207 1229 189 1207 q 271 1267 226 1250 q 343 1279 313 1283 q 383 1258 375 1276 l 404 1215 q 419 1238 408 1226 q 482 1275 438 1256 q 554 1288 518 1290 q 593 1267 590 1283 l 607 1218 l 608 1210 q 592 1174 608 1196 q 528 1135 571 1151 q 454 1124 489 1119 q 428 1131 442 1125 q 414 1147 415 1138 l 403 1192 q 397 1180 401 1186 q 389 1169 392 1174 q 326 1131 367 1146 q 264 1118 292 1118 q 211 1144 225 1118 l 190 1188 z "},"Ẁ":{"ha":833,"x_min":15,"x_max":758,"o":"m 739 1035 q 758 982 758 1026 q 751 917 758 954 q 743 868 744 879 q 715 676 733 783 q 683 490 696 556 q 649 356 671 424 q 578 208 622 275 q 471 128 533 142 q 451 125 457 125 q 390 161 411 125 q 364 238 369 197 q 354 339 358 278 q 301 203 328 258 q 231 108 275 149 q 165 75 193 75 q 106 174 118 75 q 81 436 94 261 q 50 738 64 640 q 36 806 47 758 q 22 872 28 838 q 15 935 15 907 q 22 986 15 961 q 62 1053 33 1022 q 117 1085 90 1085 q 158 1042 147 1085 q 196 849 178 971 q 203 800 199 832 q 213 746 208 768 q 254 454 240 600 l 265 510 q 287 611 276 572 q 318 685 297 650 q 365 748 339 719 q 419 776 392 776 q 463 745 447 776 q 485 683 479 714 q 496 600 490 651 q 501 517 499 572 q 521 353 507 414 q 561 625 546 453 q 578 768 576 758 q 595 872 588 836 q 619 942 603 907 q 665 1006 636 974 q 722 1039 694 1039 q 739 1035 731 1039 m 254 1308 q 246 1328 246 1317 q 297 1382 246 1356 q 393 1408 349 1408 q 429 1399 418 1408 l 432 1396 l 438 1390 l 499 1324 q 532 1292 507 1315 q 565 1249 557 1269 q 568 1235 568 1240 q 513 1169 568 1203 q 428 1147 475 1147 q 390 1153 406 1147 q 390 1154 390 1154 q 389 1154 389 1154 q 364 1182 368 1161 q 341 1212 358 1193 q 317 1239 324 1231 l 254 1308 z "},"X":{"ha":746,"x_min":1,"x_max":740,"o":"m 601 842 q 485 681 560 789 q 458 649 481 675 q 435 611 435 624 q 460 571 435 597 q 489 540 485 544 q 557 464 510 514 q 691 309 642 372 q 740 201 740 246 q 716 117 740 160 q 657 74 692 74 q 632 81 646 74 q 577 128 608 93 q 522 197 546 164 q 426 314 504 222 q 322 440 343 407 q 250 327 283 383 q 206 253 217 271 q 136 139 165 182 q 82 83 119 114 q 22 51 44 51 q 1 83 1 51 q 31 183 1 129 q 110 306 60 236 l 138 346 q 174 393 142 351 q 226 463 200 426 q 257 515 253 499 q 250 556 261 533 q 217 611 239 578 q 200 635 208 622 q 168 685 190 651 q 107 784 129 743 q 75 868 85 825 q 71 910 71 885 q 91 1005 71 961 q 153 1057 111 1049 q 187 1040 176 1061 q 206 979 197 1019 q 218 933 210 949 q 281 826 247 876 q 379 686 315 775 q 507 856 463 800 l 538 897 q 590 965 568 939 q 635 1008 611 990 q 672 1024 656 1024 q 692 1015 685 1024 q 699 990 699 1006 q 693 963 699 982 q 671 922 686 942 q 632 876 656 901 q 601 842 631 875 z "},"Y":{"ha":826,"x_min":25,"x_max":793,"o":"m 754 579 q 793 400 793 472 q 750 249 793 319 q 638 132 708 181 q 483 58 568 83 q 343 39 418 39 q 190 61 263 39 q 71 130 117 83 q 25 244 25 176 q 42 331 25 283 q 79 408 54 369 q 135 446 104 446 q 164 422 164 446 q 158 398 164 413 q 151 379 153 383 q 146 365 150 375 q 142 349 142 356 q 172 274 139 307 q 254 222 206 242 q 343 194 303 201 q 432 186 385 186 q 546 201 492 186 q 639 249 600 217 q 675 328 675 279 q 666 385 675 356 q 640 458 657 414 q 615 528 624 494 q 524 419 571 463 q 421 376 476 376 q 340 411 375 376 q 282 494 304 446 q 249 669 249 571 q 288 913 249 779 q 235 928 253 913 q 218 972 218 944 q 232 1028 218 999 q 292 1092 249 1065 q 379 1119 336 1119 q 451 1086 426 1119 q 464 1042 464 1069 q 457 993 464 1018 q 436 925 450 968 q 418 867 422 886 q 408 761 408 808 q 443 618 408 671 q 483 589 463 589 q 533 623 508 589 q 571 699 557 657 q 578 749 578 719 q 575 797 578 764 q 572 844 572 828 q 603 939 572 901 q 658 976 635 976 q 700 940 686 976 q 724 847 714 903 q 728 804 728 825 q 725 753 728 786 q 721 697 721 726 q 744 606 721 661 l 754 579 z "},"Ý":{"ha":833,"x_min":25,"x_max":793,"o":"m 754 579 q 793 400 793 472 q 750 249 793 319 q 638 132 708 181 q 483 58 568 83 q 343 39 418 39 q 190 61 263 39 q 71 130 117 83 q 25 244 25 176 q 42 331 25 283 q 79 408 54 369 q 135 446 104 446 q 164 422 164 446 q 158 398 164 413 q 151 379 153 383 q 146 365 150 375 q 142 349 142 356 q 172 274 139 307 q 254 222 206 242 q 343 194 303 201 q 432 186 385 186 q 546 201 492 186 q 639 249 600 217 q 675 328 675 279 q 666 385 675 356 q 640 458 657 414 q 615 528 624 494 q 524 419 571 463 q 421 376 476 376 q 340 411 375 376 q 282 494 304 446 q 249 669 249 571 q 288 913 249 779 q 235 928 253 913 q 218 972 218 944 q 232 1028 218 999 q 292 1092 249 1065 q 379 1119 336 1119 q 451 1086 426 1119 q 464 1042 464 1069 q 457 993 464 1018 q 436 925 450 968 q 418 867 422 886 q 408 761 408 808 q 443 618 408 671 q 483 589 463 589 q 533 623 508 589 q 571 699 557 657 q 578 749 578 719 q 575 797 578 764 q 572 844 572 828 q 603 939 572 901 q 658 976 635 976 q 700 940 686 976 q 724 847 714 903 q 728 804 728 825 q 725 753 728 786 q 721 697 721 726 q 744 606 721 661 l 754 579 m 474 1153 q 454 1176 454 1158 q 469 1208 454 1193 q 498 1237 475 1214 q 538 1281 521 1260 q 565 1321 554 1301 q 614 1368 581 1351 q 686 1388 647 1385 q 728 1378 706 1390 q 750 1347 750 1365 q 744 1328 750 1338 q 586 1171 671 1214 q 503 1149 542 1149 q 474 1153 486 1149 z "},"Ŷ":{"ha":826,"x_min":25,"x_max":794,"o":"m 754 579 q 793 400 793 472 q 750 249 793 319 q 638 132 708 181 q 483 58 568 83 q 343 39 418 39 q 190 61 263 39 q 71 130 117 83 q 25 244 25 176 q 42 331 25 283 q 79 408 54 369 q 135 446 104 446 q 164 422 164 446 q 158 398 164 413 q 151 379 153 383 q 146 365 150 375 q 142 349 142 356 q 172 274 139 307 q 254 222 206 242 q 343 194 303 201 q 432 186 385 186 q 546 201 492 186 q 639 249 600 217 q 675 328 675 279 q 666 385 675 356 q 640 458 657 414 q 615 528 624 494 q 524 419 571 463 q 421 376 476 376 q 340 411 375 376 q 282 494 304 446 q 249 669 249 571 q 288 913 249 779 q 235 928 253 913 q 218 972 218 944 q 232 1028 218 999 q 292 1092 249 1065 q 379 1119 336 1119 q 451 1086 426 1119 q 464 1042 464 1069 q 457 993 464 1018 q 436 925 450 968 q 418 867 422 886 q 408 761 408 808 q 443 618 408 671 q 483 589 463 589 q 533 623 508 589 q 571 699 557 657 q 578 749 578 719 q 575 797 578 764 q 572 844 572 828 q 603 939 572 901 q 658 976 635 976 q 700 940 686 976 q 724 847 714 903 q 728 804 728 825 q 725 753 728 786 q 721 697 721 726 q 744 606 721 661 l 754 579 m 610 1399 q 665 1341 633 1363 q 729 1303 697 1319 q 771 1283 761 1288 q 794 1251 794 1272 q 785 1224 794 1239 q 764 1200 776 1210 q 720 1176 746 1185 q 669 1167 694 1167 q 632 1172 647 1167 q 533 1218 578 1192 q 508 1240 526 1222 q 429 1179 468 1204 q 326 1143 372 1143 q 297 1149 308 1143 q 276 1175 276 1158 q 285 1199 276 1186 q 308 1219 294 1211 q 436 1349 399 1283 q 490 1396 450 1372 q 565 1419 531 1419 q 610 1399 596 1419 z "},"Ÿ":{"ha":826,"x_min":25,"x_max":793,"o":"m 754 579 q 793 400 793 472 q 750 249 793 319 q 638 132 708 181 q 483 58 568 83 q 343 39 418 39 q 190 61 263 39 q 71 130 117 83 q 25 244 25 176 q 42 331 25 283 q 79 408 54 369 q 135 446 104 446 q 164 422 164 446 q 158 398 164 413 q 151 379 153 383 q 146 365 150 375 q 142 349 142 356 q 172 274 139 307 q 254 222 206 242 q 343 194 303 201 q 432 186 385 186 q 546 201 492 186 q 639 249 600 217 q 675 328 675 279 q 666 385 675 356 q 640 458 657 414 q 615 528 624 494 q 524 419 571 463 q 421 376 476 376 q 340 411 375 376 q 282 494 304 446 q 249 669 249 571 q 288 913 249 779 q 235 928 253 913 q 218 972 218 944 q 232 1028 218 999 q 292 1092 249 1065 q 379 1119 336 1119 q 451 1086 426 1119 q 464 1042 464 1069 q 457 993 464 1018 q 436 925 450 968 q 418 867 422 886 q 408 761 408 808 q 443 618 408 671 q 483 589 463 589 q 533 623 508 589 q 571 699 557 657 q 578 749 578 719 q 575 797 578 764 q 572 844 572 828 q 603 939 572 901 q 658 976 635 976 q 700 940 686 976 q 724 847 714 903 q 728 804 728 825 q 725 753 728 786 q 721 697 721 726 q 744 606 721 661 l 754 579 m 294 1225 q 293 1233 293 1228 q 311 1267 293 1244 q 375 1304 331 1288 q 447 1317 417 1321 q 488 1296 479 1314 l 508 1253 q 524 1275 513 1264 q 586 1313 542 1293 q 658 1325 622 1328 q 697 1304 694 1321 l 711 1256 l 713 1247 q 696 1211 713 1233 q 632 1172 675 1189 q 558 1161 593 1157 q 533 1169 546 1163 q 518 1185 519 1175 l 507 1229 q 501 1217 506 1224 q 493 1207 496 1211 q 431 1168 471 1183 q 368 1156 396 1156 q 315 1182 329 1156 l 294 1225 z "},"Ẏ":{"ha":833,"x_min":25,"x_max":793,"o":"m 754 579 q 793 400 793 472 q 750 249 793 319 q 638 132 708 181 q 483 58 568 83 q 343 39 418 39 q 190 61 263 39 q 71 130 117 83 q 25 244 25 176 q 42 331 25 283 q 79 408 54 369 q 135 446 104 446 q 164 422 164 446 q 158 398 164 413 q 151 379 153 383 q 146 365 150 375 q 142 349 142 356 q 172 274 139 307 q 254 222 206 242 q 343 194 303 201 q 432 186 385 186 q 546 201 492 186 q 639 249 600 217 q 675 328 675 279 q 666 385 675 356 q 640 458 657 414 q 615 528 624 494 q 524 419 571 463 q 421 376 476 376 q 340 411 375 376 q 282 494 304 446 q 249 669 249 571 q 288 913 249 779 q 235 928 253 913 q 218 972 218 944 q 232 1028 218 999 q 292 1092 249 1065 q 379 1119 336 1119 q 451 1086 426 1119 q 464 1042 464 1069 q 457 993 464 1018 q 436 925 450 968 q 418 867 422 886 q 408 761 408 808 q 443 618 408 671 q 483 589 463 589 q 533 623 508 589 q 571 699 557 657 q 578 749 578 719 q 575 797 578 764 q 572 844 572 828 q 603 939 572 901 q 658 976 635 976 q 700 940 686 976 q 724 847 714 903 q 728 804 728 825 q 725 753 728 786 q 721 697 721 726 q 744 606 721 661 l 754 579 m 440 1200 q 392 1221 406 1203 q 379 1267 375 1242 q 390 1293 382 1281 q 408 1317 399 1306 q 433 1337 418 1329 q 469 1353 447 1344 q 471 1354 471 1353 q 547 1374 515 1374 q 593 1360 574 1374 q 613 1326 608 1347 l 614 1313 q 608 1283 614 1296 q 549 1225 594 1250 q 456 1199 503 1199 l 440 1200 z "},"Ỳ":{"ha":833,"x_min":25,"x_max":793,"o":"m 754 579 q 793 400 793 472 q 750 249 793 319 q 638 132 708 181 q 483 58 568 83 q 343 39 418 39 q 190 61 263 39 q 71 130 117 83 q 25 244 25 176 q 42 331 25 283 q 79 408 54 369 q 135 446 104 446 q 164 422 164 446 q 158 398 164 413 q 151 379 153 383 q 146 365 150 375 q 142 349 142 356 q 172 274 139 307 q 254 222 206 242 q 343 194 303 201 q 432 186 385 186 q 546 201 492 186 q 639 249 600 217 q 675 328 675 279 q 666 385 675 356 q 640 458 657 414 q 615 528 624 494 q 524 419 571 463 q 421 376 476 376 q 340 411 375 376 q 282 494 304 446 q 249 669 249 571 q 288 913 249 779 q 235 928 253 913 q 218 972 218 944 q 232 1028 218 999 q 292 1092 249 1065 q 379 1119 336 1119 q 451 1086 426 1119 q 464 1042 464 1069 q 457 993 464 1018 q 436 925 450 968 q 418 867 422 886 q 408 761 408 808 q 443 618 408 671 q 483 589 463 589 q 533 623 508 589 q 571 699 557 657 q 578 749 578 719 q 575 797 578 764 q 572 844 572 828 q 603 939 572 901 q 658 976 635 976 q 700 940 686 976 q 724 847 714 903 q 728 804 728 825 q 725 753 728 786 q 721 697 721 726 q 744 606 721 661 l 754 579 m 361 1301 q 353 1321 353 1310 q 404 1375 353 1349 q 500 1401 456 1401 q 536 1392 525 1401 l 539 1389 l 544 1383 l 606 1317 q 639 1285 614 1308 q 672 1242 664 1263 q 675 1228 675 1233 q 619 1163 675 1196 q 535 1140 582 1140 q 497 1146 513 1140 q 497 1147 497 1147 q 496 1147 496 1147 q 471 1175 475 1154 q 448 1205 465 1186 q 424 1232 431 1224 l 361 1301 z "},"Z":{"ha":835,"x_min":22,"x_max":829,"o":"m 758 275 q 803 225 803 274 q 783 158 803 194 q 734 98 764 122 q 674 75 704 74 q 479 83 540 83 q 258 54 351 83 q 238 46 249 50 q 217 38 228 42 q 108 4 147 4 q 64 15 82 4 q 22 96 22 38 q 40 176 22 135 q 84 254 58 217 q 153 349 110 292 q 204 417 199 408 q 274 517 249 483 l 219 504 q 204 503 214 503 q 181 513 189 503 q 174 539 174 522 q 206 634 174 581 q 272 696 239 688 l 415 729 l 593 1001 q 497 992 529 996 q 121 953 290 974 q 100 979 100 951 q 117 1045 100 1006 q 160 1115 135 1085 q 211 1149 186 1146 q 440 1169 342 1160 q 603 1186 538 1179 l 750 1201 l 753 1201 q 767 1194 763 1201 q 811 1176 793 1194 q 829 1128 829 1157 q 806 1058 829 1094 l 789 1032 q 610 757 679 860 q 642 758 631 757 q 662 759 650 758 q 689 758 674 760 q 718 722 718 758 q 699 654 718 693 q 653 588 681 615 q 600 561 625 561 q 478 556 546 563 q 263 244 393 426 q 436 285 363 276 q 524 289 479 289 q 700 279 599 289 l 758 275 z "},"Ź":{"ha":833,"x_min":22,"x_max":829,"o":"m 758 275 q 803 225 803 274 q 783 158 803 194 q 734 98 764 122 q 674 75 704 74 q 479 83 540 83 q 258 54 351 83 q 238 46 249 50 q 217 38 228 42 q 108 4 147 4 q 64 15 82 4 q 22 96 22 38 q 40 176 22 135 q 84 254 58 217 q 153 349 110 292 q 204 417 199 408 q 274 517 249 483 l 219 504 q 204 503 214 503 q 181 513 189 503 q 174 539 174 522 q 206 634 174 581 q 272 696 239 688 l 415 729 l 593 1001 q 497 992 529 996 q 121 953 290 974 q 100 979 100 951 q 117 1045 100 1006 q 160 1115 135 1085 q 211 1149 186 1146 q 440 1169 342 1160 q 603 1186 538 1179 l 750 1201 l 753 1201 q 767 1194 763 1201 q 811 1176 793 1194 q 829 1128 829 1157 q 806 1058 829 1094 l 789 1032 q 610 757 679 860 q 642 758 631 757 q 662 759 650 758 q 689 758 674 760 q 718 722 718 758 q 699 654 718 693 q 653 588 681 615 q 600 561 625 561 q 478 556 546 563 q 263 244 393 426 q 436 285 363 276 q 524 289 479 289 q 700 279 599 289 l 758 275 m 396 1210 q 376 1233 376 1215 q 392 1265 376 1250 q 420 1294 397 1271 q 460 1338 443 1317 q 488 1378 476 1358 q 536 1425 503 1408 q 608 1444 569 1442 q 650 1435 628 1447 q 672 1404 672 1422 q 667 1385 672 1394 q 508 1228 593 1271 q 425 1206 464 1206 q 396 1210 408 1206 z "},"Ž":{"ha":833,"x_min":22,"x_max":829,"o":"m 758 275 q 803 225 803 274 q 783 158 803 194 q 734 98 764 122 q 674 75 704 74 q 479 83 540 83 q 258 54 351 83 q 238 46 249 50 q 217 38 228 42 q 108 4 147 4 q 64 15 82 4 q 22 96 22 38 q 40 176 22 135 q 84 254 58 217 q 153 349 110 292 q 204 417 199 408 q 274 517 249 483 l 219 504 q 204 503 214 503 q 181 513 189 503 q 174 539 174 522 q 206 634 174 581 q 272 696 239 688 l 415 729 l 593 1001 q 497 992 529 996 q 121 953 290 974 q 100 979 100 951 q 117 1045 100 1006 q 160 1115 135 1085 q 211 1149 186 1146 q 440 1169 342 1160 q 603 1186 538 1179 l 750 1201 l 753 1201 q 767 1194 763 1201 q 811 1176 793 1194 q 829 1128 829 1157 q 806 1058 829 1094 l 789 1032 q 610 757 679 860 q 642 758 631 757 q 662 759 650 758 q 689 758 674 760 q 718 722 718 758 q 699 654 718 693 q 653 588 681 615 q 600 561 625 561 q 478 556 546 563 q 263 244 393 426 q 436 285 363 276 q 524 289 479 289 q 700 279 599 289 l 758 275 m 313 1375 q 303 1392 303 1381 q 323 1424 303 1407 q 360 1450 343 1442 q 444 1475 404 1475 q 485 1464 469 1475 q 546 1413 518 1442 q 685 1454 617 1456 q 731 1442 714 1454 q 749 1411 749 1429 q 719 1361 749 1385 q 672 1328 701 1346 q 630 1299 647 1313 q 599 1264 613 1285 q 550 1227 583 1243 q 483 1211 517 1211 q 419 1247 435 1211 q 313 1375 389 1324 z "},"Ż":{"ha":833,"x_min":22,"x_max":829,"o":"m 758 275 q 803 225 803 274 q 783 158 803 194 q 734 98 764 122 q 674 75 704 74 q 479 83 540 83 q 258 54 351 83 q 238 46 249 50 q 217 38 228 42 q 108 4 147 4 q 64 15 82 4 q 22 96 22 38 q 40 176 22 135 q 84 254 58 217 q 153 349 110 292 q 204 417 199 408 q 274 517 249 483 l 219 504 q 204 503 214 503 q 181 513 189 503 q 174 539 174 522 q 206 634 174 581 q 272 696 239 688 l 415 729 l 593 1001 q 497 992 529 996 q 121 953 290 974 q 100 979 100 951 q 117 1045 100 1006 q 160 1115 135 1085 q 211 1149 186 1146 q 440 1169 342 1160 q 603 1186 538 1179 l 750 1201 l 753 1201 q 767 1194 763 1201 q 811 1176 793 1194 q 829 1128 829 1157 q 806 1058 829 1094 l 789 1032 q 610 757 679 860 q 642 758 631 757 q 662 759 650 758 q 689 758 674 760 q 718 722 718 758 q 699 654 718 693 q 653 588 681 615 q 600 561 625 561 q 478 556 546 563 q 263 244 393 426 q 436 285 363 276 q 524 289 479 289 q 700 279 599 289 l 758 275 m 457 1231 q 408 1251 422 1233 q 396 1297 392 1272 q 407 1324 399 1311 q 425 1347 415 1336 q 449 1367 435 1360 q 486 1383 464 1375 q 488 1385 488 1383 q 564 1404 532 1404 q 610 1390 590 1404 q 629 1357 625 1378 l 631 1343 q 625 1314 631 1326 q 565 1256 611 1281 q 472 1229 519 1229 l 457 1231 z "},"Ķ":{"ha":833,"x_min":42,"x_max":818,"o":"m 471 -85 q 506 -82 485 -82 q 553 -114 560 -82 q 442 -335 525 -243 q 383 -372 421 -358 q 314 -382 346 -385 q 276 -353 276 -378 q 290 -321 276 -339 q 371 -156 350 -250 q 406 -111 376 -129 q 471 -85 436 -93 m 785 378 q 818 318 818 354 q 782 230 818 278 q 709 149 746 182 q 615 68 672 115 q 531 35 576 35 q 474 58 496 35 q 451 128 451 82 q 460 201 451 161 q 486 297 469 240 l 501 351 q 557 592 525 450 q 475 543 546 586 l 361 478 q 336 464 344 469 q 286 436 304 449 q 263 417 267 422 q 258 399 260 411 q 256 378 257 388 l 249 326 q 235 224 244 271 l 238 238 q 233 210 236 229 q 228 181 231 192 q 201 106 215 133 q 167 53 188 78 q 121 13 146 28 q 79 -3 94 -3 q 51 15 60 -3 q 42 60 42 33 q 46 101 42 83 q 63 179 44 93 q 83 272 76 236 q 89 340 89 308 q 86 376 89 354 q 79 425 79 411 q 93 483 79 446 q 107 533 103 508 q 114 580 111 557 q 118 611 117 603 q 129 825 129 706 l 128 949 q 126 991 128 972 q 124 1022 125 1010 q 118 1100 118 1075 q 128 1181 118 1144 q 167 1246 139 1217 q 244 1293 211 1293 q 272 1278 261 1293 q 285 1213 285 1260 q 283 1175 285 1188 q 283 1156 283 1167 q 283 1135 282 1146 q 294 833 294 975 l 294 789 q 407 918 347 854 q 550 1065 467 982 q 616 1124 586 1101 q 675 1142 646 1146 q 708 1101 708 1136 q 689 1038 708 1074 q 625 947 664 990 q 521 842 586 904 l 454 776 l 415 739 q 335 658 365 693 q 299 588 306 624 l 543 743 q 631 772 586 772 q 699 742 674 772 q 718 657 724 713 q 681 453 711 588 l 658 346 q 694 379 672 367 q 739 392 715 392 q 785 378 765 392 z "},"Ļ":{"ha":582,"x_min":0,"x_max":582,"o":"m 300 -85 q 335 -82 314 -82 q 382 -114 389 -82 q 271 -335 354 -243 q 213 -372 250 -358 q 143 -382 175 -385 q 106 -353 106 -378 q 119 -321 106 -339 q 200 -156 179 -250 q 235 -111 206 -129 q 300 -85 265 -93 m 563 158 q 530 114 556 150 q 474 52 504 78 q 419 26 444 26 q 390 36 404 26 q 372 64 378 44 q 361 117 367 83 q 340 191 353 167 q 294 210 326 215 q 247 182 274 206 q 200 136 221 158 q 171 106 179 114 l 143 79 q 107 43 122 57 q 74 21 92 29 q 36 11 53 11 q 0 69 0 11 q 6 132 0 99 q 13 171 11 165 q 111 889 74 635 q 152 1057 126 985 q 238 1146 178 1129 q 256 1149 251 1149 q 288 1133 278 1149 q 297 1090 297 1117 q 289 1039 297 1065 q 269 997 281 1013 l 269 979 q 265 932 269 958 q 258 894 260 906 l 233 714 l 176 301 q 278 382 231 350 q 371 414 325 414 q 464 361 433 414 q 517 226 494 308 q 556 249 538 249 q 575 238 568 249 q 582 210 582 226 q 563 158 582 179 z "},"Ņ":{"ha":632,"x_min":15,"x_max":614,"o":"m 375 -85 q 410 -82 389 -82 q 457 -114 464 -82 q 346 -335 429 -243 q 288 -372 325 -358 q 218 -382 250 -385 q 181 -353 181 -378 q 194 -321 181 -339 q 275 -156 254 -250 q 310 -111 281 -129 q 375 -85 340 -93 m 215 1156 q 261 1176 236 1172 l 265 1176 q 294 1157 288 1176 q 306 1115 303 1142 q 308 1096 308 1101 q 344 977 328 1028 q 371 892 360 926 q 406 778 382 854 q 446 644 429 703 q 453 621 451 626 q 450 738 453 660 l 449 796 l 447 832 q 442 926 446 889 q 429 1000 439 964 q 440 1064 429 1036 l 457 1100 q 503 1158 472 1129 q 551 1182 525 1178 q 588 1161 575 1182 q 611 1043 608 1107 q 613 986 611 1004 q 614 879 613 914 q 611 653 614 803 q 603 426 611 576 l 601 397 q 598 344 600 382 q 592 278 596 307 q 561 131 579 185 q 533 68 546 90 q 486 11 519 42 q 440 -10 463 -10 q 424 -6 432 -10 q 386 53 401 6 q 361 144 374 92 q 350 203 353 183 q 328 308 335 281 q 276 539 313 386 q 135 69 231 256 q 108 31 125 49 q 72 4 90 13 q 50 -1 63 -1 q 33 1 39 -1 q 15 44 15 14 q 17 63 15 57 q 39 124 24 97 l 42 129 q 86 254 67 186 q 121 446 108 347 q 143 671 133 544 q 146 772 146 740 l 144 844 q 143 883 144 869 q 142 908 143 893 q 143 942 142 922 q 145 1016 143 989 q 157 1068 147 1043 q 215 1156 179 1125 z "},"Ŗ":{"ha":647,"x_min":-4,"x_max":654,"o":"m 382 -85 q 417 -82 396 -82 q 464 -114 471 -82 q 353 -335 436 -243 q 294 -372 332 -358 q 225 -382 257 -385 q 188 -353 188 -378 q 201 -321 188 -339 q 282 -156 261 -250 q 317 -111 288 -129 q 382 -85 347 -93 m 225 725 q 224 697 224 715 q 226 640 224 676 q 229 582 229 601 q 267 603 239 589 q 358 661 325 633 q 392 724 392 689 q 390 735 392 731 q 361 789 385 765 q 315 824 338 813 q 242 863 293 836 q 225 725 232 794 m 393 700 l 397 707 l 393 700 m 397 710 l 397 710 l 397 710 m 399 725 l 400 717 l 399 725 m 601 539 q 617 542 613 542 q 654 460 654 542 q 648 378 654 417 q 642 335 642 339 q 615 210 632 264 q 565 110 599 156 q 478 50 521 50 q 393 90 442 50 l 257 203 l 194 256 q 165 174 188 225 q 110 84 142 124 q 43 44 78 44 q 24 49 35 44 q -4 125 -4 60 q 17 278 -4 186 l 24 321 q 33 390 25 335 q 46 493 42 446 q 50 581 50 540 q 47 647 50 625 q 38 713 42 693 q 24 850 24 801 q 40 950 24 907 q 122 1058 68 1024 q 242 1092 175 1092 q 401 1051 321 1092 q 526 951 482 1010 q 565 836 565 901 q 524 697 565 768 q 422 565 483 626 q 294 465 360 504 q 399 382 349 425 q 486 313 457 335 q 601 539 486 500 z "},"Ţ":{"ha":778,"x_min":-54,"x_max":789,"o":"m 758 1128 q 789 1097 789 1126 q 774 1043 789 1074 q 743 994 758 1013 q 676 946 714 958 q 590 933 639 933 q 538 936 574 933 q 471 938 493 939 q 445 938 460 938 q 426 932 431 938 q 414 907 421 926 q 409 871 410 893 q 408 839 408 849 l 399 685 q 393 544 394 604 q 390 443 392 483 q 389 363 390 389 q 404 365 400 365 q 435 318 435 365 q 424 247 435 285 q 399 164 414 210 q 363 101 390 140 q 303 32 336 61 q 244 3 269 3 q 201 53 213 3 q 190 169 190 101 q 206 363 190 246 l 215 463 q 267 904 236 733 q 222 890 258 901 q 154 863 185 878 q 107 831 124 847 q 75 781 89 811 q 44 733 57 750 q 6 707 31 717 q -25 700 -10 700 q -54 736 -54 700 q -43 792 -54 760 q -19 843 -32 824 q 267 1063 74 996 q 675 1131 460 1131 q 758 1128 706 1131 m 343 -217 q 279 -224 308 -224 q 231 -219 256 -224 q 185 -206 203 -214 l 151 -187 l 167 -196 q 142 -158 142 -182 q 150 -130 142 -144 q 171 -104 158 -115 q 215 -78 190 -87 q 265 -68 240 -68 q 307 -76 289 -68 q 326 -81 318 -81 q 350 -69 342 -81 q 358 -43 358 -58 q 343 -6 358 -22 q 301 7 328 10 q 242 14 271 3 q 213 49 213 25 q 228 83 213 64 q 251 124 240 99 q 271 171 263 149 q 310 215 282 197 q 371 242 338 233 q 404 244 382 244 q 454 213 465 244 q 422 132 444 185 q 515 85 481 124 q 549 1 549 50 q 521 -89 549 -40 q 445 -169 492 -136 q 343 -217 399 -203 z "},"Ǆ":{"ha":1744,"x_min":-56,"x_max":1739,"o":"m 43 1165 q 82 1175 61 1175 q 136 1158 111 1175 q 154 1144 146 1151 q 169 1132 163 1138 q 192 1121 178 1126 q 215 1110 206 1115 q 338 1040 257 1088 l 461 969 q 649 864 568 908 l 738 817 q 872 744 817 776 q 974 672 926 713 q 1028 610 1008 640 q 1047 543 1047 579 l 1046 528 q 961 374 1032 447 q 834 274 907 315 q 667 194 761 232 q 297 85 506 133 q 265 78 275 79 l 208 64 l 128 49 q 36 35 90 42 q 16 30 31 33 q -10 26 1 26 q -26 29 -15 26 q -56 64 -56 35 q -42 109 -56 83 q -15 150 -29 135 q 107 217 26 199 q 127 226 124 221 q 132 249 131 231 q 135 324 132 274 q 149 525 146 456 q 156 625 154 592 q 158 644 157 632 q 160 672 160 656 q 154 706 160 690 q 61 881 125 776 q 63 877 61 879 q 67 869 65 875 q 7 963 49 901 q -6 981 1 969 q -18 999 -12 992 q -29 1010 -22 1003 q -40 1024 -36 1018 q -47 1049 -47 1038 q -17 1113 -47 1079 q 43 1165 13 1146 m 367 271 q 640 344 493 299 q 769 390 719 369 q 864 444 819 411 q 773 528 824 493 q 629 619 722 564 l 525 682 l 357 786 q 408 513 408 640 q 382 328 408 419 l 367 271 m 1668 275 q 1713 225 1713 274 q 1693 158 1713 194 q 1644 98 1674 122 q 1583 75 1614 74 q 1389 83 1450 83 q 1168 54 1261 83 q 1148 46 1158 50 q 1126 38 1138 42 q 1018 4 1057 4 q 974 15 992 4 q 932 96 932 38 q 950 176 932 135 q 994 254 968 217 q 1063 349 1019 292 q 1114 417 1108 408 q 1183 517 1158 483 l 1129 504 q 1114 503 1124 503 q 1091 513 1099 503 q 1083 539 1083 522 q 1116 634 1083 581 q 1182 696 1149 688 l 1325 729 l 1503 1001 q 1407 992 1439 996 q 1031 953 1200 974 q 1010 979 1010 951 q 1027 1045 1010 1006 q 1070 1115 1044 1085 q 1121 1149 1096 1146 q 1349 1169 1251 1160 q 1513 1186 1447 1179 l 1660 1201 l 1663 1201 q 1676 1194 1672 1201 q 1721 1176 1703 1194 q 1739 1128 1739 1157 q 1715 1058 1739 1094 l 1699 1032 q 1519 757 1589 860 q 1551 758 1540 757 q 1572 759 1560 758 q 1599 758 1583 760 q 1628 722 1628 758 q 1609 654 1628 693 q 1563 588 1590 615 q 1510 561 1535 561 q 1388 556 1456 563 q 1172 244 1303 426 q 1346 285 1272 276 q 1433 289 1389 289 q 1610 279 1508 289 l 1668 275 m 1169 1379 q 1160 1396 1160 1385 q 1180 1428 1160 1411 q 1217 1454 1200 1446 q 1301 1479 1261 1479 q 1342 1468 1326 1479 q 1403 1417 1375 1446 q 1542 1458 1474 1460 q 1588 1446 1571 1458 q 1606 1415 1606 1433 q 1576 1365 1606 1389 q 1529 1332 1558 1350 q 1487 1303 1504 1317 q 1456 1268 1469 1289 q 1407 1231 1440 1247 q 1340 1215 1374 1215 q 1276 1251 1292 1215 q 1169 1379 1246 1328 z "},"ǅ":{"ha":1740,"x_min":-56,"x_max":1726,"o":"m 43 1165 q 82 1175 61 1175 q 136 1158 111 1175 q 154 1144 146 1151 q 169 1132 163 1138 q 192 1121 178 1126 q 215 1110 206 1115 q 338 1040 257 1088 l 461 969 q 649 864 568 908 l 738 817 q 872 744 817 776 q 974 672 926 713 q 1028 610 1008 640 q 1047 543 1047 579 l 1046 528 q 961 374 1032 447 q 834 274 907 315 q 667 194 761 232 q 297 85 506 133 q 265 78 275 79 l 208 64 l 128 49 q 36 35 90 42 q 16 30 31 33 q -10 26 1 26 q -26 29 -15 26 q -56 64 -56 35 q -42 109 -56 83 q -15 150 -29 135 q 107 217 26 199 q 127 226 124 221 q 132 249 131 231 q 135 324 132 274 q 149 525 146 456 q 156 625 154 592 q 158 644 157 632 q 160 672 160 656 q 154 706 160 690 q 61 881 125 776 q 63 877 61 879 q 67 869 65 875 q 7 963 49 901 q -6 981 1 969 q -18 999 -12 992 q -29 1010 -22 1003 q -40 1024 -36 1018 q -47 1049 -47 1038 q -17 1113 -47 1079 q 43 1165 13 1146 m 367 271 q 640 344 493 299 q 769 390 719 369 q 864 444 819 411 q 773 528 824 493 q 629 619 722 564 l 525 682 l 357 786 q 408 513 408 640 q 382 328 408 419 l 367 271 m 1674 847 q 1709 835 1692 847 q 1726 808 1726 824 q 1721 790 1726 797 q 1635 675 1682 729 q 1506 533 1588 621 l 1521 535 q 1594 497 1594 535 q 1565 453 1594 469 q 1504 432 1536 436 q 1408 422 1472 428 l 1371 378 q 1257 243 1293 289 l 1214 190 q 1476 240 1301 204 l 1564 258 l 1586 261 q 1619 251 1608 261 q 1631 225 1631 240 q 1614 185 1631 204 q 1569 158 1597 165 q 1082 65 1326 94 q 1031 72 1056 63 q 1007 107 1007 81 q 1023 153 1007 129 q 1057 199 1039 178 q 1082 228 1075 219 q 1232 407 1138 300 q 1213 406 1222 407 q 1194 404 1204 404 q 1142 411 1164 404 q 1121 443 1121 418 q 1151 487 1121 469 q 1211 507 1182 504 q 1328 518 1289 515 l 1418 622 l 1467 678 l 1515 733 l 1408 719 q 1168 697 1256 696 q 1119 722 1119 699 q 1141 758 1119 739 q 1186 785 1163 778 q 1278 808 1231 800 q 1397 822 1325 815 q 1465 829 1421 824 q 1572 842 1517 836 q 1674 847 1628 847 m 1256 1024 q 1246 1040 1246 1029 q 1266 1073 1246 1056 q 1303 1099 1286 1090 q 1388 1124 1347 1124 q 1428 1113 1413 1124 q 1489 1061 1461 1090 q 1628 1103 1560 1104 q 1674 1090 1657 1103 q 1692 1060 1692 1078 q 1663 1010 1692 1033 q 1615 976 1644 994 q 1573 947 1590 961 q 1542 913 1556 933 q 1493 876 1526 892 q 1426 860 1460 860 q 1363 896 1378 860 q 1256 1024 1332 972 z "},"Ǉ":{"ha":1544,"x_min":32,"x_max":1529,"o":"m 594 158 q 562 114 588 150 q 506 52 536 78 q 451 26 476 26 q 422 36 436 26 q 404 64 410 44 q 393 117 399 83 q 372 191 385 167 q 326 210 358 215 q 279 182 306 206 q 232 136 253 158 q 203 106 211 114 l 175 79 q 139 43 154 57 q 106 21 124 29 q 68 11 85 11 q 32 69 32 11 q 38 132 32 99 q 44 171 43 165 q 143 889 106 635 q 184 1057 158 985 q 269 1146 210 1129 q 288 1149 283 1149 q 319 1133 310 1149 q 329 1090 329 1117 q 321 1039 329 1065 q 301 997 313 1013 l 301 979 q 297 932 301 958 q 290 894 292 906 l 265 714 l 208 301 q 310 382 263 350 q 403 414 357 414 q 496 361 465 414 q 549 226 526 308 q 588 249 569 249 q 607 238 600 249 q 614 210 614 226 q 594 158 614 179 m 1497 1200 q 1520 1185 1513 1200 q 1529 1156 1528 1171 q 1515 1094 1529 1122 q 1469 1024 1499 1054 q 1401 989 1439 993 q 1304 975 1332 979 q 1347 811 1335 890 q 1365 689 1364 718 q 1368 629 1368 650 q 1365 568 1368 610 q 1332 324 1357 414 q 1289 206 1311 249 q 1253 137 1269 164 q 1214 89 1236 110 l 1175 53 l 1149 38 q 1110 25 1132 25 q 1096 22 1101 22 q 996 47 1042 25 q 928 92 960 67 q 850 160 896 118 l 701 293 q 683 339 683 310 q 717 431 683 379 q 792 500 751 483 q 814 506 803 506 q 836 500 826 506 l 944 397 l 978 367 q 1069 289 1031 318 q 1151 243 1107 260 q 1160 242 1154 242 q 1171 272 1168 261 q 1200 425 1186 322 q 1207 546 1207 492 q 1206 593 1207 578 l 1203 622 q 1186 753 1194 708 q 1128 917 1167 844 q 1122 943 1122 926 l 1103 940 q 919 893 981 910 q 910 890 915 892 q 899 889 906 889 q 871 907 881 889 q 867 932 867 919 q 869 953 867 939 q 914 1036 878 997 q 958 1068 933 1057 q 1092 1107 1047 1093 q 1132 1118 1122 1117 q 1213 1140 1182 1133 q 1492 1199 1353 1172 l 1497 1200 z "},"ǈ":{"ha":1015,"x_min":32,"x_max":953,"o":"m 594 158 q 562 114 588 150 q 506 52 536 78 q 451 26 476 26 q 422 36 436 26 q 404 64 410 44 q 393 117 399 83 q 372 191 385 167 q 326 210 358 215 q 279 182 306 206 q 232 136 253 158 q 203 106 211 114 l 175 79 q 139 43 154 57 q 106 21 124 29 q 68 11 85 11 q 32 69 32 11 q 38 132 32 99 q 44 171 43 165 q 143 889 106 635 q 184 1057 158 985 q 269 1146 210 1129 q 288 1149 283 1149 q 319 1133 310 1149 q 329 1090 329 1117 q 321 1039 329 1065 q 301 997 313 1013 l 301 979 q 297 932 301 958 q 290 894 292 906 l 265 714 l 208 301 q 310 382 263 350 q 403 414 357 414 q 496 361 465 414 q 549 226 526 308 q 588 249 569 249 q 607 238 600 249 q 614 210 614 226 q 594 158 614 179 m 900 874 q 953 393 953 650 q 916 -13 953 185 q 806 -374 879 -211 q 757 -413 796 -396 q 683 -431 718 -431 q 644 -418 657 -431 q 390 -203 511 -369 q 382 -179 382 -193 q 422 -126 382 -150 q 500 -101 461 -101 q 542 -118 531 -101 q 683 -265 599 -201 q 758 51 732 -117 q 783 389 783 219 q 739 815 783 621 q 751 858 733 838 q 797 890 768 878 q 853 903 826 903 q 884 895 871 903 q 900 874 897 888 m 704 978 q 739 954 707 963 l 754 953 q 800 963 776 953 q 849 993 828 974 q 864 1038 869 1013 q 840 1136 849 1096 q 828 1151 839 1146 q 806 1157 817 1156 l 793 1158 q 744 1149 769 1158 q 695 1120 717 1139 q 681 1078 674 1101 l 704 978 z "},"Ǌ":{"ha":1569,"x_min":35,"x_max":1554,"o":"m 235 1156 q 281 1176 256 1172 l 285 1176 q 314 1157 307 1176 q 325 1115 322 1142 q 328 1096 328 1101 q 363 977 347 1028 q 390 892 379 926 q 425 778 401 854 q 465 644 449 703 q 472 621 471 626 q 469 738 472 660 l 468 796 l 467 832 q 462 926 465 889 q 449 1000 458 964 q 460 1064 449 1036 l 476 1100 q 522 1158 492 1129 q 571 1182 544 1178 q 607 1161 594 1182 q 631 1043 628 1107 q 632 986 631 1004 q 633 879 632 914 q 631 653 633 803 q 622 426 631 576 l 621 397 q 617 344 619 382 q 611 278 615 307 q 581 131 599 185 q 553 68 565 90 q 506 11 539 42 q 460 -10 482 -10 q 443 -6 451 -10 q 406 53 421 6 q 381 144 393 92 q 369 203 372 183 q 347 308 354 281 q 296 539 332 386 q 154 69 250 256 q 127 31 144 49 q 92 4 110 13 q 69 -1 82 -1 q 53 1 58 -1 q 35 44 35 14 q 36 63 35 57 q 58 124 43 97 l 61 129 q 106 254 86 186 q 140 446 128 347 q 163 671 153 544 q 165 772 165 740 l 164 844 q 163 883 164 869 q 162 908 163 893 q 163 942 161 922 q 165 1016 163 989 q 176 1068 167 1043 q 235 1156 199 1125 m 1522 1200 q 1545 1185 1538 1200 q 1554 1156 1553 1171 q 1540 1094 1554 1122 q 1494 1024 1524 1054 q 1426 989 1464 993 q 1329 975 1357 979 q 1372 811 1360 890 q 1390 689 1389 718 q 1393 629 1393 650 q 1390 568 1393 610 q 1357 324 1382 414 q 1314 206 1336 249 q 1278 137 1294 164 q 1239 89 1261 110 l 1200 53 l 1174 38 q 1135 25 1157 25 q 1121 22 1126 22 q 1021 47 1067 25 q 953 92 985 67 q 875 160 921 118 l 726 293 q 708 339 708 310 q 742 431 708 379 q 817 500 776 483 q 839 506 828 506 q 861 500 851 506 l 969 397 l 1003 367 q 1094 289 1056 318 q 1176 243 1132 260 q 1185 242 1179 242 q 1196 272 1193 261 q 1225 425 1211 322 q 1232 546 1232 492 q 1231 593 1232 578 l 1228 622 q 1211 753 1219 708 q 1153 917 1192 844 q 1147 943 1147 926 l 1128 940 q 944 893 1006 910 q 935 890 940 892 q 924 889 931 889 q 896 907 906 889 q 892 932 892 919 q 894 953 892 939 q 939 1036 903 997 q 983 1068 958 1057 q 1117 1107 1072 1093 q 1157 1118 1147 1117 q 1238 1140 1207 1133 q 1517 1199 1378 1172 l 1522 1200 z "},"ǋ":{"ha":1040,"x_min":35,"x_max":978,"o":"m 235 1156 q 281 1176 256 1172 l 285 1176 q 314 1157 307 1176 q 325 1115 322 1142 q 328 1096 328 1101 q 363 977 347 1028 q 390 892 379 926 q 425 778 401 854 q 465 644 449 703 q 472 621 471 626 q 469 738 472 660 l 468 796 l 467 832 q 462 926 465 889 q 449 1000 458 964 q 460 1064 449 1036 l 476 1100 q 522 1158 492 1129 q 571 1182 544 1178 q 607 1161 594 1182 q 631 1043 628 1107 q 632 986 631 1004 q 633 879 632 914 q 631 653 633 803 q 622 426 631 576 l 621 397 q 617 344 619 382 q 611 278 615 307 q 581 131 599 185 q 553 68 565 90 q 506 11 539 42 q 460 -10 482 -10 q 443 -6 451 -10 q 406 53 421 6 q 381 144 393 92 q 369 203 372 183 q 347 308 354 281 q 296 539 332 386 q 154 69 250 256 q 127 31 144 49 q 92 4 110 13 q 69 -1 82 -1 q 53 1 58 -1 q 35 44 35 14 q 36 63 35 57 q 58 124 43 97 l 61 129 q 106 254 86 186 q 140 446 128 347 q 163 671 153 544 q 165 772 165 740 l 164 844 q 163 883 164 869 q 162 908 163 893 q 163 942 161 922 q 165 1016 163 989 q 176 1068 167 1043 q 235 1156 199 1125 m 925 874 q 978 393 978 650 q 941 -13 978 185 q 831 -374 904 -211 q 782 -413 821 -396 q 708 -431 743 -431 q 669 -418 682 -431 q 415 -203 536 -369 q 407 -179 407 -193 q 447 -126 407 -150 q 525 -101 486 -101 q 567 -118 556 -101 q 708 -265 624 -201 q 783 51 757 -117 q 808 389 808 219 q 764 815 808 621 q 776 858 758 838 q 822 890 793 878 q 878 903 851 903 q 909 895 896 903 q 925 874 922 888 m 729 978 q 764 954 732 963 l 779 953 q 825 963 801 953 q 874 993 853 974 q 889 1038 894 1013 q 865 1136 874 1096 q 853 1151 864 1146 q 831 1157 842 1156 l 818 1158 q 769 1149 794 1158 q 720 1120 742 1139 q 706 1078 699 1101 l 729 978 z "},"Ǫ":{"ha":833,"x_min":29,"x_max":742,"o":"m 432 1154 q 501 1163 469 1163 q 682 1059 622 1163 q 742 790 742 956 q 681 435 742 618 q 516 132 621 253 q 283 11 411 11 q 167 39 224 11 q 63 157 97 74 q 29 357 29 240 q 85 694 29 515 q 235 1001 142 872 q 432 1154 328 1131 m 407 929 q 276 855 335 928 q 183 673 217 782 q 149 460 149 564 q 186 288 149 354 q 299 222 224 222 q 360 232 329 222 q 478 326 424 253 q 565 499 533 400 q 597 692 597 599 q 551 866 597 800 q 407 929 504 932 m 475 96 q 449 67 458 81 q 443 35 440 53 q 465 4 444 17 q 479 3 475 4 q 506 -8 493 0 q 521 -26 519 -15 l 521 -28 q 522 -42 522 -33 q 503 -85 522 -68 q 451 -119 485 -103 q 404 -131 431 -131 q 328 -106 367 -131 q 285 -74 301 -90 q 261 -37 268 -58 q 257 -11 257 -24 q 325 106 257 46 q 385 142 350 129 q 454 154 421 156 q 481 144 471 153 q 490 125 490 136 q 475 96 490 111 z "},"Ȁ":{"ha":957,"x_min":38,"x_max":938,"o":"m 526 517 q 576 493 549 508 q 513 749 535 643 q 369 485 458 640 q 346 442 363 469 q 472 528 401 528 q 526 517 500 528 m 749 714 q 883 354 806 521 l 899 324 q 928 267 918 290 q 938 221 938 244 q 907 147 938 185 q 840 90 876 108 q 793 78 818 78 q 710 103 751 78 q 613 178 669 129 q 551 225 572 211 q 493 256 538 235 q 373 325 415 294 q 331 397 331 356 q 340 431 331 408 q 267 286 314 383 q 200 154 208 168 q 146 87 183 124 q 76 50 108 50 q 47 63 60 50 q 38 93 38 72 q 126 300 38 151 q 144 332 132 311 l 175 390 q 313 658 269 568 q 385 817 338 711 l 435 929 q 496 1038 465 994 q 572 1106 526 1082 q 617 1118 596 1118 q 657 1092 644 1118 q 679 1017 669 1067 q 749 714 704 874 m 347 1260 q 206 1467 285 1360 q 197 1489 197 1478 q 242 1547 197 1519 q 331 1574 288 1574 q 375 1557 363 1574 q 533 1329 451 1461 q 538 1315 538 1324 q 508 1273 538 1294 q 458 1246 479 1251 q 401 1233 428 1233 q 347 1260 363 1233 m 856 1326 q 860 1314 860 1321 q 837 1279 860 1297 q 781 1249 814 1261 q 719 1236 747 1236 q 668 1257 685 1236 l 550 1431 l 479 1533 q 475 1546 475 1540 q 497 1580 475 1563 q 552 1609 519 1597 q 614 1621 585 1621 q 664 1601 650 1621 l 856 1326 z "},"Ȃ":{"ha":938,"x_min":38,"x_max":938,"o":"m 603 1451 q 625 1453 610 1453 q 725 1436 674 1453 q 812 1386 776 1419 q 847 1307 847 1353 q 844 1282 847 1299 q 808 1230 838 1250 q 742 1203 778 1210 q 715 1200 731 1200 q 667 1210 686 1200 q 653 1242 647 1219 q 654 1256 654 1246 q 636 1297 654 1279 q 593 1326 618 1315 q 578 1332 589 1329 q 557 1335 567 1335 q 538 1319 538 1335 q 517 1274 540 1296 q 458 1240 493 1253 q 394 1226 424 1226 q 353 1250 354 1226 q 388 1348 347 1304 q 489 1419 428 1392 q 603 1451 550 1446 m 526 517 q 576 493 549 508 q 513 749 535 643 q 369 485 458 640 q 346 442 363 469 q 472 528 401 528 q 526 517 500 528 m 749 714 q 883 354 806 521 l 899 324 q 928 267 918 290 q 938 221 938 244 q 907 147 938 185 q 840 90 876 108 q 793 78 818 78 q 710 103 751 78 q 613 178 669 129 q 551 225 572 211 q 493 256 538 235 q 373 325 415 294 q 331 397 331 356 q 340 431 331 408 q 267 286 314 383 q 200 154 208 168 q 146 87 183 124 q 76 50 108 50 q 47 63 60 50 q 38 93 38 72 q 126 300 38 151 q 144 332 132 311 l 175 390 q 313 658 269 568 q 385 817 338 711 l 435 929 q 496 1038 465 994 q 572 1106 526 1082 q 617 1118 596 1118 q 657 1092 644 1118 q 679 1017 669 1067 q 749 714 704 874 z "},"Ȅ":{"ha":833,"x_min":-6,"x_max":815,"o":"m 267 1211 q 125 1418 204 1311 q 117 1440 117 1429 q 162 1498 117 1471 q 250 1525 207 1525 q 294 1508 282 1525 q 453 1281 371 1413 q 457 1267 457 1275 q 428 1224 457 1246 q 378 1197 399 1203 q 321 1185 347 1185 q 267 1211 282 1185 m 775 1278 q 779 1265 779 1272 q 756 1231 779 1249 q 700 1200 733 1213 q 639 1188 667 1188 q 588 1208 604 1188 l 469 1382 l 399 1485 q 394 1497 394 1492 q 417 1531 394 1514 q 472 1560 439 1549 q 533 1572 504 1572 q 583 1553 569 1572 l 775 1278 m 732 267 q 785 211 785 260 q 777 172 785 193 q 757 132 769 150 q 697 79 731 93 q 608 63 663 65 q 451 58 499 58 q 263 51 315 54 q 72 24 154 47 q 26 15 39 15 q 3 25 11 15 q -6 60 -6 35 q 5 115 -6 86 q 38 192 15 143 q 68 261 57 229 q 81 300 71 271 q 96 353 92 329 q 97 369 97 360 q 94 390 97 378 q 90 413 92 401 q 97 456 89 435 q 119 506 104 478 q 147 575 143 554 q 175 756 172 694 l 176 799 q 168 860 176 840 q 143 893 161 876 q 121 921 126 910 q 114 954 114 933 q 126 1005 114 978 q 156 1054 138 1032 q 232 1096 188 1096 q 299 1076 265 1096 q 382 1019 333 1057 q 436 981 418 992 q 546 921 501 942 q 640 890 590 900 q 685 886 664 886 q 729 890 707 886 q 756 899 738 892 q 785 907 775 907 q 801 901 794 907 q 815 869 815 892 q 802 820 815 847 q 775 775 789 793 q 653 711 732 722 q 601 707 628 707 q 463 731 531 707 q 307 800 394 756 q 275 578 299 693 l 322 589 q 442 616 396 607 q 533 625 489 625 q 563 624 553 625 q 611 575 611 619 q 601 529 611 554 q 575 483 590 504 q 507 435 547 446 q 403 422 467 424 l 356 419 q 279 410 306 414 q 247 403 253 407 q 235 390 240 400 q 225 372 231 381 q 207 329 215 356 q 193 276 199 303 q 179 221 185 238 q 406 255 257 239 q 658 271 556 271 q 732 267 703 271 z "},"Ȇ":{"ha":833,"x_min":-6,"x_max":815,"o":"m 468 1456 q 490 1457 475 1457 q 590 1440 539 1457 q 677 1390 642 1424 q 713 1311 713 1357 q 710 1286 713 1303 q 673 1234 703 1254 q 607 1207 643 1214 q 581 1204 596 1204 q 532 1214 551 1204 q 518 1246 513 1224 q 519 1260 519 1250 q 501 1301 519 1283 q 458 1331 483 1319 q 443 1336 454 1333 q 422 1339 432 1339 q 403 1324 403 1339 q 382 1278 406 1300 q 324 1244 358 1257 q 260 1231 289 1231 q 218 1254 219 1231 q 253 1352 213 1308 q 354 1423 293 1396 q 468 1456 415 1450 m 732 267 q 785 211 785 260 q 777 172 785 193 q 757 132 769 150 q 697 79 731 93 q 608 63 663 65 q 451 58 499 58 q 263 51 315 54 q 72 24 154 47 q 26 15 39 15 q 3 25 11 15 q -6 60 -6 35 q 5 115 -6 86 q 38 192 15 143 q 68 261 57 229 q 81 300 71 271 q 96 353 92 329 q 97 369 97 360 q 94 390 97 378 q 90 413 92 401 q 97 456 89 435 q 119 506 104 478 q 147 575 143 554 q 175 756 172 694 l 176 799 q 168 860 176 840 q 143 893 161 876 q 121 921 126 910 q 114 954 114 933 q 126 1005 114 978 q 156 1054 138 1032 q 232 1096 188 1096 q 299 1076 265 1096 q 382 1019 333 1057 q 436 981 418 992 q 546 921 501 942 q 640 890 590 900 q 685 886 664 886 q 729 890 707 886 q 756 899 738 892 q 785 907 775 907 q 801 901 794 907 q 815 869 815 892 q 802 820 815 847 q 775 775 789 793 q 653 711 732 722 q 601 707 628 707 q 463 731 531 707 q 307 800 394 756 q 275 578 299 693 l 322 589 q 442 616 396 607 q 533 625 489 625 q 563 624 553 625 q 611 575 611 619 q 601 529 611 554 q 575 483 590 504 q 507 435 547 446 q 403 422 467 424 l 356 419 q 279 410 306 414 q 247 403 253 407 q 235 390 240 400 q 225 372 231 381 q 207 329 215 356 q 193 276 199 303 q 179 221 185 238 q 406 255 257 239 q 658 271 556 271 q 732 267 703 271 z "},"Ȉ":{"ha":532,"x_min":28,"x_max":510,"o":"m 343 225 q 326 148 343 190 q 279 76 308 106 q 218 46 250 46 q 183 72 192 46 q 174 138 174 97 q 189 442 174 256 q 192 485 189 457 q 199 547 193 506 q 204 606 200 561 q 208 689 208 651 q 204 753 208 722 l 200 783 q 194 828 194 814 q 215 908 194 868 q 268 974 235 949 q 313 992 294 992 q 354 889 354 992 l 353 842 l 353 690 q 351 540 353 590 q 344 446 350 510 q 340 386 343 428 q 338 311 338 344 q 342 240 338 276 l 343 225 m 135 1154 q 33 1303 82 1240 q 28 1319 28 1310 q 60 1360 28 1342 q 124 1379 93 1379 q 156 1368 146 1379 q 269 1204 213 1299 q 257 1168 279 1188 q 215 1144 235 1149 q 175 1135 196 1135 q 135 1154 146 1135 m 501 1201 q 495 1175 510 1190 q 453 1149 481 1160 q 403 1138 426 1138 q 367 1151 376 1138 q 302 1247 336 1197 q 231 1351 268 1296 q 236 1378 222 1364 q 276 1404 250 1393 q 326 1415 303 1415 q 364 1400 353 1415 l 501 1201 z "},"Ȋ":{"ha":522,"x_min":8,"x_max":508,"o":"m 293 225 q 276 148 293 190 q 229 76 258 106 q 168 46 200 46 q 133 72 142 46 q 124 138 124 97 q 139 442 124 256 q 142 485 139 457 q 149 547 143 506 q 154 606 150 561 q 158 689 158 651 q 154 753 158 722 l 150 783 q 144 828 144 814 q 165 908 144 868 q 218 974 185 949 q 263 992 244 992 q 304 889 304 992 l 303 842 l 303 690 q 301 540 303 590 q 294 446 300 510 q 290 386 293 428 q 288 311 288 344 q 292 240 288 276 l 293 225 m 264 1351 q 286 1353 271 1353 q 386 1336 335 1353 q 473 1286 438 1319 q 508 1207 508 1253 q 506 1182 508 1199 q 469 1130 499 1150 q 403 1103 439 1110 q 376 1100 392 1100 q 328 1110 347 1100 q 314 1142 308 1119 q 315 1156 315 1146 q 297 1197 315 1179 q 254 1226 279 1215 q 239 1232 250 1229 q 218 1235 228 1235 q 199 1219 199 1235 q 178 1174 201 1196 q 119 1140 154 1153 q 56 1126 85 1126 q 14 1150 15 1126 q 49 1248 8 1204 q 150 1319 89 1292 q 264 1351 211 1346 z "},"Ȍ":{"ha":833,"x_min":29,"x_max":808,"o":"m 296 1207 q 154 1414 233 1307 q 146 1436 146 1425 q 191 1494 146 1467 q 279 1521 236 1521 q 324 1504 311 1521 q 482 1276 400 1408 q 486 1263 486 1271 q 457 1220 486 1242 q 407 1193 428 1199 q 350 1181 376 1181 q 296 1207 311 1181 m 804 1274 q 808 1261 808 1268 q 785 1226 808 1244 q 729 1196 763 1208 q 668 1183 696 1183 q 617 1204 633 1183 l 499 1378 l 428 1481 q 424 1493 424 1488 q 446 1527 424 1510 q 501 1556 468 1544 q 563 1568 533 1568 q 613 1549 599 1568 l 804 1274 m 432 1154 q 501 1163 469 1163 q 682 1059 622 1163 q 742 790 742 956 q 681 435 742 618 q 516 132 621 253 q 283 11 411 11 q 167 39 224 11 q 63 157 97 74 q 29 357 29 240 q 85 694 29 515 q 235 1001 142 872 q 432 1154 328 1131 m 407 929 q 276 855 335 928 q 183 673 217 782 q 149 460 149 564 q 186 288 149 354 q 299 222 224 222 q 360 232 329 222 q 478 326 424 253 q 565 499 533 400 q 597 692 597 599 q 551 866 597 800 q 407 929 504 932 z "},"Ȏ":{"ha":833,"x_min":29,"x_max":803,"o":"m 558 1456 q 581 1457 565 1457 q 681 1440 629 1457 q 767 1390 732 1424 q 803 1311 803 1357 q 800 1286 803 1303 q 763 1234 793 1254 q 697 1207 733 1214 q 671 1204 686 1204 q 622 1214 642 1204 q 608 1246 603 1224 q 610 1260 610 1250 q 592 1301 610 1283 q 549 1331 574 1319 q 533 1336 544 1333 q 513 1339 522 1339 q 493 1324 493 1339 q 472 1278 496 1300 q 414 1244 449 1257 q 350 1231 379 1231 q 308 1254 310 1231 q 343 1352 303 1308 q 444 1423 383 1396 q 558 1456 506 1450 m 432 1154 q 501 1163 469 1163 q 682 1059 622 1163 q 742 790 742 956 q 681 435 742 618 q 516 132 621 253 q 283 11 411 11 q 167 39 224 11 q 63 157 97 74 q 29 357 29 240 q 85 694 29 515 q 235 1001 142 872 q 432 1154 328 1131 m 407 929 q 276 855 335 928 q 183 673 217 782 q 149 460 149 564 q 186 288 149 354 q 299 222 224 222 q 360 232 329 222 q 478 326 424 253 q 565 499 533 400 q 597 692 597 599 q 551 866 597 800 q 407 929 504 932 z "},"Ȑ":{"ha":683,"x_min":-32,"x_max":685,"o":"m 118 1243 q -24 1450 56 1343 q -32 1472 -32 1461 q 13 1530 -32 1503 q 101 1557 58 1557 q 146 1540 133 1557 q 304 1313 222 1444 q 308 1299 308 1307 q 279 1256 308 1278 q 229 1229 250 1235 q 172 1217 199 1217 q 118 1243 133 1217 m 626 1310 q 631 1297 631 1304 q 608 1263 631 1281 q 551 1232 585 1244 q 490 1219 518 1219 q 439 1240 456 1219 l 321 1414 l 250 1517 q 246 1529 246 1524 q 268 1563 246 1546 q 323 1592 290 1581 q 385 1604 356 1604 q 435 1585 421 1604 l 626 1310 m 256 725 q 254 697 254 715 q 257 640 254 676 q 260 582 260 601 q 297 603 269 589 q 389 661 356 633 q 422 724 422 689 q 421 735 422 731 q 392 789 415 765 q 346 824 368 813 q 272 863 324 836 q 256 725 263 794 m 424 700 l 428 707 l 424 700 m 428 710 l 428 710 l 428 710 m 429 725 l 431 717 l 429 725 m 632 539 q 647 542 643 542 q 685 460 685 542 q 678 378 685 417 q 672 335 672 339 q 646 210 663 264 q 596 110 629 156 q 508 50 551 50 q 424 90 472 50 l 288 203 l 225 256 q 195 174 218 225 q 140 84 172 124 q 74 44 108 44 q 54 49 65 44 q 26 125 26 60 q 47 278 26 186 l 54 321 q 64 390 56 335 q 76 493 72 446 q 81 581 81 540 q 78 647 81 625 q 68 713 72 693 q 54 850 54 801 q 71 950 54 907 q 152 1058 99 1024 q 272 1092 206 1092 q 432 1051 351 1092 q 557 951 513 1010 q 596 836 596 901 q 555 697 596 768 q 452 565 514 626 q 325 465 390 504 q 429 382 379 425 q 517 313 488 335 q 632 539 517 500 z "},"Ȓ":{"ha":685,"x_min":26,"x_max":685,"o":"m 340 1450 q 363 1451 347 1451 q 463 1435 411 1451 q 549 1385 514 1418 q 585 1306 585 1351 q 582 1281 585 1297 q 545 1228 575 1249 q 479 1201 515 1208 q 453 1199 468 1199 q 404 1208 424 1199 q 390 1240 385 1218 q 392 1254 392 1244 q 374 1296 392 1278 q 331 1325 356 1314 q 315 1331 326 1328 q 294 1333 304 1333 q 275 1318 275 1333 q 254 1273 278 1294 q 196 1238 231 1251 q 132 1225 161 1225 q 90 1249 92 1225 q 125 1347 85 1303 q 226 1417 165 1390 q 340 1450 288 1444 m 256 725 q 254 697 254 715 q 257 640 254 676 q 260 582 260 601 q 297 603 269 589 q 389 661 356 633 q 422 724 422 689 q 421 735 422 731 q 392 789 415 765 q 346 824 368 813 q 272 863 324 836 q 256 725 263 794 m 424 700 l 428 707 l 424 700 m 428 710 l 428 710 l 428 710 m 429 725 l 431 717 l 429 725 m 632 539 q 647 542 643 542 q 685 460 685 542 q 678 378 685 417 q 672 335 672 339 q 646 210 663 264 q 596 110 629 156 q 508 50 551 50 q 424 90 472 50 l 288 203 l 225 256 q 195 174 218 225 q 140 84 172 124 q 74 44 108 44 q 54 49 65 44 q 26 125 26 60 q 47 278 26 186 l 54 321 q 64 390 56 335 q 76 493 72 446 q 81 581 81 540 q 78 647 81 625 q 68 713 72 693 q 54 850 54 801 q 71 950 54 907 q 152 1058 99 1024 q 272 1092 206 1092 q 432 1051 351 1092 q 557 951 513 1010 q 596 836 596 901 q 555 697 596 768 q 452 565 514 626 q 325 465 390 504 q 429 382 379 425 q 517 313 488 335 q 632 539 517 500 z "}}}
